<svg id="Capa_1" enable-background="new 0 0 512 512" viewBox="0 0 512 512" xmlns="http://www.w3.org/2000/svg"><g><path d="m449.944 442.187c0 17.443-20.627 33.402-54.73 45.632l-33.66-6.883-53.71 26.17c-10.849 1.34-22.131 2.421-33.742 3.225l-161.871-17.474-61.983-6.687c-31.414-12.003-50.248-27.313-50.248-43.983 0-16.639 18.751-31.919 50.063-43.922 18.319-7.016 40.934-12.92 66.599-17.299 32.125-5.482 69.041-8.603 108.305-8.603 14.301 0 28.292.412 41.851 1.216 26.829 1.556 51.979 4.595 74.543 8.84 20.75 3.905 39.306 8.819 54.956 14.527 33.443 12.178 53.627 27.983 53.627 45.241z" fill="#7888af"/><path d="m110.572 440.816 1.659 52.041-61.983-6.687c-31.414-12.003-50.248-27.313-50.248-43.983 0-16.639 18.751-31.919 50.063-43.922 18.319-7.016 40.934-12.92 66.599-17.299-4.112 17.051-6.615 36.957-6.09 59.85z" fill="#5972a5"/><path d="m371.641 364.781-1.337.294c-12.183 2.683-24.235-5.018-26.918-17.201l-42.602-193.432 45.456-10.011 42.602 193.432c2.684 12.183-5.017 24.234-17.201 26.918z" fill="#7888af"/><path d="m487.736 137.103-183.703 40.449-6.398 1.412-128.335 28.262c-16.671 3.678-33.155-6.862-36.833-23.532l-16.732-75.995c-3.678-16.671 6.862-33.165 23.532-36.833l131.055-28.869 1.37-.299 186.01-40.965c16.67-3.679 33.155 6.861 36.833 23.532l16.732 75.995c3.679 16.68-6.861 33.165-23.531 36.843z" fill="#fbf198"/><path d="m304.033 177.553-6.398 1.412-128.335 28.261c-16.671 3.678-33.155-6.862-36.833-23.532l-16.732-75.995c-3.678-16.671 6.862-33.165 23.532-36.833l131.055-28.869 1.37-.299c-4.162 15.31-8.047 41.913.556 75.357 6.985 27.178 17.494 47.176 31.785 60.498z" fill="#fad989"/><path d="m244.696 364.31-26.661-26.944 13.204-21.745c8.744-14.4 28.693-16.749 40.542-4.773 11.849 11.976 9.29 31.898-5.202 40.49z" fill="#eaaa83"/><path d="m81.121 364.31 26.661-26.944-13.204-21.746c-8.744-14.4-28.693-16.749-40.542-4.773-11.849 11.976-9.29 31.898 5.202 40.49z" fill="#df8a57"/><path d="m278.996 437.169c-.155 1.7-2.73 42.418-4.894 73.162-15.815 1.092-32.259 1.669-49.135 1.669-40.944 0-79.343-3.4-112.416-9.334l-45.539-76.665 34.742-98.569c14.404-8.953 30.95-14.857 48.785-16.753 4.111-.443 8.294-.67 12.528-.67 29.652 0 56.461 11.004 76.861 28.972 11.127 9.798 20.246 21.564 26.891 34.598 9.807 19.174 14.32 41.098 12.177 63.59z" fill="#f2c7ae"/><path d="m110.572 440.816 1.978 61.849c-23.882-4.286-45.004-9.891-62.302-16.495-1.587-24.552-3.009-47.857-3.112-49.063-1.247-13.425-.155-26.499 2.926-38.842 5.79-23.244 18.628-43.891 36.236-59.356 17.464-15.361 39.625-25.613 64.24-28.23-14.713 17.71-41.563 59.881-39.966 130.137z" fill="#eaaa83"/><path d="m205.463 331.728c-6.903-.701-12.559-2.133-16.546-3.4-4.276-1.37-8.603 2.029-8.232 6.501.309 3.782 1.762 7.253 3.348 10.025 2.03 3.544.144 8.067-3.791 9.17-1.309.361-2.565.69-3.791.968l-25.912-7.913-18.288-20.647-15.723-6.769c5.162-10.365 13.837-16.536 22.317-20.204 5.924-2.566 12.199-4.039 18.545-4.503 7.686-.567 15.486.361 22.966 2.648 20.369 6.254 28.457 17.526 31.672 25.5 1.781 4.42-1.825 9.108-6.565 8.624z" fill="#fff4e5"/><path d="m176.45 354.992c-26.839 6.171-34.968-7.367-37.431-16.124-.896-3.184-4.121-5.183-7.356-4.492-4.987 1.072-9.633.588-13.095-.206-3.524-.793-5.687-4.431-4.646-7.902 4.358-14.455 14.774-22.42 24.923-26.809 5.924-2.566 12.199-4.039 18.545-4.503-3.916 9.85-11.509 38.225 19.06 60.036z" fill="#ffe0b7"/><path d="m193.939 480.94c-17.094 0-31-13.906-31-31 0-4.268 3.46-7.727 7.727-7.727s7.727 3.459 7.727 7.727c0 8.571 6.974 15.545 15.546 15.545s15.546-6.974 15.546-15.545c0-4.268 3.46-7.727 7.727-7.727 4.268 0 7.727 3.459 7.727 7.727 0 17.094-13.907 31-31 31z" fill="#eaaa83"/><path d="m162.881 449.945c0 17.093-13.909 30.991-31.002 30.991-7.738 0-14.826-2.843-20.266-7.573-6.573-5.667-10.736-14.064-10.736-23.418 0-4.276 3.462-7.727 7.727-7.727.701 0 1.381.093 2.019.278 3.287.876 5.708 3.874 5.708 7.45 0 8.561 6.975 15.537 15.547 15.537s15.547-6.975 15.547-15.537c0-4.276 3.462-7.727 7.727-7.727 4.267-.001 7.729 3.45 7.729 7.726z" fill="#eaaa83"/><path d="m111.613 473.363c-6.573-5.667-10.736-14.064-10.736-23.418 0-4.276 3.462-7.727 7.727-7.727.701 0 1.381.093 2.019.278z" fill="#df8a57"/><path d="m395.214 487.819c-23.501 8.438-53.401 15.114-87.37 19.287 8.768-22.048 26.108-70.38 33.516-124.687 1.205-8.84 2.153-17.845 2.751-26.912.824-12.343 11.086-21.935 23.45-21.935 5.77 0 11.107 2.091 15.238 5.615 4.132 3.513 7.047 8.459 7.975 14.156 1.824 11.21 3.987 26.427 5.543 43.602 2.555 28.046 3.523 61.314-1.103 90.874z" fill="#f2c7ae"/><path d="m480.143 67.278c-5.516-25.047-30.377-40.939-55.431-35.421-25.108 5.528-40.951 30.324-35.422 55.431 4.778 21.692 24.067 36.515 45.42 36.515 29.69.001 51.815-27.548 45.433-56.525zm-38.745 40.34c-16.726 3.683-33.331-6.927-37.015-23.654-4.266-19.377 10.499-37.745 30.34-37.745 14.257 0 27.138 9.9 30.329 24.383 3.682 16.726-6.929 33.331-23.654 37.016z" fill="#7888af"/><g><path d="m327.758 132.646-22.758 5.013-15.024-68.214c-.919-4.168-5.043-6.809-9.208-5.884-4.168.918-6.803 5.041-5.884 9.208l16.686 75.761c.917 4.165 5.044 6.805 9.208 5.884l30.304-6.675c4.168-.918 6.803-5.041 5.884-9.208-.918-4.17-5.044-6.811-9.208-5.885z" fill="#7888af"/><path d="m388.366 119.297-22.758 5.013-15.023-68.214c-.919-4.167-5.042-6.806-9.208-5.884-4.167.918-6.803 5.041-5.884 9.208l16.685 75.761c.917 4.165 5.044 6.805 9.208 5.884l30.304-6.675c4.167-.918 6.803-5.041 5.884-9.208-.919-4.169-5.042-6.808-9.208-5.885z" fill="#7888af"/><g fill="#5972a5"><path d="m199.064 89.466c-.918-4.167-5.036-6.805-9.209-5.884-4.167.918-6.802 5.041-5.885 9.208l6.395 29.035-30.364 6.688-6.395-29.035c-.918-4.166-5.038-6.807-9.208-5.884-4.167.918-6.802 5.041-5.885 9.208l16.686 75.76c.921 4.181 5.056 6.802 9.208 5.884 4.168-.918 6.802-5.041 5.884-9.208l-6.967-31.633 30.364-6.688 6.967 31.634c.921 4.181 5.056 6.802 9.208 5.884 4.168-.918 6.802-5.041 5.884-9.208z"/><path d="m267.149 145.994-22.757 5.013-5.019-22.788 20.524-4.52c4.167-.918 6.803-5.04 5.884-9.208-.917-4.167-5.041-6.803-9.208-5.884l-20.523 4.52-5.019-22.787 22.758-5.013c4.168-.918 6.802-5.041 5.884-9.208-.918-4.168-5.042-6.801-9.209-5.884l-30.304 6.675c-4.167.918-6.802 5.041-5.884 9.208l16.686 75.761c1.372 6.231 6.564 6.465 11.891 5.308l27.621-6.099c4.168-.918 6.803-5.041 5.884-9.208-.918-4.169-5.042-6.805-9.209-5.886z"/></g></g><g><g><g><path d="m116.363 418.879c-4.268 0-7.727-3.459-7.727-7.727 0-3.559-2.896-6.454-6.455-6.454s-6.455 2.896-6.455 6.454c0 4.268-3.46 7.727-7.727 7.727-4.268 0-7.727-3.459-7.727-7.727 0-12.081 9.829-21.909 21.91-21.909s21.91 9.828 21.91 21.909c-.001 4.268-3.461 7.727-7.729 7.727z" fill="#495560"/></g><g><path d="m237.818 418.879c-4.268 0-7.727-3.459-7.727-7.727 0-3.559-2.896-6.454-6.455-6.454s-6.454 2.896-6.454 6.454c0 4.268-3.46 7.727-7.727 7.727s-7.727-3.459-7.727-7.727c0-12.081 9.828-21.909 21.909-21.909s21.91 9.828 21.91 21.909c-.001 4.268-3.461 7.727-7.729 7.727z" fill="#495560"/></g></g><path d="m187.32 435.414c0-15.087-10.929-16.504-24.411-16.504s-24.412 1.417-24.412 16.504c0 15.086 10.929 27.316 24.412 27.316 13.482 0 24.411-12.23 24.411-27.316z" fill="#495560"/></g></g><g/><g/><g/><g/><g/><g/><g/><g/><g/><g/><g/><g/><g/><g/><g/></svg>