<svg version="1.2" xmlns="http://www.w3.org/2000/svg" viewBox="0 0 1200 1200" width="1200" height="1200">
	<title>v935-aum-09-a</title>
	<defs>
		<clipPath clipPathUnits="userSpaceOnUse" id="cp1">
			<path d="m0 1200v-1200h1200v1200z"/>
		</clipPath>
	</defs>
	<style>
		.s0 { fill: #b6d6d0 } 
		.s1 { fill: #efcee1 } 
		.s2 { fill: #e6a67b } 
		.s3 { fill: #f1cb34 } 
		.s4 { fill: #f4d4cb } 
		.s5 { fill: #b4b6d9 } 
		.s6 { fill: #e47c98 } 
		.s7 { fill: #fae285 } 
		.s8 { fill: #c1d5ea } 
		.s9 { fill: #f2adad } 
		.s10 { fill: #ef9635 } 
		.s11 { fill: #c19ec8 } 
	</style>
	<g id="&lt;Clip Group&gt;" clip-path="url(#cp1)">
		<path id="&lt;Path&gt;" class="s0" d="m842.4-42.5c-68.5 71.1-144.3 134.4-221.9 195.2-78.1 61.3-158 120.1-235 182.8-75.8 61.7-149 127.4-212.7 201.8-69.6 81.3-130.4 172.6-153.5 278.5-12.3 56.2-15.7 113.9-16 171.3-0.3 60.1 2.1 120.3 6.7 180.3q1.7 21.9 3.8 43.8c0.7 8 6.3 14.9 14.9 14.9 7.4 0 15.6-6.8 14.9-14.9-5.7-59.3-9.1-118.9-10.2-178.5-1-56.5-0.7-113.5 7.4-169.5 8-54.4 23.8-106.7 49.2-155.6 23.8-45.7 53.8-88.2 86.3-128.2 61.3-75.3 132.6-141.8 207.1-203.8 75.3-62.7 154.1-121.1 231.5-181 77.3-59.9 153.6-121.6 223.2-190.4q12.8-12.7 25.3-25.6c13.3-13.8-7.7-34.9-21-21.1z"/>
		<path id="&lt;Path&gt;" class="s1" d="m900.7-31.7c-56.7 86.7-130.6 160.2-208.6 227.7-79.1 68.6-162.9 131.6-242.2 199.8-80.3 69-156.1 143.9-215.5 232-61.8 91.5-105.8 195.4-130 303.1-24.3 108.5-28.8 221.1-12.1 331.2q3.1 20.4 7.2 40.6c1.6 7.9 11 12.4 18.3 10.4 8.2-2.3 12-10.4 10.4-18.3-21.3-106-21.6-216.4-1.9-322.7 19.8-107.1 59.1-210.3 116.6-302.8 55.3-88.9 128.1-164.5 206.3-233.5 77.9-68.8 161-131.5 240.4-198.5 78.8-66.6 154.1-138.1 214.8-222q11.4-15.7 22-32c10.5-16.1-15.3-31-25.7-15z"/>
		<path id="&lt;Path&gt;" class="s2" d="m1172.2-57.8c-2.1 49.6-36.2 89.2-71.5 120.7-20.2 18.1-42 34.3-63.6 50.5q-38.3 28.6-77.3 56.4c-51.4 36.7-103.7 72.2-157.1 106-52.3 33.3-105.5 65.1-158.1 98-99.5 62.2-197.6 128.7-280.5 212.4-77.4 78.2-141.4 171.7-172.4 278.2-32.4 111-29.7 232.7 8.2 342 4.8 13.8 10.3 27.4 16.1 40.9 3.1 7.3 14 9 20.3 5.3 7.7-4.5 8.6-13 5.4-20.4-44.8-103.7-54.4-222.6-28.6-332.4 25-106.3 84.1-199.9 158.5-278.5 79.7-84.2 175.1-150.6 272.7-212.2 51.7-32.6 104.1-64 155.9-96.5 53.7-33.7 106.5-68.9 158.3-105.5 49.3-34.8 99-69.8 145.7-108.1 38.8-31.8 76.7-70.2 91.6-119.4 3.7-12.1 5.6-24.7 6.2-37.4 0.8-19.1-29-19.1-29.8 0z"/>
		<path id="&lt;Path&gt;" class="s3" d="m1372.8-62.1c-18.7 61.1-37.7 123.1-72.4 177.3-34.7 54.2-86.1 95.7-136.9 134.1-99.9 75.5-208.7 138-317.9 198.7-109.3 60.8-219.6 120.2-323.6 189.9-52.1 35-102.5 72.5-149.8 113.7-45.4 39.4-88.2 83.8-118 136.4-30.5 53.8-43.8 114.3-31.6 175.5 6.5 33.2 19.8 64.8 35 94.8 15 29.5 31.8 58.3 51.6 84.7 10 13.4 20.6 26.1 32.2 38.1 13.4 13.7 34.4-7.3 21.1-21.1-22.5-23.1-41-49.4-57.4-77.1-16.8-28.3-32.4-57.8-43.2-88.9-10.5-29.9-16.2-60.8-14-92.5 2-27.3 10-54.2 21.7-78.8 25.4-53.3 65.8-98 109.2-137.3 45-40.8 93.7-77.7 143.8-112 101.9-69.7 210.5-128.9 318.3-188.7 108.3-60 216.4-121 316.6-194.1 51.4-37.5 104-77.1 144.3-126.9 41.2-50.9 65.8-111.6 85.8-173.4 4.8-14.8 9.4-29.6 13.9-44.5 5.6-18.3-23.1-26.2-28.7-7.9z"/>
		<path id="&lt;Path&gt;" class="s4" d="m-68.4 757.2c-8.8-43.2-21.1-85.9-37.5-126.9-17.5-43.5-39.9-84.1-63.7-124.4-23.3-39.3-46.5-78.7-64.1-121-17-40.9-29.9-83.5-39.9-126.6-20.2-87.3-28.3-176.8-34.8-266.1q-1.2-16.5-2.4-33.1c-0.5-8-6.4-14.8-14.9-14.8-7.6 0-15.4 6.8-14.8 14.8 6.3 89.8 13 179.8 30 268.3 17.1 89 46.3 173.9 91.3 252.7 22.9 40.1 47.8 79.2 68 120.8 19.1 39.4 33.7 80.9 44.7 123.3 22.2 85.9 29.2 174.9 27.9 263.4-1.4 95.5-11.7 191-29.2 284.9q-3.3 17.9-7.1 35.8c-1.6 7.8 2.3 16.1 10.4 18.3 7.4 2 16.7-2.5 18.4-10.4 19.8-95.9 32.3-193.6 36.2-291.5 3.6-89.4-0.6-179.6-18.5-267.5z"/>
		<path id="&lt;Path&gt;" class="s5" d="m619.6-75.6c-105.2 111.3-214.9 226.5-352 298.8-65.1 34.4-137.5 56.3-211.7 51-68.1-5-129.8-35.2-174.4-87-47.1-54.8-72.5-125.9-85.5-196.1-1.5-7.9-11.1-12.4-18.4-10.4-8.3 2.3-11.8 10.4-10.3 18.3 12.4 66.6 35.9 133.2 76.4 188.1 43.1 58.4 104 99.3 175.9 112.2 160.5 29 309.4-65.1 426.7-164.1 69.3-58.5 132.2-124 194.4-189.8 13.2-13.9-7.9-35-21.1-21z"/>
		<path id="&lt;Path&gt;" class="s6" d="m426.9-49.2c-7.6-4.5-15.5-1.1-20.3 5.3-55.5 74.3-124.8 144.9-213.1 178.5-82.5 31.3-180.6 30-250.5-29.3-34.3-29.1-58.4-67.9-65.1-112.6-1.2-8-11.2-12.4-18.3-10.4-8.5 2.3-11.6 10.3-10.4 18.3 13.3 89.5 91.7 159.5 177.8 178.2 103.4 22.4 208-17.6 288.3-82.1 44.8-36 82.7-79.6 117-125.5 4.8-6.5 1-16.7-5.4-20.4z"/>
		<path id="&lt;Path&gt;" class="s1" d="m283.1-101.6c-26.8 51.8-56.2 107.5-107.7 138.7-23.3 14.1-49.9 22.6-77.3 20.9-24-1.5-46.6-12.7-64.2-28.9-20.8-19.1-35.3-44-43.3-70.9-5.4-18.4-34.2-10.6-28.7 7.9 16.3 54.9 58.4 107.4 117 119.1 66.3 13.3 129.9-24.7 170.3-74.9 23.9-29.7 42.1-63.1 59.6-96.8 8.8-17-16.9-32.1-25.7-15.1z"/>
		<path id="&lt;Path&gt;" class="s7" d="m759.1-111.2c-7.5-4.4-15.7-1.2-20.4 5.4-88.2 122-198.5 227.4-317.9 318.7-60.7 46.4-123.8 91.8-190.4 129.5-66 37.3-140.2 66.7-217.4 59.2-73.5-7.1-141.3-52-178.3-115.4-9.7-16.5-35.4-1.6-25.7 15 35.7 61.1 96.6 106.8 165.3 123.7 78.9 19.5 159.6-1.4 231.1-35.8 71.8-34.6 137.9-81.8 201.8-129 63.4-46.8 124.5-96.9 181.6-151.2 64.4-61.1 123.6-127.7 175.6-199.7 4.7-6.5 1.1-16.6-5.3-20.4z"/>
		<path id="&lt;Path&gt;" class="s0" d="m-212.5 180c-45.2-82.4-63-177.8-51.7-271 1-8-7.5-14.9-14.9-14.9-8.8 0-13.9 6.9-14.9 14.9-11.9 98.2 8.2 199.4 55.8 286.1 9.3 16.7 35 1.7 25.7-15.1z"/>
		<path id="&lt;Path&gt;" class="s8" d="m107.5 492.7c-17.8 10.8-36.1 21.9-56.9 25.8-20.9 4-41.8-3.9-60.4-13-37.1-18.3-69.4-44.2-95.6-76.1-5.1-6.3-15.8-5.3-21.1 0-6.1 6.1-5.1 14.8 0 21 29.3 35.6 66.8 65 108.7 84.1 23.6 10.8 47.8 17.5 73.9 13.2 24-4 45.9-16.9 66.5-29.3 16.4-9.8 1.4-35.6-15.1-25.7z"/>
		<path id="&lt;Path&gt;" class="s1" d="m16.1 648.8c-10.2-17.6-23.4-33.2-39.2-45.9-6.3-5-15-6.1-21.1 0-5.2 5.2-6.3 16 0 21 14 11.3 25.6 24.4 34.6 39.9 9.6 16.5 35.4 1.6 25.7-15z"/>
		<path id="&lt;Path&gt;" class="s8" d="m836.9 336.2c-93.3 54.8-184.8 112.6-274.3 173.3q-38.4 26.1-76.4 52.9c-6.5 4.7-9.6 13-5.3 20.4 3.8 6.5 13.8 10 20.4 5.3 88.3-62.4 178.7-121.9 270.9-178.4q39.7-24.3 79.7-47.8c16.6-9.7 1.6-35.4-15-25.7z"/>
		<path id="&lt;Path&gt;" class="s4" d="m1318.9-104.7c-8.4-2.3-15.4 2.8-18.3 10.4-31.1 81.3-100.8 139.5-160 200.1-17.6 18.1-34.7 36.6-50.5 56.3-5 6.3-6.1 14.9 0 21.1 5.2 5.2 16 6.3 21.1 0 56.8-70.9 131.1-126.3 182.6-201.7 14.4-21.2 26.3-43.9 35.5-67.9 2.9-7.5-3.2-16.3-10.4-18.3z"/>
		<path id="&lt;Path&gt;" class="s9" d="m1008.2 226.4c-20.5 18.2-42.4 34.4-65.7 48.8-16.3 10-1.3 35.8 15 25.7 25.4-15.7 49.4-33.6 71.8-53.5 14.3-12.7-6.8-33.7-21.1-21z"/>
		<path id="&lt;Path&gt;" class="s7" d="m1143-101.6c-5.3-5.3-15.9-6.2-21.1 0-71.2 86.2-152.3 164.6-241.6 231.9-25.3 19.1-51.2 37.3-77.7 54.6-15.9 10.5-1 36.3 15.1 25.7 95.3-62.5 183.4-136.1 261.6-219 22-23.3 43.2-47.4 63.7-72.1 5.1-6.2 6-15 0-21.1z"/>
		<path id="&lt;Path&gt;" class="s10" d="m-145.5 875.8c-8.3-129.6-35.3-262.7-111.9-370.5-19.7-27.7-42.2-53.4-67.8-76-6-5.3-15.1-5.9-21 0-5.4 5.4-6.1 15.7 0 21.1 91.4 80.6 138.2 197.2 158.5 315 6.3 36.6 10.1 73.5 12.5 110.4 0.5 8.1 6.5 14.9 14.9 14.9 7.6 0 15.4-6.8 14.8-14.9z"/>
		<path id="&lt;Path&gt;" class="s3" d="m-182.1 1031.7c-0.9 55.2-5.4 110.4-14.1 164.9-4.3 27.3-9.5 54.3-15.7 81.2q-4.7 20.1-10 40.1-2.6 9.6-5.3 19.2c-0.9 3.1-1.8 7.3-2.8 11.1q-0.1 0.1-0.2 0.1c-5.6 4.1-9.1 9.4-7.8 16.5 1.3 7.5 6.9 13.1 14.5 14 16.9 2 20.3-17.5 23.8-29.6q10.7-37 19-74.6c11.2-51 19.1-102.7 23.8-154.6 2.6-29.4 4.1-58.8 4.6-88.3 0.3-19.1-29.5-19.1-29.8 0z"/>
		<path id="&lt;Path&gt;" class="s8" d="m-276.2 689.4c-19.1-43.6-45-84.1-77.3-119.1-13-14.1-34.1 7-21.1 21 54.9 59.5 87.7 135.3 104.2 213.9 18.7 89.2 15.2 181.4 4 271.4-6.8 54.8-16.6 109.2-26.4 163.5-1.5 7.9 2.1 16 10.4 18.3 7.2 2 16.8-2.4 18.3-10.4 17.9-99.3 36-199.5 36.6-300.7 0.6-88.2-13.1-176.8-48.7-257.9z"/>
		<path id="&lt;Path&gt;" class="s7" d="m1530.6-62.5c-8.6 0-14.2 6.8-14.9 14.9-8.3 108-57 207.7-114.7 297.5-59.9 93.5-131.6 178.7-191.7 272.1-56.2 87.3-98.9 181.7-117.7 284.3-17.7 96.9-16.4 196.7 3.3 293.3 19.4 95.6 57.4 188 112.6 268.5q10.1 14.8 20.9 29c4.9 6.4 12.9 9.8 20.4 5.3 6.3-3.6 10.3-13.9 5.4-20.3-58.6-76.8-100.2-165.3-123.5-258.9-23-92.4-28.4-189.8-14.5-284 7-47.5 18.7-94.3 35.1-139.4 18-49.3 42.3-95.9 69.7-140.5 57.9-94.5 129.3-179.6 190.8-271.6 59.6-89.1 112.1-187.4 128.9-294.5 2.1-13.5 3.7-27.1 4.8-40.8 0.6-8-7.3-14.9-14.9-14.9z"/>
		<path id="&lt;Path&gt;" class="s5" d="m932.4 931c-8.6-43.6-20.5-88.9-43.4-127.3-21-35-52.1-61-90.8-74-78.5-26.4-161.8 2.6-224.8 51.2-33.9 26.1-63.3 57.1-91.2 89.5-28.6 33.3-56.3 68.3-73.5 109.1-37.9 89.7-5.3 183.9 34 266.9 5.1 10.6 10.3 21.2 15.5 31.8 8.5 17.2 34.2 2.1 25.7-15-37.1-75-79.6-162.3-56.3-247.9 10.4-38.3 33.1-72 57.8-102.5 25.5-31.5 52.8-62.1 83-89.2 53.6-48.1 123.9-84.8 197.9-71.3 34.4 6.3 65.5 23.1 86.9 51.2 24.7 32.8 36.6 74.1 45.8 113.5 23.1 99.5 20.9 202.6 18.9 304-0.4 19.2 29.4 19.2 29.8 0 1.9-96.8 3.5-194.5-15.3-290z"/>
		<path id="&lt;Path&gt;" class="s6" d="m844.4 1187.1c-0.9-23.5-3-56.8-32.8-60.6-14.7-1.8-28.6 5.8-41.5 11.9q-17.9 8.5-35 18.4c-24 13.9-46.6 29.9-67.9 47.6-6.2 5.1-5.3 15.7 0 21 6.1 6.1 14.8 5.1 21 0 17.4-14.3 35.8-27.3 55.1-38.9q14.7-8.8 30-16.6c9.6-4.8 20.7-11.9 31.4-13.7 6.8-1.1 7.7 5.1 8.6 11.3 1.8 10.6 1.5 21.9 1.7 32.7 0.3 25.8-1.3 51.6-4.7 77.2-1.1 8 7.6 14.9 14.9 14.9 8.9 0 13.8-6.9 14.9-14.9 3.9-29.9 5.5-60.1 4.3-90.3z"/>
		<path id="&lt;Path&gt;" class="s7" d="m860.3 1014c-15.2-39.1-36.9-75.1-65.2-106-26.2-28.6-63.1-55.3-103.9-51.1-39.8 4.2-73.8 34.1-97.5 64.5-24.3 31.1-41 67.5-51.1 105.6-13 49.1-15.6 100.3-15.5 150.9 0.1 19.1 29.8 19.1 29.8 0-0.2-75.6 5.9-154.6 47.3-220.1 17.1-26.9 41.8-54.7 72.1-66.9 33.5-13.5 65.7 6.1 89.2 29.3 28.9 28.4 51.5 64 66.1 101.7 2.9 7.5 10 12.7 18.3 10.4 7.1-2 13.3-10.8 10.4-18.3z"/>
		<path id="&lt;Path&gt;" class="s1" d="m728.5 985.3c-2-7-10.9-13.5-18.3-10.4-19.1 7.8-37.9 15.8-53.9 29.1-16.6 13.7-25.6 32.9-31.6 53.2-13.3 45.1-19.8 92.6-19.7 139.6 0.1 27.4 2.6 54.6 7 81.6 1.3 8 11.2 12.4 18.3 10.4 8.5-2.3 11.7-10.3 10.4-18.3-8.7-53.2-8-108.2 2.1-161.2 2.6-13.6 5.8-27.2 9.6-40.6 3.1-10.7 6.4-21.4 12.7-30.7 11.8-17.8 34-26.6 53-34.4 7.4-3.1 12.7-9.9 10.4-18.3z"/>
		<path id="&lt;Path&gt;" class="s8" d="m751.9 1046.4l-41.8 38c-14.2 12.9 6.9 34 21.1 21.1l41.8-38.1c14.2-12.9-6.9-33.9-21.1-21z"/>
		<path id="&lt;Path&gt;" class="s8" d="m403.6 1225.7c-27.5-45.2-52.9-93.2-57.6-146.7-4.5-50.2 6.2-100.8 31.3-144.5 9.6-16.6-16.1-31.6-25.7-15-21.5 37.6-33.8 79.9-36 123.2-2.4 44.7 7.4 88.1 25.2 128.9 10.5 24 23.5 46.8 37.1 69.1 10 16.3 35.7 1.4 25.7-15z"/>
		<path id="&lt;Path&gt;" class="s11" d="m1482.9-42.4c-8.1-2.4-15.7 2.4-18.6 9.9-30.5 81.1-72.8 157.5-124.6 226.9-52.1 69.6-114.2 131.8-183.6 184.2-77.1 58.2-163.9 101.4-251.6 141-88 39.8-177.6 76.5-262 123.7-79 44.1-154.6 97.6-213.8 166.6q-11.6 13.5-22.4 27.7c-4.9 6.4-1.6 16.6 4.8 20.5 7.4 4.6 15.6 1.6 20.5-4.8 54.7-71.6 127.6-127 204.9-172.3 83.1-48.6 172.1-86.1 260-125.3 89.7-40 178.9-82.5 258.9-139.9 72.1-51.7 136.3-113 191.5-182.3 54.9-68.9 99.9-145.3 133.8-226.5q6.3-15.3 12.1-30.8c2.9-7.5-2.6-16.4-9.9-18.6z"/>
		<path id="&lt;Path&gt;" class="s8" d="m1244.4 1275.9c-60.7-131.8-50.8-281.5-25-420.5 7.9-42.5 17.3-84.7 26.7-126.9 1.7-7.9-0.6-16.1-8.9-19.2-6.7-2.4-17.3 1-19.1 8.9-33.1 148.5-66.8 302.1-37.5 454.3 7.7 40 19.9 79.2 36.9 116.2 8 17.4 34.9 4.6 26.9-12.8z"/>
		<path id="&lt;Path&gt;" class="s0" d="m1607.8 156.4c-73.2 113.5-179.7 202.1-245.3 320.9-18.1 32.7-33 67.3-42.4 103.5-4.9 18.5 23.4 27.7 28.3 9.2 33.8-129.6 133.1-225.8 216-325.7 24.4-29.4 47.7-59.6 68.4-91.8 10.4-16.1-14.6-32.2-25-16.1z"/>
		<path id="&lt;Path&gt;" class="s6" d="m1565.5 360.7c-77.8 99.3-137.5 212.7-176.9 332.5-39.4 119.9-59.1 246.5-56.7 372.7 1.4 71.6 9.5 142.9 24.9 212.8 4.1 18.6 33.5 13.5 29.3-5.2-26.7-120.9-31.4-245.8-15.4-368.5 15.9-122.2 52.5-241.6 107.8-351.8 31-61.9 68.5-120.7 111.2-175.2 11.9-15.2-12.4-32.4-24.2-17.3z"/>
		<path id="&lt;Path&gt;" class="s5" d="m1290.6 639.8c-19.2 0-19.2 29.7 0 29.7 19.1 0 19.1-29.7 0-29.7z"/>
		<path id="&lt;Path&gt;" class="s10" d="m1284.4 805.1c-8.6 0-14.2 6.8-14.8 14.8q-8.3 98-16.6 196c-0.6 8.1 7.4 14.9 14.9 14.9 8.6 0 14.2-6.8 14.9-14.9q8.3-98 16.5-196c0.7-8-7.3-14.8-14.9-14.8z"/>
		<path id="&lt;Path&gt;" class="s4" d="m1562.6 521c-6.5-3.8-16.8-1.9-20.3 5.3-45.9 93.3-80 192.2-101 294-21 101.8-29.5 206.3-24.7 310.1 2.8 58.9 9.8 117.6 21 175.5 1.5 7.9 11 12.4 18.3 10.4 8.3-2.2 11.9-10.4 10.4-18.3-19.1-99-25.2-200.4-18.9-301.1 6.4-101.1 25.5-201.4 56.7-297.8 17.5-54 38.8-106.8 63.9-157.7 3.5-7.2 1.9-16.1-5.4-20.4z"/>
		<path id="&lt;Path&gt;" class="s1" d="m1179.2 433.6c-80.8 83.5-136.8 188.5-168.4 299.9-34.8 122.5-39.5 252.1-23.5 378 9.6 75 25.9 148.9 47.4 221.3 5.4 18.3 34.1 10.5 28.7-7.9-37-124.4-59.2-253.9-54.6-384 4-115 30.1-229.9 82.6-332.7 28.7-56.2 64.9-108.2 108.8-153.6 13.3-13.7-7.7-34.8-21-21z"/>
		<path id="&lt;Path&gt;" class="s0" d="m998.8 585.9c-5.2-5.2-16.1-6.4-21.1 0-34 42.7-54.8 92.7-61.3 146.9-1 8 7.5 14.9 14.8 14.9 8.9 0 14-6.9 14.9-14.9 5.5-45.5 24.1-90 52.7-125.9 5-6.3 6.1-14.9 0-21z"/>
		<path id="&lt;Path&gt;" class="s7" d="m843.5 634.8c-19.2 0-19.2 29.8 0 29.8 19.1 0 19.2-29.8 0-29.8z"/>
	</g>
</svg>