<svg version="1.2" xmlns="http://www.w3.org/2000/svg" viewBox="0 0 576 576" width="576" height="576">
	<title>3088</title>
	<defs>
		<clipPath clipPathUnits="userSpaceOnUse" id="cp1">
			<path d="m0 576v-576h575.99v576z"/>
		</clipPath>
	</defs>
	<style>
		.s0 { fill: #314057 } 
	</style>
	<g id="Layer 1">
		<g id="&lt;Group&gt;">
			<g id="&lt;Clip Group&gt;" clip-path="url(#cp1)">
				<g id="&lt;Group&gt;">
					<path id="&lt;Compound Path&gt;" fill-rule="evenodd" class="s0" d="m-28.9 498.4c0.4-0.4 0.9-0.8 1.2-1.2q7-12.2 14-24.4c0.2-0.2 0.2-0.4 0.3-0.7-1.5-2.6-3-5.3-4.6-8.1-3.1-5.4-6.2-10.8-9.4-16.2-0.4-0.6-1-1.2-1.5-1.8q0-0.9 0-1.8c0.5-0.2 1-0.3 1.8-0.6 0.3 0.6 0.7 1.3 1.1 2 4.5 7.7 9 15.4 13.4 23.2 0.9 1.7 1.9 2.4 3.9 2.4 8.9-0.2 17.8-0.1 26.6-0.1 0.8 0 1.7 0 2.6 0 0 0.7 0 1.3 0 2.2q-1.2 0-2.4 0c-9 0-18 0.1-27 0-1.7 0-2.7 0.4-3.5 2-4.4 7.8-9 15.6-13.5 23.4q-0.6 1-1.2 2.1c-0.7-0.3-1.2-0.4-1.8-0.7q0-0.8 0-1.7zm18.1-26.3c-0.6-0.3-0.9-0.6-1.3-0.6-0.2 0-0.4 0.5-0.7 0.7 0.3 0.3 0.6 0.7 0.9 0.7 0.3 0 0.6-0.4 1.1-0.8z"/>
					<path id="&lt;Compound Path&gt;" fill-rule="evenodd" class="s0" d="m-28.9 340.4c0.4-0.4 0.9-0.7 1.2-1.2q7-12.1 14-24.3c0.2-0.2 0.2-0.4 0.3-0.7q-2.3-4.1-4.7-8.3-4.6-8-9.3-16c-0.4-0.7-1-1.2-1.5-1.8q0-0.9 0-1.8c0.5-0.2 1-0.4 1.8-0.6 0.3 0.6 0.8 1.4 1.2 2.1 4.4 7.6 8.8 15.3 13.2 22.8 1.7 3 0.8 2.5 4.3 2.6 8.7 0 17.5 0 26.3 0 0.8 0 1.7 0 2.6 0 0 0.7 0 1.3 0 2.2q-1.2 0-2.4 0c-9 0-18 0-27-0.1-1.7 0-2.7 0.5-3.5 2-4.4 7.9-9 15.6-13.5 23.4q-0.6 1.1-1.2 2.1c-0.7-0.2-1.2-0.4-1.8-0.6q0-0.9 0-1.8zm16.9-25.1c0.4-0.4 0.8-0.7 0.9-1 0-0.2-0.5-0.8-0.7-0.7-0.3 0-0.8 0.3-0.9 0.6-0.1 0.2 0.4 0.6 0.7 1.1z"/>
					<path id="&lt;Compound Path&gt;" fill-rule="evenodd" class="s0" d="m-28.9 182.5c0.4-0.4 0.9-0.7 1.2-1.2q7-12.2 14-24.3c0.2-0.2 0.2-0.5 0.3-0.8q-2.4-4.2-4.9-8.6-4.5-7.8-9.1-15.6c-0.4-0.7-1-1.3-1.5-1.9q0-0.9 0-1.8c0.5-0.1 1-0.3 1.7-0.5 0.4 0.5 0.8 1.2 1.2 1.9 4.4 7.7 8.8 15.4 13.3 23 1.7 3 0.8 2.5 4.3 2.5 8.7 0 17.5 0 26.3 0 0.8 0 1.7 0 2.6 0 0 0.7 0 1.4 0 2.2q-1.2 0-2.4 0c-9 0-18 0.1-27 0-1.7 0-2.7 0.5-3.5 2-4.5 7.9-9 15.7-13.6 23.6q-0.6 1-1.1 1.9c-0.7-0.2-1.2-0.4-1.8-0.6q0-0.9 0-1.8zm18.1-26.2c-0.6-0.3-0.9-0.7-1.2-0.7-0.3 0-0.5 0.5-0.8 0.7 0.3 0.3 0.6 0.7 0.9 0.7 0.3 0.1 0.6-0.4 1.1-0.7z"/>
					<path id="&lt;Compound Path&gt;" fill-rule="evenodd" class="s0" d="m-28.9 261.7c0.4-0.5 0.9-1 1.3-1.5q6.9-12.1 13.9-24.2c0.1-0.2 0.2-0.4 0.3-0.7-0.2-0.5-0.5-1-0.8-1.5q-6.5-11.4-13.1-22.8c-0.4-0.7-0.5-1.7-1.6-1.7q0-0.9 0-1.8c0.5-0.2 1-0.5 1.7-0.8 0.3 0.5 0.7 1.1 1 1.6 4.6 8 9.3 16 13.8 24 0.8 1.5 1.8 2 3.4 1.9 8.9 0 17.9 0 26.8 0 0.9 0 1.8 0 2.7 0 0 0.8 0 1.4 0 2.1-0.3 0.1-0.6 0.2-1 0.2q-10 0-20.1 0c-3 0-6 0-8.9-0.1-1.3 0-2 0.5-2.7 1.6-4.5 8-9.2 16-13.8 24q-0.6 1-1.2 1.9c-0.6-0.3-1.2-0.6-1.7-0.9q0-0.7 0-1.3zm15.9-26.4c0.4 0.3 0.7 0.8 1 0.8 0.3 0 0.6-0.5 0.9-0.7-0.3-0.3-0.5-0.8-0.8-0.8-0.3-0.1-0.6 0.3-1.1 0.7z"/>
					<path id="&lt;Compound Path&gt;" fill-rule="evenodd" class="s0" d="m-28.9 419.6c0.4-0.5 0.9-0.9 1.3-1.5q6.9-12.1 13.9-24.1c0.1-0.2 0.2-0.5 0.3-0.8-0.2-0.4-0.5-1-0.8-1.5q-6.5-11.4-13.1-22.8c-0.4-0.6-0.5-1.6-1.6-1.6q0-0.9 0-1.8c0.5-0.3 1-0.5 1.7-0.8 0.3 0.5 0.7 1 1 1.6 4.6 8 9.3 15.9 13.8 24 0.8 1.4 1.8 1.9 3.4 1.9 8.9-0.1 17.9-0.1 26.8-0.1 0.9 0 1.8 0 2.7 0 0 0.8 0 1.4 0 2.1-0.3 0.1-0.6 0.2-1 0.2q-10.3 0-20.5 0c-2.9 0-5.7 0.1-8.5 0-1.3-0.1-2 0.4-2.7 1.5-4.6 8.2-9.3 16.3-14 24.4q-0.5 0.8-1 1.6c-0.6-0.4-1.2-0.7-1.7-0.9q0-0.7 0-1.4zm18.1-26.4c-0.5-0.3-0.9-0.8-1.2-0.7-0.3 0-0.5 0.5-0.8 0.8 0.3 0.3 0.6 0.7 0.9 0.7 0.3 0 0.6-0.4 1.1-0.8z"/>
					<path id="&lt;Compound Path&gt;" fill-rule="evenodd" class="s0" d="m-28.9 577.6c0.4-0.5 0.9-1 1.3-1.6q6.9-12 13.9-24.1c0.1-0.2 0.2-0.4 0.3-0.7-0.2-0.5-0.5-1-0.8-1.5q-6.5-11.4-13.1-22.8c-0.4-0.7-0.5-1.7-1.6-1.7q0-0.9 0-1.8c0.5-0.2 1-0.5 1.7-0.8 0.3 0.5 0.7 1 1 1.6 4.6 8 9.3 16 13.8 24 0.8 1.4 1.8 1.9 3.4 1.9 8.9-0.1 17.9 0 26.8 0 0.9 0 1.8 0 2.7 0 0 0.8 0 1.3 0 2.1-0.3 0-0.6 0.1-1 0.1q-11.5 0-23 0c-2 0-4 0.1-6 0-1.3 0-2 0.5-2.7 1.6-4.6 8.1-9.3 16.2-14 24.4q-0.5 0.7-1 1.5c-0.6-0.3-1.2-0.6-1.7-0.9q0-0.7 0-1.3zm18.1-26.5c-0.5-0.3-0.9-0.7-1.2-0.7-0.3 0.1-0.5 0.6-0.8 0.8 0.3 0.3 0.6 0.7 0.9 0.7 0.3 0.1 0.6-0.4 1.1-0.8z"/>
					<path id="&lt;Compound Path&gt;" fill-rule="evenodd" class="s0" d="m-28.9 103.7c0.4-0.5 0.9-0.9 1.3-1.5q6.9-12 13.9-24.1c0.1-0.2 0.2-0.4 0.3-0.7-0.2-0.4-0.4-0.9-0.7-1.4q-6.6-11.5-13.2-22.9c-0.4-0.7-0.5-1.7-1.6-1.7q0-0.9 0-1.8c0.5-0.2 1-0.5 1.7-0.8 0.3 0.5 0.7 1 1 1.6 4.6 8 9.3 16 13.8 24 0.8 1.4 1.8 1.9 3.4 1.9 8.9-0.1 17.9 0 26.8 0 0.9 0 1.8 0 2.7 0 0 0.8 0 1.3 0 2.1-0.3 0-0.6 0.1-1 0.1q-10.3 0-20.5 0c-2.9 0-5.7 0.1-8.5 0-1.3 0-2 0.4-2.7 1.5-4.5 8.1-9.2 16.1-13.8 24.1q-0.6 0.9-1.2 1.9c-0.6-0.3-1.2-0.6-1.7-0.9q0-0.7 0-1.4zm17-25.2c0.4-0.5 0.8-0.9 0.7-1.2 0-0.3-0.5-0.7-0.8-0.7-0.3 0-0.7 0.5-0.7 0.8 0 0.3 0.5 0.6 0.8 1.1z"/>
					<path id="&lt;Compound Path&gt;" fill-rule="evenodd" class="s0" d="m-28.9 24.5c0.4-0.3 0.9-0.7 1.2-1.1q7-12.1 14-24.2c0.1-0.2 0.1-0.5 0.3-0.8-0.9-1.5-1.8-3.1-2.8-4.7q-5.5-9.7-11.1-19.4c-0.4-0.6-0.5-1.6-1.6-1.7q0-0.8 0-1.7c0.5-0.3 1-0.5 1.7-0.9 0.3 0.5 0.7 1.1 1 1.6 4.6 8 9.3 16 13.8 24 0.8 1.5 1.7 2 3.4 2 8.9-0.1 17.8-0.1 26.8-0.1q1.3 0 2.7 0c0 0.7 0.1 1.2 0.1 1.8-0.3 0.1-0.4 0.2-0.6 0.2q-8.6 0-17.3 0c-3.5 0-7.1 0-10.7 0-3.9 0.1-2.9-0.5-4.8 2.7-4.5 7.7-8.9 15.4-13.3 23.1q-0.5 0.8-1 1.7c-0.7-0.3-1.2-0.5-1.8-0.7q0-0.9 0-1.8zm18-26.2c-0.5-0.2-0.8-0.5-1.1-0.4-0.2 0-0.5 0.4-0.7 0.6 0.3 0.2 0.6 0.6 0.9 0.6 0.2 0.1 0.5-0.4 0.9-0.8z"/>
					<path id="&lt;Path&gt;" class="s0" d="m150.5-38.5q7.2 12.5 14.5 25.2c-0.6 0.4-1.2 0.7-1.9 1.2q-7.7-13.2-15.3-26.4 1.3 0 2.7 0z"/>
					<path id="&lt;Path&gt;" class="s0" d="m424.3-38.5q7.3 12.5 14.5 25.2c-0.6 0.4-1.2 0.7-1.9 1.2q-7.7-13.2-15.3-26.4 1.4 0 2.7 0z"/>
					<path id="&lt;Path&gt;" class="s0" d="m193.4-38.5c-5 8.7-10.1 17.5-15.2 26.3-0.7-0.4-1.3-0.7-2-1.1 4.9-8.5 9.7-16.9 14.6-25.2q1.3 0 2.6 0z"/>
					<path id="&lt;Path&gt;" class="s0" d="m287.4-38.5q7.2 12.5 14.5 25.2c-0.6 0.4-1.2 0.7-1.9 1.2q-7.7-13.2-15.3-26.4 1.4 0 2.7 0z"/>
					<path id="&lt;Path&gt;" class="s0" d="m330.4-38.5c-5.1 8.7-10.2 17.5-15.3 26.3-0.7-0.4-1.3-0.7-2-1.1 4.9-8.5 9.7-16.9 14.6-25.2q1.3 0 2.7 0z"/>
					<path id="&lt;Path&gt;" class="s0" d="m56.5-38.5c-5 8.7-10.1 17.5-15.2 26.3-0.7-0.4-1.3-0.7-2-1.1 4.9-8.5 9.7-16.9 14.5-25.2q1.4 0 2.7 0z"/>
					<path id="&lt;Path&gt;" class="s0" d="m13.6-38.5q7.2 12.5 14.5 25.2c-0.6 0.4-1.2 0.7-2 1.2q-7.6-13.2-15.2-26.4 1.3 0 2.7 0z"/>
					<path id="&lt;Path&gt;" class="s0" d="m561.2-38.5q7.3 12.5 14.5 25.2c-0.6 0.4-1.1 0.7-1.9 1.2q-7.6-13.2-15.3-26.4 1.4 0 2.7 0z"/>
					<path id="&lt;Path&gt;" class="s0" d="m467.3-38.5c-5.1 8.7-10.2 17.5-15.3 26.3-0.7-0.4-1.3-0.7-2-1.1 4.9-8.5 9.7-16.9 14.6-25.2q1.3 0 2.7 0z"/>
					<path id="&lt;Path&gt;" class="s0" d="m11.3 587.8c1.8-3 3.4-6.1 5.2-9.1 3.1-5.5 6.3-11 9.6-16.7 0.7 0.4 1.3 0.7 2 1.1q-0.6 1.1-1.2 2.1-5.9 10.2-11.8 20.5c-0.4 0.7-0.7 1.4-1.1 2.1q-1.3 0-2.7 0z"/>
					<path id="&lt;Path&gt;" class="s0" d="m53.4 587.8c-0.7-1.2-1.3-2.5-2-3.7-4-6.9-8-13.9-12.1-20.9 0.7-0.4 1.2-0.8 1.9-1.2q0.6 0.9 1.2 1.9 6.3 11 12.7 22c0.4 0.6 0.7 1.3 1 1.9q-1.4 0-2.7 0z"/>
					<path id="&lt;Path&gt;" class="s0" d="m148.3 587.8c1.6-2.9 3.3-5.9 5-8.9 3.2-5.6 6.4-11.2 9.7-16.9 0.7 0.4 1.3 0.7 2 1.1q-0.6 1.1-1.1 2.1-6 10.3-12 20.7c-0.3 0.6-0.6 1.3-1 1.9q-1.3 0-2.6 0z"/>
					<path id="&lt;Path&gt;" class="s0" d="m190.3 587.8c-0.4-0.8-0.8-1.7-1.3-2.5q-5.7-10-11.5-19.9c-0.4-0.7-0.8-1.4-1.2-2.2 0.6-0.4 1.2-0.8 1.9-1.2q0.5 0.9 1.1 1.9 6.4 11 12.7 22c0.4 0.6 0.7 1.3 1 1.9q-1.3 0-2.7 0z"/>
					<path id="&lt;Path&gt;" class="s0" d="m285.2 587.8c1.7-3 3.3-6.1 5.1-9.1 3.2-5.5 6.4-11 9.6-16.7 0.7 0.4 1.3 0.7 2 1.1q-0.6 1.1-1.1 2.1-5.9 10.2-11.8 20.5c-0.5 0.7-0.8 1.4-1.2 2.1q-1.3 0-2.6 0z"/>
					<path id="&lt;Path&gt;" class="s0" d="m327.2 587.8c-0.6-1.2-1.3-2.5-2-3.7-4-6.9-8-13.9-12.1-20.9 0.7-0.4 1.3-0.8 2-1.2q0.5 0.9 1.1 1.9 6.4 11 12.7 22c0.4 0.6 0.7 1.3 1 1.9q-1.3 0-2.7 0z"/>
					<path id="&lt;Path&gt;" class="s0" d="m422.1 587.8c1.6-2.9 3.3-5.9 5-8.9 3.2-5.6 6.4-11.2 9.7-16.9 0.7 0.4 1.3 0.7 2 1.1q-0.5 1.1-1.1 2.1-6 10.3-12 20.7c-0.3 0.6-0.6 1.3-0.9 1.9q-1.4 0-2.7 0z"/>
					<path id="&lt;Path&gt;" class="s0" d="m464.1 587.8c-0.4-0.8-0.8-1.7-1.3-2.5q-5.7-10-11.5-19.9c-0.4-0.7-0.8-1.4-1.2-2.2 0.6-0.4 1.2-0.8 1.9-1.2q0.6 0.9 1.1 1.9 6.4 11 12.7 22c0.4 0.6 0.7 1.3 1 1.9q-1.3 0-2.7 0z"/>
					<path id="&lt;Path&gt;" class="s0" d="m559 587.8c1.7-3 3.4-6.1 5.1-9.1 3.2-5.5 6.4-11 9.7-16.7 0.6 0.4 1.2 0.7 1.9 1.1q-0.5 1.1-1.1 2.1-5.9 10.2-11.8 20.5c-0.4 0.7-0.8 1.4-1.1 2.1q-1.4 0-2.7 0z"/>
					<path id="&lt;Path&gt;" class="s0" d="m597.5 186.5c-3.5-6-7-12-10.6-18.2 0.7-0.4 1.3-0.8 2-1.2 1.7 2.9 3.3 5.8 5 8.6 1.2 2 2.4 3.9 3.6 5.9q0 2.5 0 4.9z"/>
					<path id="&lt;Path&gt;" class="s0" d="m597.5 502.4c-3.5-6-7-12.1-10.6-18.2 0.7-0.4 1.3-0.8 2-1.2q2.5 4.3 5 8.6c1.2 2 2.4 3.9 3.6 5.9q0 2.4 0 4.9z"/>
					<path id="&lt;Path&gt;" class="s0" d="m597.5 28.6c-3.5-6.1-7-12.1-10.6-18.2 0.7-0.4 1.3-0.8 2-1.2q2.6 4.5 5.2 9c1.1 1.8 2.3 3.6 3.4 5.5q0 2.4 0 4.9z"/>
					<path id="&lt;Path&gt;" class="s0" d="m597.5 344.4c-3.5-6-7-12-10.6-18.2 0.7-0.4 1.3-0.7 2-1.2q2.6 4.6 5.2 9.1c1.1 1.8 2.3 3.6 3.4 5.4q0 2.5 0 4.9z"/>
					<path id="&lt;Path&gt;" class="s0" d="m597.5 289q-3.6 6.1-7.3 12.2-0.6 1.2-1.3 2.3c-0.7-0.4-1.2-0.7-2-1.1q5.3-9.2 10.6-18.4 0 2.5 0 5z"/>
					<path id="&lt;Path&gt;" class="s0" d="m597.5 131q-3.6 6.2-7.3 12.3-0.6 1.2-1.3 2.3c-0.7-0.4-1.2-0.7-2-1.2q5.3-9.1 10.6-18.3 0 2.5 0 4.9z"/>
					<path id="&lt;Path&gt;" class="s0" d="m597.5 446.9q-3.6 6.1-7.3 12.3-0.6 1.1-1.3 2.3c-0.7-0.4-1.2-0.8-2-1.2q5.3-9.1 10.6-18.3 0 2.4 0 4.9z"/>
					<path id="&lt;Path&gt;" class="s0" d="m597.5 423.2q-4-6.7-7.9-13.4-1.3-2.3-2.6-4.6c0.6-0.4 1.2-0.7 1.9-1.2q4.3 7.4 8.6 14.7 0 2.3 0 4.5z"/>
					<path id="&lt;Path&gt;" class="s0" d="m597.5 107.3q-4-6.7-7.9-13.4-1.3-2.3-2.6-4.6c0.6-0.4 1.2-0.7 1.9-1.2q4.3 7.4 8.6 14.7 0 2.3 0 4.5z"/>
					<path id="&lt;Path&gt;" class="s0" d="m597.5 265.3q-4-6.7-7.9-13.4-1.3-2.3-2.6-4.6c0.6-0.4 1.2-0.8 1.9-1.2q4.3 7.3 8.6 14.7 0 2.2 0 4.5z"/>
					<path id="&lt;Path&gt;" class="s0" d="m597.5 581.1q-4-6.7-7.9-13.3-1.3-2.3-2.6-4.7c0.6-0.4 1.2-0.7 1.9-1.1q4.3 7.3 8.6 14.7 0 2.2 0 4.4z"/>
					<path id="&lt;Path&gt;" class="s0" d="m597.5 367.7c-2.9 4.9-5.7 9.8-8.6 14.8-0.6-0.4-1.2-0.8-2-1.2q5.3-9.1 10.6-18.1 0 2.3 0 4.5z"/>
					<path id="&lt;Path&gt;" class="s0" d="m597.5 51.8c-2.9 4.9-5.7 9.8-8.6 14.8-0.6-0.4-1.2-0.8-2-1.2q5.3-9 10.6-18 0 2.2 0 4.4z"/>
					<path id="&lt;Path&gt;" class="s0" d="m597.5-26.9c-2.9 4.9-5.7 9.7-8.6 14.7-0.6-0.4-1.2-0.7-2-1.2q5.3-9 10.6-18 0 2.3 0 4.5z"/>
					<path id="&lt;Path&gt;" class="s0" d="m597.5 209.8c-2.9 4.9-5.7 9.7-8.6 14.7-0.6-0.4-1.2-0.7-2-1.2q5.3-9 10.6-18 0 2.2 0 4.5z"/>
					<path id="&lt;Path&gt;" class="s0" d="m597.5 525.7c-2.9 4.8-5.7 9.7-8.6 14.7-0.6-0.4-1.2-0.8-2-1.2q5.3-9 10.6-18 0 2.2 0 4.5z"/>
					<path id="&lt;Path&gt;" class="s0" d="m597.5 157.4q-1.5 0-3 0c0-0.7 0-1.4 0-2.2q1.5 0 3 0 0 1.1 0 2.2z"/>
					<path id="&lt;Path&gt;" class="s0" d="m597.5 473.3q-1.5 0-3 0c0-0.8 0-1.4 0-2.2q1.5 0 3 0 0 1.1 0 2.2z"/>
					<path id="&lt;Path&gt;" class="s0" d="m597.5 315.4q-1.5 0-3 0c0-0.8 0-1.4 0-2.3q1.5 0 3 0 0 1.1 0 2.3z"/>
					<path id="&lt;Path&gt;" class="s0" d="m597.5 236.6q-1.4-0.1-3-0.3c0-0.6 0-1.3 0-2.1 1.1 0.1 2 0.1 3 0.2q0 1.1 0 2.2z"/>
					<path id="&lt;Path&gt;" class="s0" d="m597.5 78.7c-1-0.1-1.9-0.2-3-0.3 0-0.7 0-1.3 0-2.2 1.1 0.1 2 0.2 3 0.2q0 1.2 0 2.3z"/>
					<path id="&lt;Path&gt;" class="s0" d="m597.5 552.5q-1.4-0.1-3-0.3c0-0.7 0-1.3 0-2.1 1.1 0 2 0.1 3 0.2q0 1.1 0 2.2z"/>
					<path id="&lt;Path&gt;" class="s0" d="m597.5 394.6c-1-0.1-1.9-0.2-3-0.3 0-0.7 0-1.3 0-2.2 1.1 0.1 2 0.2 3 0.2q0 1.1 0 2.3z"/>
					<path id="&lt;Path&gt;" class="s0" d="m597.5-0.5q-1.5 0-2.9 0c0-0.7 0-1.2 0-2 1 0.1 1.9 0.1 2.9 0.2q0 0.9 0 1.8z"/>
					<path id="&lt;Compound Path&gt;" fill-rule="evenodd" class="s0" d="m165 65.4c-0.7 0.5-1.3 0.8-1.9 1.2-0.7-1.1-1.3-2.1-1.9-3.1-4.2-7.4-8.5-14.7-12.7-22.1-0.9-1.7-1.9-2.4-4-2.4-8.8 0.1-17.7 0.1-26.6 0.1-0.8 0-1.6 0-2.5 0 0-0.9 0-1.5 0-2.2 0.2-0.1 0.5-0.2 0.8-0.2 9.2 0 18.5 0 27.7 0 4 0 2.9 0.6 4.8-2.7 4.4-7.6 8.7-15.1 13.1-22.7q0.6-1 1.3-2.1c0.6 0.4 1.2 0.7 2 1.1-5.3 9.1-10.6 18.3-15.9 27.6 5.2 9.1 10.5 18.3 15.8 27.5zm-17.3-28.6c-0.3 0.5-0.7 0.9-0.7 1.1 0.1 0.4 0.6 0.6 0.9 0.9 0.2-0.4 0.7-0.6 0.7-1 0-0.2-0.5-0.5-0.9-1z"/>
					<path id="&lt;Compound Path&gt;" fill-rule="evenodd" class="s0" d="m438.8 65.4c-0.6 0.4-1.1 0.7-1.8 1.2-0.4-0.6-0.8-1.1-1.1-1.6-4.6-8-9.2-16-13.8-24-0.8-1.5-1.7-2-3.3-2-9 0.1-17.9 0.1-26.9 0.1-0.8 0-1.7 0-2.7 0 0-0.9 0-1.5 0-2.4q1.2 0 2.4 0c9.1 0 18.2 0 27.3 0.1 1.5 0 2.4-0.5 3.1-1.9 4.4-7.7 8.9-15.5 13.4-23.2q0.7-1.3 1.5-2.5c0.6 0.4 1.2 0.7 2 1.1-5.3 9.2-10.6 18.3-15.9 27.6q7.9 13.7 15.8 27.5zm-16.1-27.6c-0.5-0.3-0.8-0.7-1.1-0.7-0.3 0.1-0.8 0.6-0.8 0.8 0.1 0.3 0.6 0.8 0.9 0.8 0.3 0 0.6-0.5 1-0.9z"/>
					<path id="&lt;Compound Path&gt;" fill-rule="evenodd" class="s0" d="m320.7 473.3c0-0.8 0-1.4 0-2.2 10.6 0 21.1 0 31.8 0 5.3-9.2 10.6-18.3 15.9-27.5 0.7 0.3 1.3 0.7 2 1.1-5.3 9.2-10.6 18.3-15.9 27.5 5.3 9.2 10.6 18.3 15.9 27.5-0.7 0.4-1.3 0.8-1.9 1.2q-0.7-1-1.3-2.1c-4.6-7.9-9.1-15.7-13.6-23.6-0.8-1.5-1.7-1.9-3.4-1.9-9 0.1-18 0-27 0q-1.2 0-2.5 0zm32.6-2.1c-0.4 0.4-0.8 0.7-0.9 1-0.1 0.2 0.4 0.7 0.6 0.7 0.3 0 0.8-0.3 0.9-0.6 0.1-0.2-0.3-0.6-0.6-1.1z"/>
					<path id="&lt;Compound Path&gt;" fill-rule="evenodd" class="s0" d="m225.8 354.9q-1.3 0-2.7 0c-8.9 0-17.8 0.1-26.8 0-1.6 0-2.5 0.5-3.3 1.9-4.5 8-9.2 15.9-13.7 23.8-0.4 0.6-0.7 1.2-1.1 1.8-0.7-0.4-1.3-0.7-2-1.1 5.3-9.2 10.5-18.3 15.9-27.5-5.3-9.1-10.5-18.3-15.9-27.6 0.7-0.4 1.3-0.7 2-1.2 5.3 9.2 10.6 18.3 15.9 27.5 10.6 0 21.1 0 31.7 0 0 0.8 0 1.5 0 2.4zm-32.3-2.2c-0.4 0.4-0.9 0.7-0.9 1 0.1 0.3 0.5 0.6 0.8 0.9 0.3-0.2 0.8-0.5 0.8-0.8 0.1-0.3-0.4-0.6-0.7-1.1z"/>
					<path id="&lt;Compound Path&gt;" fill-rule="evenodd" class="s0" d="m452 382.5c-0.7-0.5-1.3-0.8-1.9-1.2q7.9-13.8 15.8-27.5c-5.3-9.2-10.5-18.3-15.9-27.6 0.7-0.4 1.3-0.7 2-1.2 5.3 9.2 10.6 18.3 15.9 27.6 10.6 0 21.2 0 31.8 0 0 0.8 0 1.4 0 2.3q-1.4 0-2.7 0c-8.7 0-17.4 0.1-26.2 0-2.1-0.1-3.3 0.6-4.3 2.5-4.4 7.8-8.9 15.5-13.4 23.2-0.3 0.6-0.7 1.1-1.1 1.9zm16.4-28.7c-0.5-0.4-0.8-0.8-1.1-0.8-0.3 0-0.6 0.5-0.9 0.7 0.3 0.3 0.5 0.8 0.8 0.9 0.3 0 0.7-0.4 1.2-0.8z"/>
					<path id="&lt;Compound Path&gt;" fill-rule="evenodd" class="s0" d="m46.9 473.3c0-0.7 0-1.4 0-2.2 10.6 0 21.2 0 31.8 0 5.3-9.3 10.6-18.4 15.9-27.6 0.7 0.4 1.2 0.8 2 1.2-5.3 9.1-10.6 18.3-15.9 27.5q8 13.8 15.9 27.5c-0.7 0.4-1.3 0.8-1.9 1.2q-0.7-1-1.3-2c-4.5-7.9-9.1-15.8-13.6-23.7-0.8-1.4-1.7-1.9-3.3-1.9-9 0.1-18 0-27.1 0-0.8 0-1.6 0-2.5 0zm32.4 0c0.4-0.5 0.6-0.8 0.9-1.1-0.3-0.2-0.6-0.6-0.9-0.7-0.2 0-0.7 0.4-0.7 0.6 0 0.4 0.4 0.7 0.7 1.2z"/>
					<path id="&lt;Compound Path&gt;" fill-rule="evenodd" class="s0" d="m41.2 382.4c-0.6-0.3-1.1-0.7-1.9-1.1 5.3-9.1 10.6-18.3 15.9-27.5-5.3-9.2-10.6-18.4-15.9-27.6 0.7-0.4 1.2-0.7 1.8-1.1 0.2 0.2 0.4 0.3 0.5 0.6q6.8 11.7 13.6 23.4c0.4 0.7 0.9 1.4 1.2 2.1 0.5 1 1.1 1.5 2.3 1.4 0.5-0.1 1 0 1.5 0q13.1 0 26.2 0c0.8 0 1.6 0 2.5 0 0 0.7 0 1.4 0 2.1-0.2 0.1-0.5 0.2-0.7 0.2q-5.7 0-11.4 0c-5.8 0-11.5 0.1-17.2 0-1.7 0-2.7 0.4-3.6 2-4.5 8-9.1 15.9-13.7 23.8-0.3 0.6-0.7 1.1-1.1 1.7zm16.5-28.7c-0.6-0.3-0.9-0.7-1.2-0.7-0.3 0-0.5 0.5-0.8 0.8 0.3 0.3 0.6 0.8 0.9 0.8 0.3 0 0.6-0.5 1.1-0.9z"/>
					<path id="&lt;Compound Path&gt;" fill-rule="evenodd" class="s0" d="m10.2 352.6c5.4-9.2 10.6-18.3 15.9-27.5 0.7 0.3 1.3 0.7 2.1 1.1-5.4 9.2-10.6 18.3-16 27.6q8 13.8 15.9 27.5c-0.7 0.4-1.2 0.7-1.9 1.2q-0.6-1-1.2-1.9c-4.4-7.8-8.9-15.5-13.3-23.3-1-1.7-2.1-2.5-4.2-2.4-8.8 0.1-17.6 0-26.4 0-0.8 0-1.6 0-2.6 0 0-0.8 0-1.5-0.1-2.3 10.6 0 21.1 0 31.8 0zm0.7 2.3c0.4-0.5 0.8-0.9 0.8-1.2 0-0.3-0.6-0.7-0.9-0.7-0.2 0-0.7 0.5-0.7 0.8 0 0.3 0.5 0.6 0.8 1.1z"/>
					<path id="&lt;Compound Path&gt;" fill-rule="evenodd" class="s0" d="m457.7 473.3c0-0.8 0-1.4 0-2.2 0.8 0 1.7 0 2.5 0 9.1 0 18.2 0 27.3 0 1.4 0.1 2.2-0.4 2.9-1.7 4.5-7.9 9.1-15.8 13.6-23.6 0.4-0.7 0.9-1.4 1.3-2.2 0.7 0.3 1.3 0.7 2 1.1-5.3 9.2-10.6 18.3-15.9 27.5 5.3 9.2 10.6 18.3 15.9 27.5-0.7 0.4-1.3 0.8-1.9 1.2q-0.7-1-1.3-2.1c-4.5-7.8-9.1-15.6-13.5-23.4-0.9-1.6-1.9-2.1-3.7-2.1-8.9 0.1-17.9 0-26.8 0q-1.2 0-2.4 0zm33.5-1c-0.5-0.4-0.8-0.7-1.1-0.8-0.2 0-0.8 0.4-0.8 0.5 0.1 0.4 0.4 0.9 0.6 0.9 0.3 0.1 0.7-0.3 1.3-0.6z"/>
					<path id="&lt;Compound Path&gt;" fill-rule="evenodd" class="s0" d="m431.2 471.1c0 0.8 0 1.5 0 2.2-0.8 0-1.7 0-2.5 0-9 0-18 0.1-27 0-1.7 0-2.6 0.5-3.4 1.9-4.4 7.9-8.9 15.7-13.4 23.5-0.5 0.7-0.9 1.4-1.3 2.2-0.7-0.4-1.3-0.8-2-1.2q7.9-13.7 15.8-27.5c-5.3-9.2-10.5-18.3-15.8-27.4 0.6-0.5 1.2-0.8 1.9-1.3 5.3 9.2 10.6 18.3 16 27.6 10.6 0 21.1 0 31.7 0zm-32.7 2.3q0.3-0.2 0.5-0.3c0.2-0.4 0.5-0.7 0.6-1 0-0.2-0.6-0.7-0.8-0.6-0.3 0.1-0.7 0.5-0.8 0.8 0 0.3 0.3 0.7 0.5 1.1z"/>
					<path id="&lt;Compound Path&gt;" fill-rule="evenodd" class="s0" d="m262.6 471.1c10.5 0 21.1 0 31.7 0 0 0.8 0 1.4 0 2.2-0.8 0-1.7 0-2.5 0-9 0-18 0.1-27 0-1.7 0-2.6 0.5-3.4 1.9-4.4 7.9-8.9 15.6-13.4 23.5-0.5 0.7-0.9 1.4-1.4 2.2-0.6-0.4-1.2-0.7-1.9-1.2q7.9-13.7 15.8-27.5c-5.3-9.1-10.5-18.2-15.8-27.4 0.6-0.5 1.2-0.8 1.9-1.3 5.3 9.2 10.6 18.3 16 27.6zm-0.6 0.1c-0.4 0.4-0.7 0.7-0.9 1 0.2 0.3 0.5 0.6 0.8 0.7 0.2 0.1 0.8-0.4 0.8-0.6-0.1-0.3-0.4-0.6-0.7-1.1z"/>
					<path id="&lt;Compound Path&gt;" fill-rule="evenodd" class="s0" d="m233.5 499.7c-0.7 0.5-1.3 0.8-1.9 1.2q-0.7-1-1.3-2.1c-4.5-7.8-9.1-15.7-13.6-23.6-0.8-1.4-1.7-1.9-3.3-1.9-9 0.1-18.1 0-27.1 0-0.8 0-1.6 0-2.5 0 0-0.8 0-1.4 0-2.2 10.6 0 21.1 0 31.8 0 5.3-9.1 10.5-18.3 15.9-27.5 0.6 0.3 1.2 0.7 2 1.1-5.3 9.2-10.6 18.3-15.9 27.5q8 13.8 15.9 27.5zm-16.1-27.5c-0.6-0.4-0.9-0.7-1.2-0.7-0.3 0-0.5 0.4-0.8 0.6 0.3 0.3 0.6 0.8 0.9 0.8 0.2 0 0.6-0.4 1.1-0.7z"/>
					<path id="&lt;Compound Path&gt;" fill-rule="evenodd" class="s0" d="m125.7 471.1c10.6 0 21.1 0 31.7 0 0 0.8 0 1.5 0 2.2-0.9 0-1.7 0-2.5 0-9 0-18 0.1-27.1 0-1.6 0-2.5 0.5-3.3 1.9-4.4 7.9-9 15.7-13.5 23.5-0.4 0.7-0.8 1.4-1.3 2.2-0.6-0.4-1.2-0.8-1.9-1.2q7.9-13.7 15.8-27.5c-5.3-9.2-10.5-18.3-15.8-27.5 0.6-0.4 1.2-0.7 1.9-1.2 5.3 9.2 10.6 18.3 16 27.6zm0.4 1c-0.6-0.3-0.9-0.6-1.2-0.6-0.3 0-0.5 0.4-0.7 0.7 0.2 0.2 0.5 0.7 0.8 0.7 0.3 0 0.6-0.4 1.1-0.8z"/>
					<path id="&lt;Compound Path&gt;" fill-rule="evenodd" class="s0" d="m534.3 314.3c-5.3-9.3-10.6-18.4-15.8-27.5 0.7-0.4 1.2-0.8 1.9-1.2 5.3 9.1 10.6 18.2 16 27.5 10.5 0 21.1 0 31.7 0 0 0.8 0 1.4 0 2.3q-1.2 0-2.4 0c-8.6 0-17.3 0-25.9 0-4.1 0-3.1-0.6-5 2.8-4.4 7.5-8.7 15.1-13.1 22.7q-0.6 1-1.3 2c-0.6-0.3-1.2-0.7-1.9-1.1 5.3-9.1 10.5-18.3 15.8-27.5zm1.4-1.1c-0.4 0.5-0.6 0.8-0.8 1.1 0.3 0.3 0.6 0.6 0.9 0.7 0.2 0 0.7-0.5 0.7-0.7-0.1-0.3-0.4-0.6-0.8-1.1z"/>
					<path id="&lt;Compound Path&gt;" fill-rule="evenodd" class="s0" d="m505.3 285.6c0.7 0.4 1.2 0.7 2 1.1-5.2 9.2-10.5 18.3-15.9 27.6q7.9 13.7 15.9 27.5c-0.7 0.4-1.2 0.7-1.9 1.2-0.4-0.7-0.8-1.3-1.2-2-4.6-8-9.2-15.9-13.7-23.9-0.8-1.3-1.7-1.8-3.2-1.8-9 0.1-18.1 0.1-27.1 0.1-0.8 0-1.6 0-2.5 0 0-0.7 0-1.4 0-2.2q1.1 0 2.3 0c9.1 0 18.2-0.1 27.3 0 1.6 0 2.4-0.5 3.2-1.8 4.5-7.9 9-15.8 13.6-23.7q0.6-1 1.2-2.1zm-14.1 28.8c-0.5-0.4-0.8-0.8-1.1-0.8-0.3 0-0.6 0.4-0.9 0.7 0.3 0.3 0.5 0.7 0.7 0.7 0.4 0 0.7-0.3 1.3-0.6z"/>
					<path id="&lt;Compound Path&gt;" fill-rule="evenodd" class="s0" d="m383.5 343c-0.6-0.4-1.2-0.8-1.9-1.2q7.9-13.7 15.8-27.5-7.9-13.8-15.8-27.5c0.7-0.5 1.2-0.8 1.9-1.2 5.3 9.1 10.6 18.3 16 27.5 10.5 0 21.1 0 31.7 0 0 0.8 0 1.5 0 2.3q-1.2 0-2.4 0c-9 0-18.1 0-27.1-0.1-1.6 0-2.5 0.5-3.3 1.9-4.5 8-9.1 15.8-13.6 23.7q-0.6 1-1.3 2.1zm16.4-28.8c-0.5-0.3-0.9-0.6-1.2-0.6-0.3 0-0.5 0.4-0.7 0.6 0.2 0.3 0.5 0.8 0.8 0.8 0.3 0 0.6-0.4 1.1-0.8z"/>
					<path id="&lt;Compound Path&gt;" fill-rule="evenodd" class="s0" d="m354.5 314.3q8 13.8 15.9 27.5c-0.7 0.4-1.3 0.8-1.9 1.2-0.4-0.7-0.9-1.4-1.3-2.1-4.5-7.9-9.1-15.7-13.6-23.6-0.8-1.5-1.7-2-3.3-2-9 0.1-18.1 0.1-27.1 0.1q-1.2 0-2.5 0c0-0.8 0-1.4 0-2.2 10.6 0 21.1 0 31.8 0 5.3-9.2 10.6-18.3 15.9-27.6 0.6 0.4 1.2 0.7 2 1.2-5.3 9.1-10.5 18.3-15.9 27.5zm-1.3-1.1c-0.4 0.5-0.8 0.8-0.8 1.1 0 0.2 0.5 0.7 0.7 0.7 0.3-0.1 0.6-0.4 0.9-0.7-0.2-0.3-0.5-0.6-0.8-1.1z"/>
					<path id="&lt;Compound Path&gt;" fill-rule="evenodd" class="s0" d="m294.4 313.1c0 0.9 0 1.4 0 2.1-0.3 0.1-0.6 0.2-0.9 0.2q-9.7 0-19.4 0c-3.1 0-6.3 0.1-9.4-0.1-1.5 0-2.4 0.5-3.2 1.8-4.5 8.1-9.2 16.1-13.8 24.1-0.3 0.5-0.7 1.1-1.1 1.7-0.6-0.3-1.2-0.7-1.9-1.1 5.3-9.2 10.5-18.3 15.8-27.5-5.2-9.1-10.5-18.3-15.8-27.5 0.7-0.4 1.2-0.8 1.9-1.2 5.4 9.2 10.6 18.3 16 27.5 10.6 0 21.1 0 31.8 0zm-32.6 2.2c0.4-0.4 0.8-0.7 0.9-1 0-0.2-0.4-0.8-0.6-0.7-0.4 0-0.9 0.3-1 0.6 0 0.2 0.4 0.6 0.7 1.1z"/>
					<path id="&lt;Compound Path&gt;" fill-rule="evenodd" class="s0" d="m233.5 341.8c-0.8 0.5-1.3 0.8-2 1.2q-3.9-6.8-7.7-13.4c-2.4-4.2-4.9-8.4-7.3-12.6-0.6-1.2-1.4-1.7-2.8-1.6-9.1 0-18.2 0-27.3 0-0.8 0-1.6 0-2.5 0 0-0.7 0-1.4 0-2.1 0.2 0 0.5-0.1 0.7-0.1 9.2 0 18.4 0 27.5 0 4.3-0.1 3.1 0.6 5.2-3 4.3-7.4 8.6-14.9 12.9-22.4q0.7-1.1 1.3-2.2c0.7 0.4 1.2 0.7 2 1.1-5.2 9.2-10.5 18.3-15.9 27.6 5.3 9.1 10.6 18.3 15.9 27.5zm-16.2-27.2c-0.3-0.5-0.5-0.9-0.7-1-0.3 0-0.7 0.2-1.1 0.4 0.2 0.3 0.3 0.8 0.5 0.9 0.3 0.2 0.7-0.1 1.3-0.3z"/>
					<path id="&lt;Compound Path&gt;" fill-rule="evenodd" class="s0" d="m109.7 343c-0.7-0.4-1.2-0.8-1.9-1.2q7.9-13.7 15.8-27.5-7.9-13.8-15.8-27.5c0.7-0.5 1.2-0.8 1.9-1.2 5.3 9.1 10.6 18.3 15.9 27.5 10.6 0 21.2 0 31.8 0 0 0.8 0 1.5 0 2.3q-1.2 0-2.4 0c-9.1 0-18.1 0-27.1-0.1-1.6 0-2.5 0.5-3.3 1.9-4.5 8-9.1 15.8-13.6 23.7q-0.7 1-1.3 2.1zm15.4-29.8c-0.4 0.5-0.7 0.8-1 1.1 0.3 0.2 0.6 0.6 0.9 0.7 0.2 0 0.8-0.4 0.7-0.6 0-0.3-0.3-0.6-0.6-1.2z"/>
					<path id="&lt;Compound Path&gt;" fill-rule="evenodd" class="s0" d="m94.6 285.6c0.7 0.4 1.3 0.7 2 1.2q-7.9 13.7-15.9 27.5 8 13.8 15.9 27.5c-0.7 0.4-1.3 0.8-1.9 1.2-0.5-0.7-0.9-1.4-1.3-2.1-4.6-7.9-9.1-15.7-13.6-23.6-0.8-1.5-1.7-2-3.3-2-9.1 0.1-18.1 0.1-27.1 0.1q-1.2 0-2.5 0c0-0.8 0-1.4 0-2.2 10.6 0 21.1 0 31.8 0 5.3-9.2 10.5-18.3 15.9-27.6zm-15.4 27.6c-0.3 0.6-0.6 0.9-0.6 1.2 0 0.2 0.5 0.6 0.7 0.6 0.3-0.1 0.6-0.5 0.9-0.7-0.3-0.3-0.5-0.6-1-1.1z"/>
					<path id="&lt;Compound Path&gt;" fill-rule="evenodd" class="s0" d="m46.9 157.4c0-0.7 0-1.3 0-2.1 0.3 0 0.5-0.1 0.8-0.1q11.6 0 23.3 0c1.7 0 3.4-0.1 5.1 0.1 1.9 0.1 2.9-0.5 3.9-2.2 4.3-7.8 8.9-15.5 13.3-23.2 0.4-0.7 0.9-1.4 1.3-2.2 0.7 0.4 1.3 0.7 2 1.1-5.3 9.2-10.5 18.3-15.9 27.5q7.9 13.7 15.9 27.5c-0.7 0.4-1.3 0.8-2 1.2q-1.3-2.2-2.6-4.4c-4-7.1-8.1-14.1-12.1-21.1-0.9-1.5-1.7-2.1-3.5-2.1-9 0.1-17.9 0-26.8 0-0.9 0.1-1.7 0-2.7 0zm32.5-2.1c-0.4 0.5-0.7 0.7-0.8 1-0.1 0.2 0.4 0.8 0.6 0.8 0.3-0.1 0.8-0.4 0.9-0.7 0.1-0.2-0.3-0.6-0.7-1.1z"/>
					<path id="&lt;Compound Path&gt;" fill-rule="evenodd" class="s0" d="m389.2 512.9c0-0.9 0-1.5 0-2.3 0.2 0 0.5-0.1 0.8-0.1q13.2 0 26.4 0c1.5 0 3.3 0.3 4.5-0.4 1.2-0.6 1.7-2.4 2.4-3.6q6.2-10.8 12.4-21.5c0.4-0.7 0.8-1.3 1.2-2 0.6 0.4 1.2 0.7 2 1.1-5.3 9.1-10.6 18.3-15.9 27.6q7.8 13.6 15.8 27.5c-0.6 0.4-1.2 0.8-1.9 1.2-0.6-1.1-1.3-2.1-1.8-3.1-4.4-7.5-8.7-15-13-22.5-0.8-1.5-1.8-2-3.5-2-8.9 0.1-17.7 0.1-26.6 0.1-0.9 0-1.8 0-2.8 0zm33.6-1.1c-0.5-0.4-0.8-0.9-1.1-0.9-0.3 0-0.6 0.5-0.9 0.8 0.2 0.3 0.5 0.8 0.8 0.8 0.3 0 0.6-0.4 1.2-0.7z"/>
					<path id="&lt;Compound Path&gt;" fill-rule="evenodd" class="s0" d="m125.7 155.2c10.7 0 21.2 0 31.7 0 0 0.8 0 1.4 0 2.2q-1.3 0-2.5 0c-9 0-18 0.1-27 0-1.6 0-2.5 0.5-3.4 1.9-4.4 7.9-8.9 15.7-13.4 23.5-0.5 0.7-0.9 1.4-1.4 2.2-0.6-0.4-1.2-0.7-1.9-1.1q7.9-13.8 15.8-27.6c-5.3-9.1-10.5-18.2-15.8-27.4 0.6-0.4 1.2-0.8 1.9-1.3 5.3 9.2 10.6 18.3 16 27.6zm-0.8 2.2c0.4-0.5 0.8-0.7 0.9-1.1 0-0.2-0.5-0.7-0.6-0.7-0.4 0.1-0.9 0.4-1 0.7 0 0.2 0.4 0.6 0.7 1.1z"/>
					<path id="&lt;Compound Path&gt;" fill-rule="evenodd" class="s0" d="m217.6 156.3q8 13.8 15.9 27.5c-0.7 0.5-1.3 0.8-1.9 1.2q-0.7-1-1.3-2c-4.6-8-9.2-15.9-13.7-23.9-0.7-1.2-1.5-1.7-3-1.7-9.1 0.1-18.2 0-27.3 0-0.8 0-1.6 0-2.5 0 0-0.7 0-1.4 0-2.2 10.6 0 21.2 0 31.8 0 5.3-9.3 10.6-18.4 15.9-27.5 0.7 0.4 1.3 0.7 2 1.1-5.3 9.2-10.6 18.3-15.9 27.5zm-1.4 1.1c0.4-0.5 0.7-0.8 0.9-1.1-0.3-0.2-0.6-0.6-0.9-0.7-0.2 0-0.7 0.4-0.7 0.6 0 0.4 0.4 0.7 0.7 1.2z"/>
					<path id="&lt;Compound Path&gt;" fill-rule="evenodd" class="s0" d="m260.5 156.3c-5.3-9.1-10.5-18.2-15.8-27.4 0.6-0.4 1.2-0.8 1.9-1.3 5.3 9.2 10.6 18.4 16 27.6 10.6 0 21.1 0 31.7 0 0 0.9 0 1.5 0 2.2-0.9 0-1.7 0-2.5 0-8.9 0-17.9 0.1-26.8 0-1.9 0-2.8 0.6-3.7 2.2-4.4 7.8-9 15.6-13.5 23.4-0.3 0.6-0.7 1.3-1.2 2-0.6-0.4-1.2-0.7-1.9-1.2q7.9-13.7 15.8-27.5zm0.3-0.1c0.5 0.4 0.7 0.8 1.1 0.9 0.2 0 0.8-0.4 0.7-0.6 0-0.3-0.3-0.8-0.6-0.9-0.3 0-0.7 0.3-1.2 0.6z"/>
					<path id="&lt;Compound Path&gt;" fill-rule="evenodd" class="s0" d="m354.5 156.3c5.4 9.3 10.6 18.4 15.9 27.5-0.7 0.4-1.2 0.8-1.9 1.2-0.1-0.3-0.4-0.5-0.6-0.8q-6.9-12-13.8-24c-0.3-0.4-0.6-0.9-0.8-1.4-0.5-1.1-1.3-1.4-2.5-1.4-5 0.1-10.1 0-15.2 0-4.9 0-9.8 0-14.8 0 0-0.7 0-1.3 0-2.1 0.3 0 0.6-0.1 1-0.1q13.5 0 27 0c0.6 0 1.2 0 1.8 0 1.4 0.2 2.2-0.4 2.8-1.6 3.4-5.9 6.9-11.8 10.3-17.8q2.3-4 4.7-8.1c0.7 0.3 1.2 0.7 2 1.1-5.2 9.1-10.5 18.3-15.9 27.5zm-1.4 1.1c0.4-0.5 0.7-0.8 0.9-1.1-0.3-0.2-0.6-0.6-0.9-0.7-0.2 0-0.7 0.4-0.7 0.6 0 0.4 0.4 0.7 0.7 1.2z"/>
					<path id="&lt;Compound Path&gt;" fill-rule="evenodd" class="s0" d="m381.6 128.8c0.7-0.4 1.2-0.7 1.9-1.2 5.3 9.2 10.6 18.3 16 27.6 10.5 0 21.1 0 31.7 0 0 0.8 0 1.4 0 2.2q-1.2 0-2.4 0c-8.9 0-17.9 0.1-26.8 0-1.9 0-2.9 0.6-3.8 2.3-4.4 7.8-8.9 15.5-13.4 23.2q-0.6 1.1-1.3 2.1c-0.6-0.4-1.2-0.7-1.9-1.1 5.2-9.2 10.5-18.3 15.8-27.6q-7.9-13.7-15.8-27.5zm18.3 27.5c-0.5-0.3-0.9-0.7-1.2-0.7-0.3 0-0.5 0.5-0.7 0.7 0.2 0.3 0.5 0.7 0.8 0.7 0.3 0.1 0.6-0.4 1.1-0.7z"/>
					<path id="&lt;Compound Path&gt;" fill-rule="evenodd" class="s0" d="m489.4 155.2c5.4-9.2 10.7-18.4 15.9-27.5 0.7 0.4 1.3 0.7 2 1.1-5.3 9.2-10.5 18.3-15.9 27.5q8 13.8 15.9 27.5c-0.7 0.5-1.2 0.8-1.9 1.2q-0.6-1-1.3-2c-4.5-7.9-9.1-15.7-13.6-23.7-0.8-1.4-1.6-1.9-3.3-1.9-9 0.1-18 0-27 0-0.9 0-1.7 0-2.6 0 0-0.7 0-1.4 0-2.2 10.7 0 21.2 0 31.8 0zm0.7 2.2c0.4-0.5 0.8-0.9 0.7-1.1 0-0.3-0.5-0.6-0.9-0.7-0.1 0-0.6 0.5-0.6 0.7 0.1 0.3 0.4 0.6 0.8 1.1z"/>
					<path id="&lt;Compound Path&gt;" fill-rule="evenodd" class="s0" d="m568.2 155.2c0 0.8 0 1.5 0 2.2-0.9 0-1.8 0-2.6 0-9 0-18 0.1-27 0-1.7 0-2.5 0.5-3.3 1.9-4.5 7.9-9 15.7-13.5 23.5-0.4 0.7-0.9 1.4-1.3 2.2-0.7-0.4-1.3-0.7-2-1.2q7.9-13.7 15.8-27.5c-5.3-9.1-10.5-18.2-15.8-27.4 0.7-0.4 1.2-0.8 1.9-1.3 5.3 9.2 10.6 18.4 16 27.6 10.6 0 21.1 0 31.8 0zm-31.4 1.1c-0.5-0.3-0.9-0.7-1.2-0.7-0.2 0-0.5 0.5-0.7 0.7 0.3 0.3 0.5 0.7 0.8 0.7 0.3 0.1 0.6-0.4 1.1-0.7z"/>
					<path id="&lt;Compound Path&gt;" fill-rule="evenodd" class="s0" d="m28.1 223.3c-0.7 0.4-1.2 0.8-1.9 1.2-0.3-0.5-0.7-1.1-1-1.6-4.6-8-9.2-15.9-13.7-23.9-0.9-1.6-2-2.1-3.7-2-8.9 0-17.8 0-26.6 0q-1.4 0-2.7 0c0-0.9 0-1.5 0-2.4 10.6 0 21.1 0 31.7 0 5.4-9.2 10.6-18.3 15.9-27.4 0.7 0.3 1.3 0.6 2.1 1-5.3 9.2-10.6 18.4-16 27.6q8 13.8 15.9 27.5zm-17.1-28.6c-0.4 0.5-0.9 0.8-0.9 1.1 0 0.3 0.5 0.6 0.7 0.9 0.3-0.3 0.8-0.5 0.9-0.8 0-0.3-0.4-0.7-0.7-1.2z"/>
					<path id="&lt;Compound Path&gt;" fill-rule="evenodd" class="s0" d="m575.7 539.2c-0.7 0.4-1.2 0.8-1.9 1.2q-0.6-0.9-1.1-1.9c-4.6-7.9-9.2-15.7-13.6-23.6-0.9-1.5-1.8-2.1-3.5-2.1-8.9 0.1-17.8 0.1-26.6 0.1-0.9 0-1.8 0-2.8 0 0-0.9 0-1.5 0-2.4 10.5 0 21 0 31.7 0 5.2-9.1 10.5-18.3 15.9-27.5 0.6 0.4 1.2 0.7 2 1.1-5.3 9.2-10.6 18.4-15.9 27.6 5.3 9.2 10.6 18.4 15.8 27.5zm-16-27.4c-0.5-0.4-0.8-0.9-1.1-0.9-0.3 0-0.6 0.5-0.9 0.8 0.2 0.3 0.5 0.8 0.8 0.8 0.3 0 0.6-0.4 1.2-0.7z"/>
					<path id="&lt;Compound Path&gt;" fill-rule="evenodd" class="s0" d="m12.2 37.9c5.4 9.3 10.6 18.4 15.9 27.5-0.6 0.4-1.2 0.7-1.9 1.2-0.3-0.6-0.7-1.1-1-1.6-4.6-8-9.3-16-13.8-24.1-0.8-1.4-1.8-1.9-3.4-1.9-8.9 0.1-17.9 0.1-26.8 0.1-0.9 0-1.8 0-2.7 0 0-0.9 0-1.5 0-2.4q1.2 0 2.4 0c9.1 0 18.2 0 27.3 0.1 1.5 0 2.4-0.6 3.1-1.9 4.4-7.8 8.9-15.5 13.4-23.2q0.7-1.3 1.5-2.5c0.6 0.4 1.2 0.7 1.9 1.1-5.2 9.2-10.5 18.3-15.9 27.6zm-1.2-1.1c-0.4 0.5-0.9 0.8-0.9 1 0 0.4 0.5 0.7 0.7 1 0.3-0.3 0.8-0.6 0.9-0.9 0-0.2-0.4-0.6-0.7-1.1z"/>
					<path id="&lt;Compound Path&gt;" fill-rule="evenodd" class="s0" d="m55.2 37.9c-5.3-9.2-10.6-18.3-15.9-27.5 0.7-0.4 1.3-0.8 2-1.2q0.7 1.1 1.3 2.3c4.5 7.8 9.1 15.6 13.5 23.4 0.8 1.4 1.6 1.9 3.2 1.9 9-0.1 18-0.1 27-0.1 0.8 0 1.7 0 2.6 0 0 0.8 0 1.5 0 2.4q-1.4 0-2.7 0c-8.9 0-17.9 0-26.8-0.1-1.7 0-2.5 0.6-3.3 2-4.6 7.9-9.2 15.8-13.8 23.8-0.3 0.6-0.6 1.1-1 1.8-0.7-0.4-1.3-0.8-2-1.2 5.3-9.2 10.5-18.3 15.9-27.5zm2.5-0.1c-0.6-0.3-0.9-0.7-1.2-0.7-0.3 0.1-0.6 0.6-0.8 0.9 0.3 0.2 0.6 0.7 0.9 0.7 0.3 0 0.6-0.5 1.1-0.9z"/>
					<path id="&lt;Compound Path&gt;" fill-rule="evenodd" class="s0" d="m176.2 10.3c0.8-0.5 1.3-0.8 2-1.1 2.2 3.8 4.4 7.6 6.6 11.4 2.6 4.6 5.2 9.1 7.8 13.6 1.8 3 0.8 2.5 4.5 2.5 8.7 0 17.5 0 26.2 0 0.8 0 1.6 0 2.5 0 0 0.7 0 1.4 0 2.1-0.2 0.1-0.4 0.2-0.7 0.2q-5.5 0.1-11 0.1c-5.8 0-11.6 0-17.4-0.1-1.9 0-2.9 0.5-3.9 2.2-4.4 7.9-9 15.6-13.5 23.4-0.3 0.7-0.7 1.3-1.1 2-0.7-0.4-1.2-0.7-2-1.2 5.3-9.1 10.6-18.3 15.9-27.5-5.3-9.2-10.6-18.3-15.9-27.6zm18.4 27.5c-0.5-0.3-0.9-0.7-1.2-0.7-0.3 0.1-0.5 0.6-0.8 0.9 0.3 0.2 0.6 0.7 0.9 0.7 0.3 0 0.6-0.5 1.1-0.9z"/>
					<path id="&lt;Compound Path&gt;" fill-rule="evenodd" class="s0" d="m300 66.6c-0.7-1.2-1.4-2.4-2.1-3.5-4.2-7.3-8.4-14.5-12.5-21.7-0.9-1.7-1.9-2.4-4-2.4-8.7 0.1-17.5 0.1-26.3 0.1-0.9 0-1.8 0-2.8 0 0-0.9 0-1.5 0-2.2 0.3-0.1 0.5-0.2 0.8-0.2 9.2 0 18.5 0 27.7 0 4 0 2.9 0.6 4.8-2.7 4.4-7.6 8.8-15.1 13.1-22.7q0.6-1 1.3-2.1c0.6 0.4 1.2 0.7 2 1.1-5.3 9.1-10.6 18.3-15.9 27.6q7.8 13.7 15.8 27.5c-0.6 0.4-1.2 0.8-1.9 1.2zm-14.2-28.8c-0.5-0.3-0.8-0.7-1.1-0.7-0.3 0.1-0.8 0.6-0.8 0.8 0.1 0.3 0.6 0.8 0.9 0.8 0.3 0 0.6-0.5 1-0.9z"/>
					<path id="&lt;Compound Path&gt;" fill-rule="evenodd" class="s0" d="m329 37.9c-5.4-9.3-10.6-18.4-15.9-27.5 0.7-0.4 1.2-0.8 1.9-1.2 0.1 0.2 0.3 0.4 0.5 0.6q6.7 11.7 13.5 23.4c0.4 0.8 0.9 1.6 1.3 2.4 0.4 0.8 1 1.2 2 1.1 0.5 0 1 0 1.5 0q13.2 0 26.4 0c0.8 0 1.6 0 2.6 0 0 0.7 0 1.4 0 2.1-0.3 0.1-0.5 0.2-0.8 0.2q-5.9 0.1-11.9 0.1c-5.6 0-11.1 0-16.7-0.1-1.7 0-2.7 0.5-3.6 2-4.5 8-9.1 15.9-13.7 23.8-0.3 0.6-0.7 1.2-1 1.8-0.7-0.4-1.2-0.7-2-1.2 5.3-9.1 10.6-18.3 15.9-27.5zm2.5-0.1c-0.5-0.3-0.9-0.7-1.2-0.7-0.3 0.1-0.5 0.6-0.8 0.9 0.3 0.2 0.6 0.7 0.9 0.7 0.3 0 0.6-0.5 1.1-0.9z"/>
					<path id="&lt;Compound Path&gt;" fill-rule="evenodd" class="s0" d="m452 66.6c-0.6-0.4-1.2-0.7-2-1.2 5.3-9.1 10.6-18.2 15.9-27.5-5.3-9.2-10.5-18.3-15.9-27.5 0.7-0.5 1.3-0.8 2-1.2 2.2 3.8 4.4 7.6 6.6 11.4 2.8 4.9 5.7 9.7 8.4 14.5 0.7 1.3 1.4 1.7 2.8 1.6 9.1 0 18.2 0 27.3 0 0.8 0 1.6 0 2.5 0 0 0.7 0 1.4 0 2.1-0.1 0-0.3 0.2-0.4 0.2q-1.3 0.1-2.5 0.1c-8.8 0-17.6 0-26.4-0.1-1.8 0-2.8 0.6-3.6 2.2-4.5 7.8-9 15.6-13.5 23.4-0.4 0.7-0.8 1.3-1.2 2zm15.3-27.6c0.4-0.5 0.8-0.8 0.8-1.1-0.1-0.3-0.6-0.8-0.9-0.8-0.3 0.1-0.7 0.6-0.7 0.9 0 0.3 0.4 0.6 0.8 1z"/>
					<path id="&lt;Compound Path&gt;" fill-rule="evenodd" class="s0" d="m575.7 65.4c-0.6 0.4-1.2 0.7-1.8 1.2-0.4-0.6-0.8-1.1-1.1-1.7-4.6-7.9-9.3-15.9-13.8-24-0.8-1.4-1.7-1.9-3.4-1.9-8.9 0.1-17.8 0.1-26.8 0.1-0.9 0-1.7 0-2.7 0 0-0.9 0-1.5 0-2.4q1.3 0 2.4 0c9.1 0 18.1 0 27.1 0.1 1.8 0 2.6-0.6 3.5-2.1 4.3-7.7 8.8-15.4 13.2-23q0.8-1.3 1.5-2.5c0.7 0.4 1.2 0.7 2 1.1-5.3 9.2-10.6 18.3-15.9 27.6q7.9 13.7 15.8 27.5zm-16-27.4c-0.5-0.4-0.8-0.9-1.1-0.9-0.3 0-0.6 0.5-0.9 0.7 0.2 0.3 0.5 0.8 0.8 0.9 0.3 0 0.6-0.4 1.2-0.7z"/>
					<path id="&lt;Compound Path&gt;" fill-rule="evenodd" class="s0" d="m89 194.6c0 0.9 0 1.5 0 2.4q-1.4 0-2.6 0c-9 0-17.9 0-26.9-0.1-1.7 0-2.6 0.6-3.5 2.1-4.5 7.9-9 15.7-13.6 23.6q-0.5 0.9-1.2 1.9c-0.6-0.4-1.2-0.7-1.9-1.2 5.3-9.1 10.6-18.2 15.9-27.5-5.3-9.2-10.6-18.3-15.9-27.5 0.7-0.4 1.2-0.8 2-1.2 5.2 9.1 10.5 18.2 15.9 27.5 10.5 0 21.1 0 31.8 0zm-31.3 1.2c-0.6-0.4-0.9-0.8-1.2-0.7-0.3 0-0.5 0.5-0.8 0.8 0.3 0.3 0.6 0.7 0.9 0.7 0.3 0 0.6-0.4 1.1-0.8z"/>
					<path id="&lt;Compound Path&gt;" fill-rule="evenodd" class="s0" d="m450 484.2c0.8-0.5 1.3-0.8 2-1.2 5.3 9.1 10.6 18.3 15.9 27.5 10.6 0 21.2 0 31.8 0 0 0.9 0 1.5 0 2.4q-1.4 0-2.7 0c-9 0-17.9 0-26.8-0.1-1.7 0-2.6 0.5-3.4 1.9-4.5 8-9.1 15.9-13.7 23.9-0.3 0.5-0.7 1.1-1.1 1.8-0.7-0.4-1.2-0.8-2-1.2 5.3-9.1 10.6-18.2 15.9-27.5-5.2-9.1-10.5-18.2-15.9-27.5zm18.4 27.6c-0.5-0.4-0.8-0.9-1.1-0.9-0.3 0.1-0.6 0.5-0.9 0.8 0.3 0.3 0.5 0.8 0.8 0.8 0.3 0 0.7-0.4 1.2-0.7z"/>
					<path id="&lt;Compound Path&gt;" fill-rule="evenodd" class="s0" d="m149.2 195.8q7.9 13.8 15.8 27.5c-0.7 0.5-1.2 0.8-1.9 1.2q-0.6-0.9-1.1-1.9c-4.6-7.8-9.2-15.7-13.7-23.6-0.8-1.5-1.7-2.1-3.4-2.1-8.9 0.1-17.8 0.1-26.6 0.1-0.9 0-1.8 0-2.9 0 0-0.8 0-1.5 0-2.3 10.5 0 21 0 31.7 0 5.3-9.2 10.6-18.3 15.9-27.6 0.7 0.4 1.3 0.7 2.1 1.1-5.3 9.3-10.6 18.4-15.9 27.6zm-0.3 0.1c-0.4-0.4-0.7-0.8-1-0.8-0.3 0-0.6 0.4-0.9 0.7 0.2 0.3 0.5 0.8 0.8 0.8 0.2 0.1 0.6-0.4 1.1-0.7z"/>
					<path id="&lt;Compound Path&gt;" fill-rule="evenodd" class="s0" d="m252.3 197c0-0.9 0-1.5 0-2.4 10.6 0 21.2 0 31.8 0 5.3-9.2 10.5-18.3 15.8-27.4 0.7 0.3 1.3 0.6 2.1 1-5.3 9.2-10.6 18.4-15.9 27.6q7.9 13.8 15.8 27.5c-0.6 0.4-1.2 0.8-1.9 1.2-0.3-0.5-0.7-1.1-1-1.6-4.5-7.8-9.1-15.6-13.5-23.5-1-1.9-2.2-2.5-4.4-2.5-8.8 0.2-17.6 0.1-26.4 0.1q-1.1 0-2.4 0zm32.5 0c0.3-0.6 0.7-0.9 0.7-1.2 0-0.3-0.5-0.7-0.8-0.7-0.3 0-0.8 0.5-0.8 0.8 0 0.3 0.5 0.6 0.9 1.1z"/>
					<path id="&lt;Compound Path&gt;" fill-rule="evenodd" class="s0" d="m252.3 512.9c0-0.9 0-1.6 0-2.4 10.6 0 21.2 0 31.8 0 5.3-9.2 10.5-18.3 15.8-27.5 0.7 0.4 1.3 0.7 2.1 1.1-5.3 9.2-10.6 18.4-15.9 27.6q7.9 13.8 15.8 27.5c-0.6 0.4-1.2 0.8-1.9 1.2q-0.6-0.9-1.1-1.9c-4.5-7.7-9-15.4-13.4-23.2-1-1.9-2.2-2.5-4.4-2.5-8.7 0.2-17.4 0.1-26.1 0.1q-1.3 0-2.7 0zm32.3-0.1c0.4-0.4 0.9-0.7 0.9-1 0-0.3-0.5-0.8-0.7-0.9-0.3 0-0.8 0.5-0.9 0.8 0 0.3 0.4 0.6 0.7 1.1z"/>
					<path id="&lt;Compound Path&gt;" fill-rule="evenodd" class="s0" d="m225.9 510.5c0 0.9 0 1.5 0 2.4q-1.4 0-2.7 0c-9 0-17.9 0-26.9-0.1-1.6 0-2.5 0.5-3.3 1.9-4.5 8-9.1 15.9-13.7 23.9-0.4 0.5-0.7 1.1-1.1 1.8-0.7-0.4-1.3-0.8-2-1.2 5.3-9.1 10.5-18.2 15.9-27.5-5.3-9.1-10.5-18.2-15.9-27.5 0.7-0.4 1.2-0.8 2-1.2 5.3 9.1 10.6 18.3 15.9 27.5 10.6 0 21.2 0 31.8 0zm-31.3 1.1c-0.5-0.3-0.9-0.7-1.2-0.7-0.3 0.1-0.5 0.6-0.8 0.9 0.3 0.2 0.6 0.7 0.9 0.7 0.3 0 0.6-0.5 1.1-0.9z"/>
					<path id="&lt;Compound Path&gt;" fill-rule="evenodd" class="s0" d="m163.1 483c0.6 0.4 1.2 0.7 1.9 1.1-5.2 9.2-10.5 18.3-15.8 27.6q7.9 13.7 15.8 27.5c-0.6 0.4-1.2 0.8-1.9 1.2-0.3-0.6-0.7-1.1-1-1.6-4.6-8-9.3-16-13.8-24.1-0.8-1.4-1.7-1.9-3.4-1.9-8.9 0.1-17.9 0.1-26.8 0.1-0.9 0-1.8 0-2.7 0 0-0.9 0-1.5 0-2.4q1.2 0 2.4 0c9.1 0 18.2 0 27.3 0.1 1.6 0 2.4-0.6 3.1-1.9 4.5-7.8 9-15.6 13.5-23.4q0.7-1.2 1.4-2.3zm-15.2 27.6c-0.4 0.5-0.9 0.8-0.9 1.1 0 0.3 0.5 0.6 0.8 0.9 0.3-0.3 0.7-0.5 0.8-0.8 0-0.3-0.4-0.7-0.7-1.2z"/>
					<path id="&lt;Compound Path&gt;" fill-rule="evenodd" class="s0" d="m329 195.8c-5.3-9.3-10.6-18.3-15.9-27.5 0.7-0.4 1.3-0.8 2-1.2 2.2 3.9 4.4 7.7 6.6 11.5 2.7 4.6 5.5 9.2 8 13.9 0.9 1.7 2 2.2 3.9 2.2 8.9-0.1 17.7 0 26.6 0 0.8 0 1.6 0 2.6 0 0 0.7 0 1.3 0 2.1-0.3 0-0.5 0.2-0.8 0.2q-5.4 0-10.7 0c-5.9 0-11.8 0.1-17.7-0.1-1.9 0-2.9 0.6-3.9 2.2-4.4 7.9-8.9 15.7-13.5 23.5-0.3 0.6-0.7 1.2-1.1 1.9-0.7-0.4-1.2-0.7-2-1.1 5.3-9.2 10.6-18.3 15.9-27.6zm2.5 0.1c-0.5-0.4-0.8-0.8-1.1-0.8-0.3 0-0.6 0.4-0.9 0.7 0.3 0.3 0.5 0.8 0.8 0.8 0.3 0.1 0.7-0.4 1.2-0.7z"/>
					<path id="&lt;Compound Path&gt;" fill-rule="evenodd" class="s0" d="m10.2 510.5c5.4-9.2 10.6-18.3 15.9-27.5 0.7 0.4 1.3 0.7 2.1 1.1-5.4 9.2-10.6 18.4-16 27.6 5.4 9.2 10.6 18.4 15.9 27.5-0.7 0.4-1.2 0.8-1.9 1.2q-0.6-0.9-1.2-1.9c-4.5-7.9-9.1-15.7-13.6-23.6-0.8-1.5-1.7-2.1-3.4-2.1-8.9 0.1-17.8 0.1-26.7 0.1-0.8 0-1.7 0-2.8 0 0-0.9 0-1.5 0-2.4 10.5 0 21 0 31.7 0zm1.8 1.3c-0.4-0.4-0.8-0.9-1-0.9-0.4 0-0.7 0.5-1 0.8 0.3 0.3 0.5 0.8 0.8 0.8 0.3 0 0.7-0.4 1.2-0.7z"/>
					<path id="&lt;Compound Path&gt;" fill-rule="evenodd" class="s0" d="m536.4 471.1c10.6 0 21.1 0 31.8 0 0 0.8 0 1.5 0 2.2-0.9 0-1.8 0-2.6 0-9 0-18 0.1-27 0-1.7 0-2.5 0.5-3.3 1.9-4.5 7.9-9 15.7-13.5 23.5-0.4 0.7-0.9 1.4-1.3 2.2-0.7-0.4-1.3-0.8-2-1.2q7.9-13.7 15.8-27.5c-5.3-9.2-10.5-18.3-15.8-27.5 0.7-0.4 1.2-0.7 1.9-1.2 5.3 9.2 10.6 18.3 16 27.6zm-0.8 2.1c0.4-0.4 0.8-0.7 0.9-1 0.1-0.2-0.4-0.7-0.6-0.7-0.4 0.1-0.8 0.3-0.9 0.6-0.1 0.3 0.3 0.6 0.6 1.1z"/>
					<path id="&lt;Compound Path&gt;" fill-rule="evenodd" class="s0" d="m423 195.8q7.9 13.8 15.8 27.5c-0.7 0.5-1.2 0.8-1.9 1.2q-0.6-0.9-1.1-1.9c-4.5-7.8-9.1-15.5-13.5-23.4-0.9-1.6-1.9-2.3-3.8-2.3-8.8 0.2-17.6 0.1-26.4 0.1-0.9 0-1.8 0-2.8 0 0-0.8 0-1.5 0-2.3 10.5 0 21 0 31.6 0 5.3-9.2 10.6-18.3 16-27.6 0.6 0.4 1.2 0.7 2 1.1-5.3 9.3-10.6 18.4-15.9 27.6zm-1.3-1.1c-0.4 0.5-0.9 0.8-0.9 1.1 0 0.3 0.5 0.6 0.8 0.9 0.3-0.3 0.8-0.5 0.8-0.8 0.1-0.3-0.4-0.7-0.7-1.2z"/>
					<path id="&lt;Compound Path&gt;" fill-rule="evenodd" class="s0" d="m559.9 195.8q7.9 13.8 15.8 27.5c-0.6 0.5-1.2 0.8-1.9 1.2q-0.6-0.9-1.1-1.8c-4.5-7.8-9-15.5-13.4-23.3-1-1.8-2-2.5-4.1-2.5-8.8 0.2-17.6 0.1-26.4 0.1-0.8 0-1.7 0-2.6 0-0.1-0.8-0.1-1.5-0.1-2.3 10.6 0 21.1 0 31.7 0 5.3-9.2 10.6-18.3 16-27.6 0.6 0.4 1.2 0.7 2 1.1-5.3 9.3-10.6 18.4-15.9 27.6zm-0.2 0.1c-0.5-0.4-0.8-0.8-1.1-0.8-0.3 0-0.6 0.4-0.9 0.7 0.2 0.3 0.5 0.8 0.8 0.8 0.3 0.1 0.6-0.4 1.2-0.7z"/>
					<path id="&lt;Compound Path&gt;" fill-rule="evenodd" class="s0" d="m575.8 326.2c-5.3 9.2-10.6 18.3-15.9 27.6q7.8 13.6 15.8 27.4c-0.6 0.5-1.2 0.8-1.9 1.3-0.6-1.1-1.2-2.1-1.8-3.1-4.4-7.6-8.8-15.1-13.1-22.7-0.7-1.4-1.6-1.8-3.2-1.8-8.9 0.1-17.8 0-26.8 0-0.9 0-1.8 0-2.8 0 0-0.8 0-1.4 0-2.2 0.2 0 0.5-0.1 0.8-0.1q12.6 0 25.3 0c1.3 0 2.6-0.1 4 0 1.3 0.1 2-0.5 2.6-1.6 4.5-7.8 9-15.6 13.5-23.4q0.7-1.2 1.5-2.5c0.6 0.3 1.2 0.6 2 1.1zm-16.1 27.6c-0.5-0.4-0.8-0.8-1.1-0.8-0.3 0-0.6 0.5-0.9 0.7 0.2 0.3 0.5 0.8 0.8 0.9 0.3 0 0.6-0.4 1.2-0.8z"/>
					<path id="&lt;Compound Path&gt;" fill-rule="evenodd" class="s0" d="m438.8 381.3c-0.6 0.4-1.2 0.7-1.9 1.2q-0.6-1-1.1-1.9c-4.4-7.6-8.8-15.2-13.2-22.8-2-3.4-1-2.8-5-2.9-8.6 0-17.2 0-25.7 0q-1.3 0-2.7 0c0-0.9 0-1.5 0-2.3 10.6 0 21.2 0 31.8 0 5.3-9.2 10.5-18.3 15.8-27.5 0.7 0.3 1.3 0.7 2.1 1.1-5.3 9.2-10.6 18.3-15.9 27.6q7.9 13.7 15.8 27.5zm-17.1-26.4c0.3-0.5 0.8-0.9 0.7-1.2 0-0.3-0.5-0.7-0.8-0.7-0.3 0-0.8 0.5-0.8 0.8 0 0.3 0.5 0.6 0.9 1.1z"/>
					<path id="&lt;Compound Path&gt;" fill-rule="evenodd" class="s0" d="m362.8 352.6c0 0.8 0 1.4 0 2.3q-1.4 0-2.7 0c-8.9 0-17.9 0.1-26.8 0-1.7 0-2.6 0.6-3.5 2-4.5 8-9.1 15.9-13.7 23.9-0.3 0.5-0.6 1-1 1.6-0.6-0.3-1.2-0.7-2-1.1 5.3-9.2 10.6-18.3 15.9-27.5-5.3-9.3-10.6-18.4-15.9-27.6 0.7-0.4 1.3-0.7 2-1.2 5.3 9.2 10.5 18.3 15.9 27.6 10.6 0 21.1 0 31.8 0zm-31.3 1.2c-0.5-0.4-0.8-0.8-1.1-0.8-0.3 0-0.6 0.5-0.9 0.7 0.3 0.3 0.5 0.8 0.8 0.9 0.3 0 0.7-0.4 1.2-0.8z"/>
					<path id="&lt;Compound Path&gt;" fill-rule="evenodd" class="s0" d="m252.3 354.9c0-0.8 0-1.4 0-2.3q1.2 0 2.4 0c9.1 0 18.2 0 27.3 0 1.5 0 2.4-0.5 3.1-1.8 4.4-7.8 8.9-15.5 13.4-23.2q0.7-1.3 1.5-2.5c0.6 0.3 1.2 0.7 2 1.1-5.3 9.1-10.6 18.3-15.9 27.6q7.9 13.7 15.8 27.5c-0.6 0.4-1.2 0.7-1.8 1.1-0.4-0.5-0.8-1-1.1-1.5-4.6-8-9.3-16-13.8-24.1-0.8-1.4-1.7-1.9-3.3-1.9-9 0.1-17.9 0-26.9 0-0.9 0-1.7 0-2.7 0zm32.5-2.2c-0.4 0.4-0.9 0.7-0.9 1 0 0.3 0.5 0.6 0.8 0.9 0.3-0.2 0.7-0.5 0.8-0.8 0-0.3-0.4-0.6-0.7-1.1z"/>
					<path id="&lt;Compound Path&gt;" fill-rule="evenodd" class="s0" d="m115.4 354.9c0-0.9 0-1.5 0-2.3 10.6 0 21 0 31.7 0 5.3-9.2 10.6-18.3 15.9-27.5 0.7 0.3 1.3 0.7 2.1 1.1-5.4 9.2-10.6 18.3-15.9 27.6 5.3 9.2 10.5 18.3 15.8 27.5-0.7 0.4-1.2 0.7-1.9 1.2q-0.6-1-1.2-1.9c-4.5-7.9-9.1-15.7-13.6-23.7-0.8-1.4-1.7-2-3.4-2-8.9 0.1-17.8 0-26.7 0-0.8 0-1.7 0-2.8 0zm32.5 0c0.3-0.5 0.7-0.9 0.7-1.2 0-0.3-0.5-0.7-0.8-0.7-0.3 0-0.8 0.5-0.8 0.8 0 0.3 0.5 0.6 0.9 1.1z"/>
					<path id="&lt;Compound Path&gt;" fill-rule="evenodd" class="s0" d="m573.8 88.2c0.7 0.4 1.2 0.7 2 1.1-5.3 9.1-10.6 18.3-15.9 27.6 5.2 9.1 10.5 18.2 15.8 27.5-0.6 0.4-1.2 0.8-1.9 1.2-5.3-9.1-10.6-18.3-15.9-27.6-10.6 0-21.2 0-31.8 0 0-0.8 0-1.4 0-2.3q1.2 0 2.4 0c9 0 17.9 0 26.9 0.1 1.9 0 2.9-0.6 3.8-2.3 4.4-7.8 8.9-15.6 13.5-23.4q0.5-1 1.1-1.9zm-15.3 27.5c-0.4 0.6-0.8 0.9-0.8 1.2 0.1 0.3 0.6 0.7 0.9 0.7 0.3 0 0.7-0.5 0.7-0.8 0-0.3-0.4-0.6-0.8-1.1z"/>
					<path id="&lt;Compound Path&gt;" fill-rule="evenodd" class="s0" d="m575.8 302.4c-0.8 0.4-1.3 0.7-2 1.1-5.3-9.1-10.6-18.2-15.9-27.5-10.6 0-21.2 0-31.8 0 0-0.8 0-1.4 0-2.3q1.2 0 2.4 0c9.1 0 18.2-0.1 27.3 0 1.5 0 2.4-0.5 3.1-1.8 4.6-8 9.2-15.9 13.7-23.9q0.6-0.9 1.2-1.9c0.6 0.4 1.2 0.7 2 1.1-5.3 9.2-10.6 18.3-15.9 27.6 5.2 9.1 10.5 18.3 15.9 27.6zm-17.3-28.7c-0.4 0.5-0.8 0.8-0.8 1.1 0.1 0.3 0.6 0.8 0.9 0.8 0.3-0.1 0.7-0.6 0.7-0.9 0-0.3-0.4-0.6-0.8-1z"/>
					<path id="&lt;Compound Path&gt;" fill-rule="evenodd" class="s0" d="m450 405.2c0.7-0.4 1.3-0.7 2-1.2q0.5 0.9 1.1 1.9c4.6 7.9 9.2 15.8 13.7 23.8 0.8 1.4 1.7 2 3.3 1.9 9 0 18.1 0 27.1 0 0.8 0 1.6 0 2.5 0 0 0.8 0 1.4 0 2.3q-1.2 0-2.4 0c-9.1 0-18.2 0-27.3 0-1.5-0.1-2.4 0.4-3.1 1.8-4.5 7.9-9.1 15.7-13.6 23.6-0.4 0.7-0.9 1.4-1.3 2.1-0.6-0.3-1.2-0.6-2-1.1 5.3-9.1 10.5-18.2 15.9-27.6-5.3-9.1-10.6-18.3-15.9-27.5zm17.3 28.6c0.4-0.5 0.8-0.8 0.7-1.1 0-0.3-0.5-0.8-0.8-0.7-0.3 0-0.7 0.5-0.7 0.8 0 0.3 0.4 0.6 0.8 1z"/>
					<path id="&lt;Compound Path&gt;" fill-rule="evenodd" class="s0" d="m465.9 195.8c-5.3-9.2-10.6-18.3-15.9-27.5 0.7-0.4 1.3-0.8 2-1.2 5.3 9.1 10.5 18.2 15.9 27.5 10.6 0 21.1 0 31.8 0 0 0.8 0 1.5 0 2.4q-1.3 0-2.6 0c-9.1 0-18.1 0-27.1 0-1.5-0.1-2.4 0.4-3.2 1.8-4.5 8-9.1 15.9-13.7 23.8q-0.5 1-1.1 1.9c-0.7-0.4-1.2-0.7-1.9-1.2 5.2-9.1 10.5-18.2 15.8-27.5zm1.4 1.2c0.4-0.6 0.8-0.9 0.8-1.2-0.1-0.3-0.6-0.7-0.9-0.7-0.3 0-0.7 0.5-0.7 0.8 0 0.3 0.4 0.6 0.8 1.1z"/>
					<path id="&lt;Compound Path&gt;" fill-rule="evenodd" class="s0" d="m300 88.2c0.7 0.4 1.3 0.7 1.9 1.1-5.2 9.2-10.5 18.3-15.8 27.6 5.3 9.2 10.5 18.3 15.8 27.5-0.6 0.4-1.2 0.8-1.9 1.2q-0.6-1-1.2-2c-4.6-7.9-9.2-15.9-13.7-23.8-0.8-1.4-1.6-1.8-3.2-1.8-9 0.1-18 0-27 0-0.8 0-1.6 0-2.6 0 0-0.7 0-1.3 0-2 0.1 0 0.2-0.2 0.3-0.2q1.2-0.1 2.5-0.1c8.8 0 17.7 0 26.6 0.1 1.8 0 2.7-0.7 3.6-2.2 4.4-7.8 9-15.6 13.5-23.4 0.4-0.7 0.7-1.3 1.2-2zm-15.2 29.8c0.3-0.6 0.7-0.9 0.7-1.2-0.1-0.3-0.6-0.7-0.8-0.7-0.3 0-0.8 0.5-0.8 0.8 0 0.3 0.5 0.6 0.9 1.1z"/>
					<path id="&lt;Compound Path&gt;" fill-rule="evenodd" class="s0" d="m362.8 115.7c0 0.8 0 1.5 0 2.3q-1.2 0-2.4 0c-9.1 0-18.2 0.1-27.3 0-1.5 0-2.4 0.4-3.1 1.8-4.5 7.9-9.1 15.7-13.6 23.6-0.4 0.7-0.9 1.4-1.3 2.2-0.7-0.4-1.3-0.8-2-1.2 5.3-9.2 10.6-18.3 15.9-27.5-5.3-9.3-10.6-18.4-15.9-27.6 0.7-0.4 1.3-0.7 2-1.1q0.5 0.9 1.1 1.8c4.6 7.9 9.2 15.9 13.7 23.8 0.8 1.4 1.7 2 3.3 2 9-0.1 18-0.1 27.1-0.1 0.8 0 1.6 0 2.5 0zm-33.6 1.1c0.5 0.4 0.8 0.8 1.1 0.8 0.3 0 0.6-0.4 0.9-0.7-0.3-0.3-0.5-0.8-0.8-0.8-0.3-0.1-0.7 0.4-1.2 0.7z"/>
					<path id="&lt;Compound Path&gt;" fill-rule="evenodd" class="s0" d="m389.2 118.1c0-1 0-1.5 0-2.4q1.2 0 2.4 0c9.1 0 18.2 0 27.3 0.1 1.5 0 2.4-0.5 3.1-1.9 4.5-7.9 9.1-15.8 13.7-23.8q0.6-0.9 1.2-1.9c0.6 0.4 1.2 0.7 2 1.1q-8 13.8-15.9 27.6c5.3 9.2 10.5 18.3 15.8 27.5-0.6 0.4-1.2 0.8-1.9 1.2-5.3-9.1-10.6-18.3-15.9-27.5-10.6 0-21.2 0-31.8 0zm32.5-2.3c-0.4 0.4-0.9 0.7-0.9 1 0 0.3 0.5 0.8 0.8 0.8 0.3 0 0.8-0.4 0.8-0.7 0.1-0.3-0.4-0.6-0.7-1.1z"/>
					<path id="&lt;Compound Path&gt;" fill-rule="evenodd" class="s0" d="m499.7 115.7c0 0.9 0 1.5 0 2.2-0.3 0-0.5 0.1-0.8 0.1-8.9 0-17.9 0.2-26.8-0.1-3.3-0.1-4.9 1-6.4 3.8-4 7.4-8.4 14.7-12.6 22.1-0.4 0.5-0.7 1.1-1.1 1.8-0.7-0.4-1.2-0.8-2-1.2 5.3-9.2 10.6-18.3 15.9-27.5-5.3-9.2-10.6-18.4-15.9-27.6 0.7-0.4 1.2-0.7 1.9-1.1 0.4 0.6 0.8 1.2 1.2 1.8 4.5 7.8 9.1 15.7 13.6 23.6 0.9 1.7 2 2.2 3.8 2.2 8.9-0.1 17.8-0.1 26.6-0.1 0.8 0 1.6 0 2.6 0zm-33.6 1.1c0.5 0.4 0.8 0.8 1.1 0.8 0.3 0 0.6-0.4 0.9-0.7-0.3-0.3-0.5-0.8-0.8-0.8-0.3-0.1-0.6 0.4-1.2 0.7z"/>
					<path id="&lt;Compound Path&gt;" fill-rule="evenodd" class="s0" d="m450 247.3c0.7-0.4 1.3-0.8 2-1.2q0.5 0.9 1.1 1.9c4.6 7.9 9.2 15.8 13.7 23.8 0.8 1.4 1.7 1.9 3.3 1.9 9-0.1 18 0 27.1 0 0.8 0 1.6 0 2.5 0 0 0.8 0 1.4 0 2.3q-1.2 0-2.4 0c-9.1 0-18.2 0-27.3-0.1-1.5 0-2.4 0.5-3.1 1.8-4.5 7.9-9.1 15.8-13.6 23.7-0.4 0.7-0.9 1.4-1.3 2.1-0.6-0.4-1.2-0.7-2-1.1q7.9-13.8 15.9-27.6c-5.3-9.2-10.6-18.4-15.9-27.5zm17.3 28.6c0.4-0.5 0.8-0.9 0.7-1.1 0-0.3-0.5-0.8-0.8-0.8-0.3 0-0.7 0.5-0.7 0.9 0 0.2 0.4 0.5 0.8 1z"/>
					<path id="&lt;Compound Path&gt;" fill-rule="evenodd" class="s0" d="m573.8 404c0.7 0.4 1.2 0.8 2 1.2-5.3 9.1-10.6 18.3-15.9 27.5 5.3 9.2 10.5 18.3 15.9 27.6-0.7 0.4-1.3 0.7-2 1.2-5.3-9.2-10.6-18.3-15.9-27.6-10.6 0-21.2 0-31.8 0 0-0.8 0-1.5 0-2.3q1.3 0 2.5 0c8.9 0 17.9 0 26.8 0 1.8 0.1 2.8-0.5 3.7-2 4.4-7.9 9-15.7 13.5-23.5 0.3-0.6 0.7-1.3 1.2-2.1zm-14.1 28.8c-0.5-0.4-0.8-0.8-1.1-0.8-0.3 0-0.6 0.4-0.9 0.7 0.3 0.3 0.5 0.8 0.8 0.8 0.3 0 0.6-0.4 1.2-0.7z"/>
					<path id="&lt;Compound Path&gt;" fill-rule="evenodd" class="s0" d="m313.1 247.3c0.7-0.5 1.3-0.8 2-1.2q0.6 1 1.2 2.1c4.6 7.9 9.1 15.7 13.6 23.6 0.8 1.4 1.8 1.9 3.4 1.9 9-0.1 18 0 27 0 0.8 0 1.6 0 2.5 0 0 0.8 0 1.4 0 2.3-10.6 0-21.2 0-31.8 0-5.3 9.2-10.6 18.4-15.9 27.5-0.7-0.4-1.2-0.7-2-1.1 5.3-9.2 10.5-18.3 15.9-27.6-5.2-9.1-10.5-18.2-15.9-27.5zm17.3 26.4c-0.4 0.4-0.8 0.7-0.8 1 0 0.3 0.4 0.8 0.7 0.9 0.3 0 0.8-0.5 0.8-0.8 0.1-0.2-0.3-0.6-0.7-1.1z"/>
					<path id="&lt;Compound Path&gt;" fill-rule="evenodd" class="s0" d="m252.3 276c0-0.9 0-1.5 0-2.3 0.8 0 1.7 0 2.5 0 9 0 18-0.1 27 0 1.6 0 2.5-0.5 3.4-1.9 4.4-7.9 9-15.8 13.5-23.6 0.4-0.7 0.8-1.3 1.3-2.1 0.6 0.4 1.2 0.7 2 1.1-5.3 9.2-10.6 18.3-15.9 27.6 5.2 9.2 10.5 18.3 15.8 27.5-0.6 0.5-1.2 0.8-1.9 1.2-5.3-9.1-10.6-18.3-16-27.5-10.6 0-21.1 0-31.7 0zm32.5-0.1c0.3-0.5 0.7-0.9 0.7-1.2-0.1-0.3-0.6-0.7-0.8-0.7-0.3 0-0.8 0.5-0.8 0.9 0 0.2 0.5 0.5 0.9 1z"/>
					<path id="&lt;Compound Path&gt;" fill-rule="evenodd" class="s0" d="m436.9 246.1c0.7 0.4 1.3 0.8 2 1.2-5.3 9.1-10.6 18.3-15.9 27.5 5.3 9.2 10.5 18.3 15.9 27.5-0.7 0.5-1.3 0.8-2 1.2-2.2-3.8-4.4-7.5-6.5-11.2-2.9-4.9-5.7-9.8-8.5-14.7-0.7-1.2-1.4-1.7-2.8-1.7-9.1 0.1-18.2 0.1-27.3 0.1-0.8 0-1.6 0-2.5 0 0-0.8 0-1.5 0-2.3q1.2 0 2.4 0c9 0 18-0.1 27 0 1.7 0 2.6-0.5 3.4-1.9 4.5-7.9 9-15.8 13.6-23.7 0.3-0.6 0.7-1.2 1.2-2zm-15.2 27.6c-0.4 0.4-0.9 0.7-0.9 1 0 0.3 0.5 0.8 0.8 0.9 0.3 0 0.8-0.5 0.8-0.8 0.1-0.2-0.4-0.6-0.7-1.1z"/>
					<path id="&lt;Compound Path&gt;" fill-rule="evenodd" class="s0" d="m194.1 276c-5.3 9.2-10.6 18.4-15.9 27.5-0.7-0.4-1.2-0.7-2-1.1 5.3-9.2 10.5-18.3 15.9-27.6-5.3-9.1-10.5-18.3-15.9-27.5 0.7-0.4 1.3-0.8 2-1.2q0.5 1 1.1 1.9c4.6 7.9 9.2 15.8 13.7 23.8 0.8 1.4 1.7 1.9 3.4 1.9 9-0.1 18 0 27 0q1.2 0 2.5 0c0 0.8 0 1.4 0 2.3-10.6 0-21.2 0-31.8 0zm0.5-1.3c-0.6-0.3-0.9-0.7-1.2-0.7-0.3 0.1-0.5 0.6-0.8 0.8 0.3 0.3 0.6 0.7 0.9 0.8 0.3 0 0.6-0.5 1.1-0.9z"/>
					<path id="&lt;Compound Path&gt;" fill-rule="evenodd" class="s0" d="m163.1 246.1c0.7 0.4 1.3 0.8 1.9 1.2-5.3 9.2-10.5 18.3-15.8 27.5 5.3 9.2 10.5 18.4 15.8 27.5-0.7 0.5-1.2 0.8-1.9 1.2q-0.6-1-1.2-2c-4.3-7.5-8.6-15-13-22.4-2.2-3.9-0.9-3.1-5.5-3.1-8.5-0.1-17 0-25.4 0-0.9 0-1.7 0-2.6 0 0-0.8 0-1.4 0-2.2 0.3 0 0.7-0.1 1-0.1q12.8 0 25.7 0c1.6 0 3.5 0.4 4.8-0.3 1.3-0.8 1.9-2.6 2.7-4q6.2-10.7 12.3-21.3c0.4-0.6 0.8-1.3 1.2-2zm-14.2 28.8c-0.4-0.4-0.7-0.9-1-0.9-0.3 0-0.6 0.5-0.9 0.7 0.2 0.3 0.5 0.8 0.8 0.9 0.2 0 0.6-0.4 1.1-0.7z"/>
					<path id="&lt;Compound Path&gt;" fill-rule="evenodd" class="s0" d="m39.3 247.2c0.8-0.4 1.3-0.7 2-1.1q2 3.5 4 7c3.7 6.2 7.3 12.5 10.8 18.8 0.8 1.3 1.6 1.8 3.2 1.8 9-0.1 18 0 27 0 0.9 0 1.7 0 2.6 0 0.1 0.7 0.1 1.3 0.1 2.2-10.5 0-21.1 0-31.7 0-5.4 9.2-10.7 18.3-16 27.6-0.6-0.4-1.2-0.7-2-1.1 5.3-9.2 10.5-18.3 15.9-27.6-5.3-9.2-10.6-18.3-15.9-27.6zm17.3 26.5c-0.4 0.4-0.8 0.7-0.9 1 0 0.3 0.5 0.8 0.8 0.9 0.3 0 0.8-0.5 0.8-0.8 0.1-0.2-0.4-0.6-0.7-1.1z"/>
					<path id="&lt;Compound Path&gt;" fill-rule="evenodd" class="s0" d="m12.2 274.8c5.3 9.2 10.6 18.3 15.9 27.5-0.6 0.5-1.2 0.8-1.9 1.2q-0.6-0.9-1.2-2c-4.6-7.9-9.2-15.8-13.7-23.8-0.8-1.3-1.6-1.8-3.2-1.8-9 0.1-18 0.1-27 0.1-0.8 0-1.6 0-2.6 0 0-0.8 0-1.5 0-2.3q1.3 0 2.5 0c9 0 18-0.1 27 0 1.7 0 2.6-0.5 3.4-1.9 4.4-8 9-15.8 13.6-23.7 0.3-0.6 0.7-1.2 1.1-2 0.7 0.4 1.3 0.8 2 1.2-5.3 9.1-10.5 18.3-15.9 27.5zm-1.2-1.1c-0.4 0.4-0.9 0.7-0.9 1 0 0.3 0.5 0.8 0.7 0.9 0.3 0 0.8-0.5 0.9-0.8 0-0.2-0.4-0.6-0.7-1.1z"/>
					<path id="&lt;Compound Path&gt;" fill-rule="evenodd" class="s0" d="m436.9 404.1c0.7 0.3 1.2 0.7 2 1.1-5.3 9.1-10.6 18.3-15.9 27.5 5.2 9.2 10.5 18.3 15.8 27.6-0.6 0.4-1.2 0.7-1.9 1.2-5.3-9.2-10.6-18.3-16-27.6-10.5 0-21.1 0-31.7 0 0-0.8 0-1.4 0-2.3q1.3 0 2.5 0c8.9 0 17.8 0 26.8 0 1.7 0.1 2.8-0.4 3.7-2 4.4-8 9-15.8 13.6-23.7q0.5-0.9 1.1-1.8zm-14.1 28.7c-0.5-0.4-0.8-0.9-1.1-0.8-0.3 0-0.6 0.4-0.9 0.7 0.2 0.3 0.5 0.8 0.8 0.8 0.3 0 0.6-0.4 1.2-0.7z"/>
					<path id="&lt;Compound Path&gt;" fill-rule="evenodd" class="s0" d="m301.9 405.2c-5.3 9.3-10.6 18.4-15.8 27.5 5.3 9.2 10.5 18.4 15.8 27.6-0.6 0.4-1.2 0.7-1.9 1.2q-0.6-1-1.2-2c-4.6-8-9.2-15.9-13.7-23.8-0.8-1.4-1.6-1.9-3.2-1.8-9 0-18 0-27 0-0.8 0-1.6 0-2.6 0 0-0.8 0-1.5 0-2.3q1.3 0 2.5 0c9 0 18 0 27.1 0 1.6 0.1 2.5-0.5 3.3-1.9 4.5-7.9 9-15.8 13.6-23.6 0.3-0.7 0.7-1.3 1.2-2 0.6 0.4 1.2 0.7 1.9 1.1zm-17.3 26.4c-0.3 0.5-0.7 0.9-0.7 1.2 0.1 0.3 0.6 0.7 0.9 0.7 0.2 0 0.7-0.5 0.7-0.8 0-0.3-0.5-0.6-0.9-1.1z"/>
					<path id="&lt;Compound Path&gt;" fill-rule="evenodd" class="s0" d="m26.2 88.2c0.6 0.4 1.2 0.7 1.9 1.1-5.2 9.1-10.5 18.3-15.9 27.6 5.3 9.1 10.6 18.2 15.9 27.5-0.6 0.4-1.2 0.8-1.9 1.2-5.3-9.1-10.6-18.3-16-27.6-10.5 0-21.1 0-31.7 0 0-0.8 0-1.4 0-2.3q1.2 0 2.4 0c9 0 18 0 27 0.1 1.8 0 2.7-0.6 3.5-2.1 4.5-7.9 9.1-15.7 13.6-23.6q0.6-1 1.2-1.9zm-14.2 28.7c-0.4-0.4-0.8-0.8-1.1-0.8-0.3 0-0.5 0.4-0.8 0.7 0.2 0.3 0.5 0.8 0.7 0.8 0.3 0.1 0.7-0.3 1.2-0.7z"/>
					<path id="&lt;Compound Path&gt;" fill-rule="evenodd" class="s0" d="m41.3 145.6c-0.7-0.4-1.2-0.7-2-1.2 5.2-9.1 10.5-18.2 15.9-27.5-5.3-9.2-10.6-18.4-15.9-27.6 0.7-0.4 1.3-0.7 1.9-1.1q0.6 0.9 1.2 1.8c4.6 8 9.2 15.9 13.7 23.8 0.8 1.5 1.7 2 3.3 2 9-0.1 18-0.1 27-0.1 0.9 0 1.7 0 2.6 0 0 0.8 0 1.5 0 2.3q-1.3 0-2.5 0c-9 0-18.1 0.1-27.2 0-1.6 0-2.4 0.5-3.2 1.8-4.4 7.9-9 15.8-13.6 23.6-0.4 0.7-0.8 1.4-1.2 2.2zm15.3-29.8c-0.4 0.4-0.9 0.7-0.9 1 0 0.3 0.5 0.8 0.8 0.8 0.3 0 0.8-0.4 0.8-0.7 0.1-0.3-0.4-0.6-0.7-1.1z"/>
					<path id="&lt;Compound Path&gt;" fill-rule="evenodd" class="s0" d="m12.2 432.7c5.4 9.3 10.6 18.4 15.9 27.6-0.7 0.4-1.2 0.8-1.9 1.2q-0.6-1-1.2-2.1c-4.5-7.8-9.1-15.6-13.5-23.4-0.9-1.5-1.8-2.2-3.7-2.2-8.9 0.2-17.8 0.1-26.8 0.1-0.8 0-1.6 0-2.5 0 0-0.7 0-1.4 0-2.2 0.4 0 0.8-0.1 1.2-0.1 9 0 17.9 0 26.8 0 4.5 0 3.3 0.6 5.5-3.1 4.4-7.6 8.7-15.1 13.1-22.7 0.3-0.5 0.7-1.1 1.1-1.7 0.6 0.4 1.2 0.7 1.9 1.1-5.3 9.2-10.6 18.4-15.9 27.5zm-1.2-1.1c-0.4 0.5-0.9 0.8-0.9 1.1 0 0.3 0.5 0.8 0.7 0.8 0.3 0 0.8-0.4 0.9-0.7 0-0.3-0.4-0.7-0.7-1.2z"/>
					<path id="&lt;Compound Path&gt;" fill-rule="evenodd" class="s0" d="m163.1 88.2c0.6 0.4 1.2 0.7 1.9 1.1-5.2 9.1-10.5 18.3-15.8 27.6 5.2 9.1 10.5 18.2 15.8 27.5-0.6 0.4-1.2 0.8-1.9 1.2-5.3-9.1-10.6-18.3-16-27.6-10.5 0-21.1 0-31.7 0 0-0.8 0-1.4 0-2.3q1.2 0 2.4 0c9 0 18 0 27 0.1 1.8 0 2.7-0.6 3.5-2.1 4.5-7.9 9.1-15.7 13.6-23.6q0.6-1 1.2-1.9zm-15.2 29.8c0.3-0.6 0.7-0.9 0.7-1.2-0.1-0.3-0.6-0.7-0.9-0.7-0.2 0-0.7 0.5-0.7 0.8 0 0.3 0.5 0.6 0.9 1.1z"/>
					<path id="&lt;Compound Path&gt;" fill-rule="evenodd" class="s0" d="m176.2 168.3c0.7-0.4 1.2-0.8 2-1.2 5.2 9.1 10.5 18.2 15.9 27.5 10.5 0 21.1 0 31.8 0 0 0.8 0 1.4 0 2.4q-1.3 0-2.6 0c-9 0-17.9 0-26.9-0.1-1.7 0-2.6 0.6-3.5 2.1-4.4 7.9-9 15.7-13.6 23.6q-0.5 1-1.1 1.9c-0.7-0.4-1.2-0.7-2-1.2 5.3-9.1 10.6-18.2 15.9-27.5-5.3-9.2-10.6-18.3-15.9-27.5zm17.2 28.7c0.4-0.5 0.8-0.8 0.8-1.1 0-0.3-0.4-0.8-0.7-0.8-0.3 0-0.8 0.4-0.9 0.7 0 0.3 0.4 0.6 0.8 1.2z"/>
					<path id="&lt;Compound Path&gt;" fill-rule="evenodd" class="s0" d="m163.1 404c0.7 0.4 1.2 0.8 1.9 1.2-5.2 9.1-10.5 18.3-15.8 27.5 5.2 9.2 10.5 18.4 15.8 27.6-0.7 0.4-1.2 0.8-1.9 1.2-5.3-9.2-10.6-18.4-16-27.6-10.6 0-21.1 0-31.7 0 0-0.8 0-1.5 0-2.3 0.9 0 1.7 0 2.5 0 9 0 18 0 27 0 1.6 0.1 2.6-0.5 3.4-1.9 4.4-7.9 9-15.7 13.5-23.6 0.4-0.6 0.8-1.3 1.3-2.1zm-15.4 29.8c0.4-0.4 0.9-0.7 0.9-1 0-0.3-0.5-0.8-0.7-0.8-0.3-0.1-0.8 0.4-0.9 0.7 0 0.3 0.4 0.6 0.7 1.1z"/>
					<path id="&lt;Compound Path&gt;" fill-rule="evenodd" class="s0" d="m225.9 431.6c0 0.8 0 1.5 0 2.3-10.6 0-21.2 0-31.8 0-5.3 9.3-10.6 18.4-15.9 27.6-0.7-0.4-1.2-0.7-2-1.2 5.3-9.1 10.5-18.3 15.9-27.6-5.3-9.1-10.5-18.2-15.9-27.5 0.7-0.4 1.3-0.7 2-1.2q0.5 1 1.1 1.9c4.6 8 9.2 15.9 13.7 23.9 0.8 1.4 1.7 1.9 3.4 1.8 9 0 18 0 27 0q1.2 0 2.5 0zm-31.3 1.2c-0.5-0.4-0.8-0.9-1.1-0.8-0.3 0-0.6 0.4-0.9 0.7 0.3 0.3 0.5 0.8 0.8 0.8 0.3 0 0.6-0.4 1.2-0.7z"/>
					<path id="&lt;Compound Path&gt;" fill-rule="evenodd" class="s0" d="m313.1 484.2c0.7-0.5 1.3-0.8 2-1.2 5.3 9.1 10.6 18.3 15.9 27.5 10.6 0 21.2 0 31.8 0 0 0.8 0 1.5 0 2.4q-1.4 0-2.7 0c-8.9 0-17.7 0-26.6-0.1-1.8 0-2.8 0.5-3.7 2.1-4.5 7.9-9.1 15.8-13.6 23.6-0.3 0.6-0.7 1.2-1.1 1.9-0.7-0.4-1.3-0.8-2-1.2q8-13.7 15.9-27.5c-5.3-9.2-10.6-18.3-15.9-27.5zm18.4 27.6c-0.5-0.4-0.8-0.9-1.1-0.9-0.3 0-0.6 0.5-0.9 0.8 0.3 0.3 0.5 0.8 0.8 0.8 0.3 0 0.7-0.4 1.2-0.7z"/>
					<path id="&lt;Compound Path&gt;" fill-rule="evenodd" class="s0" d="m89 510.5c0 0.9 0 1.5 0 2.4q-1.4 0-2.7 0c-9 0-17.9 0-26.9-0.1-1.6 0-2.5 0.5-3.3 1.9-4.5 8-9.2 15.9-13.7 23.9-0.4 0.5-0.7 1.1-1.1 1.8-0.7-0.4-1.3-0.8-2-1.2 5.3-9.1 10.5-18.2 15.9-27.5-5.3-9.1-10.5-18.2-15.9-27.5 0.6-0.4 1.2-0.8 2-1.2 5.3 9.1 10.5 18.3 15.9 27.5 10.6 0 21.2 0 31.8 0zm-31.3 1.1c-0.6-0.3-0.9-0.7-1.2-0.7-0.3 0.1-0.5 0.6-0.8 0.9 0.3 0.2 0.6 0.7 0.9 0.7 0.3 0 0.6-0.5 1.1-0.9z"/>
					<path id="&lt;Compound Path&gt;" fill-rule="evenodd" class="s0" d="m225.9 115.7c0 0.9 0 1.5 0 2.3-10.6 0-21.2 0-31.8 0-5.3 9.3-10.6 18.4-15.9 27.6-0.7-0.4-1.2-0.7-2-1.2 5.3-9.1 10.5-18.2 15.9-27.5-5.3-9.2-10.5-18.3-15.9-27.5 0.7-0.4 1.3-0.8 2-1.2q0.5 0.9 1.1 1.9c4.6 7.8 9.1 15.7 13.6 23.6 0.9 1.6 1.9 2.1 3.7 2.1 8.9-0.1 17.9-0.1 26.8-0.1q1.2 0 2.5 0zm-32.4 0.1c-0.4 0.4-0.8 0.7-0.8 1 0 0.3 0.4 0.8 0.7 0.8 0.3 0 0.8-0.4 0.8-0.7 0.1-0.3-0.3-0.6-0.7-1.1z"/>
					<path id="&lt;Path&gt;" class="s0" d="m56.7 431.4c1 0.1 2 0.2 3.1 0.2q13.3 0 26.6 0c0.8 0 1.6 0 2.5 0 0 0.8 0 1.4 0 2.2-0.2 0-0.5 0.1-0.7 0.1q-13.1 0-26.2 0c-1.5 0-3.4-0.4-4.6 0.3-1.2 0.7-1.8 2.6-2.7 4q-6.2 10.8-12.5 21.6c-0.3 0.6-0.6 1.1-1 1.6-0.6-0.3-1.2-0.7-1.9-1.1 5.3-9.2 10.6-18.4 15.9-27.6-5.3-9.2-10.6-18.3-15.9-27.5 0.7-0.4 1.2-0.7 1.9-1.1 0.2 0.3 0.5 0.6 0.7 1q7.1 12.3 14.2 24.6c0.3 0.5 0.4 1.2 0.6 1.8-0.3 0.3-0.7 0.5-0.9 0.8-0.1 0.3 0 0.8 0.2 1 0.2 0.2 0.7 0.2 0.9 0.1 0.3-0.1 0.5-0.6 0.4-0.9-0.1-0.4-0.4-0.7-0.6-1.1z"/>
					<path id="&lt;Path&gt;" class="s0" d="m330.5 431.4c1 0.1 2.1 0.2 3.1 0.2q13.3 0 26.6 0c0.8 0 1.6 0 2.6 0 0 0.8 0 1.4 0 2.2-0.3 0-0.5 0.1-0.8 0.1q-13.1 0-26.2 0c-1.5 0-3.4-0.4-4.6 0.3-1.2 0.7-1.8 2.6-2.6 4q-6.3 10.8-12.6 21.6c-0.3 0.6-0.6 1.1-0.9 1.6-0.7-0.3-1.3-0.7-2-1.1 5.3-9.2 10.6-18.4 15.9-27.6-5.3-9.2-10.6-18.3-15.9-27.5 0.7-0.4 1.2-0.7 1.9-1.1 0.2 0.3 0.5 0.6 0.7 1q7.1 12.3 14.2 24.6c0.3 0.5 0.4 1.2 0.6 1.8-0.3 0.3-0.7 0.5-0.9 0.8-0.1 0.3 0 0.8 0.2 1 0.2 0.2 0.7 0.2 0.9 0.1 0.3-0.1 0.5-0.6 0.4-0.9-0.1-0.4-0.4-0.7-0.6-1.1z"/>
					<path id="&lt;Compound Path&gt;" fill-rule="evenodd" class="s0" d="m46.9 552.4c0-0.9 0-1.5 0-2.3 1 0 1.9 0 2.8 0 8.9 0 17.9-0.1 26.8 0 1.7 0 2.5-0.5 3.3-1.9 4.5-7.9 9.1-15.8 13.6-23.7 0.4-0.6 0.8-1.2 1.2-1.9 0.7 0.4 1.3 0.7 2 1.1-5.3 9.2-10.6 18.3-15.9 27.5q7.9 13.7 15.9 27.5c-0.7 0.4-1.3 0.8-1.9 1.2q-0.7-1-1.3-2.1c-4.3-7.5-8.6-15-13-22.4-2.1-3.7-1-3-5.1-3-8.6-0.1-17.2-0.1-25.9 0q-1.2 0-2.5 0zm32.5-0.1c0.3-0.5 0.8-0.9 0.7-1.2 0-0.2-0.5-0.7-0.8-0.7-0.3 0-0.7 0.5-0.7 0.8 0 0.3 0.4 0.6 0.8 1.1z"/>
					<path id="&lt;Compound Path&gt;" fill-rule="evenodd" class="s0" d="m231.5 206.7c0.7 0.4 1.2 0.7 2 1.1-5.3 9.2-10.5 18.3-15.9 27.5 5.3 9.1 10.5 18.2 15.9 27.4-0.7 0.5-1.2 0.9-2 1.3q-0.9-1.5-1.8-3.1c-4.3-7.4-8.6-14.9-12.9-22.4-0.8-1.5-1.7-2.1-3.5-2.1-9 0.1-18 0.1-27 0.1q-1.2 0-2.5 0c0-0.8 0-1.4 0-2 0.2-0.1 0.4-0.2 0.6-0.2q2.9-0.1 5.8-0.1c7.5 0 14.9-0.1 22.4 0.1 2.2 0 3.4-0.6 4.5-2.6 4.3-7.8 8.8-15.4 13.3-23.1 0.3-0.6 0.7-1.2 1.1-1.9zm-15.2 27.5c-0.4 0.5-0.8 0.8-0.8 1.1 0 0.3 0.4 0.8 0.7 0.8 0.3 0 0.8-0.4 0.8-0.7 0.1-0.3-0.3-0.7-0.7-1.2z"/>
					<path id="&lt;Compound Path&gt;" fill-rule="evenodd" class="s0" d="m244.7 207.8c0.7-0.4 1.3-0.7 2-1.2q0.9 1.7 1.9 3.4c4.3 7.4 8.6 14.9 12.9 22.4 0.8 1.4 1.6 1.8 3.2 1.8 8.9 0 17.9 0 26.8 0 0.9 0 1.8 0 2.8 0 0 0.8 0.1 1.4 0.1 2.1-0.4 0.1-0.8 0.2-1.1 0.2-9.4 0-18.8 0-28.2-0.1-1.9 0-2.9 0.6-3.9 2.2-4.3 7.8-8.8 15.4-13.2 23.1q-0.7 1.1-1.4 2.3c-0.6-0.4-1.2-0.8-1.9-1.2 5.3-9.2 10.5-18.3 15.8-27.5-5.3-9.1-10.5-18.2-15.8-27.5zm17.3 28.6c0.3-0.5 0.7-0.8 0.7-1.1-0.1-0.3-0.6-0.8-0.9-0.7-0.2 0-0.7 0.5-0.7 0.8 0 0.3 0.5 0.5 0.9 1z"/>
					<path id="&lt;Compound Path&gt;" fill-rule="evenodd" class="s0" d="m354.5 235.3c5.4 9.3 10.6 18.3 15.9 27.5-0.7 0.4-1.2 0.8-1.9 1.2q-0.7-1-1.3-2c-4.5-7.9-9.1-15.7-13.6-23.7-0.8-1.4-1.7-1.9-3.3-1.9-9 0.1-18 0.1-27 0.1-0.8 0-1.7 0-2.5 0 0-0.8 0-1.5 0-2.3 0.9 0 1.8 0 2.7 0 8.9 0 17.8 0 26.8 0 1.6 0.1 2.5-0.5 3.3-1.9 4.5-8 9.2-15.9 13.7-23.8 0.4-0.6 0.7-1.1 1.1-1.8 0.7 0.4 1.3 0.7 2 1.1-5.3 9.2-10.5 18.3-15.9 27.5zm-1.3-1.1c-0.4 0.5-0.8 0.8-0.8 1.1 0 0.2 0.4 0.8 0.7 0.8 0.3 0 0.8-0.4 0.8-0.7 0.1-0.3-0.3-0.7-0.7-1.2z"/>
					<path id="&lt;Compound Path&gt;" fill-rule="evenodd" class="s0" d="m505.3 206.7c0.7 0.4 1.3 0.7 2 1.2-5.3 9-10.5 18.1-15.9 27.4q7.9 13.6 15.9 27.5c-0.7 0.4-1.3 0.8-2 1.2-2.2-3.9-4.5-7.8-6.7-11.6-2.7-4.7-5.4-9.3-8-14-0.8-1.5-1.8-2-3.5-2-9 0.1-17.9 0.1-26.9 0.1-0.8 0-1.6 0-2.5 0 0-0.8 0-1.4 0-2.3q1.3 0 2.6 0c8.9 0 17.9-0.1 26.8 0 1.8 0.1 2.7-0.5 3.5-2 4.5-8 9.1-15.9 13.7-23.8 0.3-0.5 0.6-1.1 1-1.7zm-14.1 28.6c-0.5-0.4-0.9-0.8-1.2-0.8-0.3 0.1-0.5 0.6-0.7 0.9 0.2 0.2 0.5 0.7 0.8 0.7 0.3 0 0.6-0.5 1.1-0.8z"/>
					<path id="&lt;Compound Path&gt;" fill-rule="evenodd" class="s0" d="m568.1 234.2c0 0.8 0 1.4 0 2.1-0.2 0.1-0.6 0.2-0.9 0.2q-10.1 0-20.2 0c-2.9 0-5.9 0-8.9-0.1-1.3 0-2 0.5-2.6 1.6-4.7 8.1-9.4 16.3-14.1 24.4-0.3 0.5-0.6 1-1 1.6-0.6-0.4-1.2-0.8-1.9-1.2 5.3-9.2 10.5-18.3 15.8-27.5q-7.9-13.7-15.8-27.4c0.7-0.5 1.2-0.8 1.9-1.2q0.6 0.9 1.2 1.8c4.5 8 9.2 15.9 13.7 23.8 0.8 1.5 1.7 2 3.3 1.9 9 0 17.9 0 26.8 0 0.9 0 1.8 0 2.7 0zm-32.3 0c-0.4 0.5-0.9 0.8-0.9 1.1 0 0.2 0.5 0.7 0.8 0.8 0.2 0 0.7-0.4 0.8-0.7 0-0.3-0.4-0.7-0.7-1.2z"/>
					<path id="&lt;Compound Path&gt;" fill-rule="evenodd" class="s0" d="m520.4 579.9c-0.6-0.4-1.2-0.8-1.9-1.3 5.3-9 10.5-18.1 15.8-27.4q-7.8-13.6-15.8-27.5c0.7-0.4 1.3-0.7 2-1.2 1.2 2.2 2.5 4.3 3.7 6.5 3.6 6.2 7.3 12.4 10.8 18.8 1 1.8 2.2 2.3 4.2 2.3 8.7-0.1 17.4 0 26.2 0 0.8 0 1.7 0 2.7 0 0 0.8 0 1.4 0 2.3q-1.2 0-2.4 0c-9-0.1-17.9 0-26.8-0.1-2 0-2.9 0.6-3.9 2.2-4.3 7.8-8.8 15.4-13.2 23.1q-0.7 1.1-1.4 2.3zm16.4-28.8c-0.5-0.3-0.8-0.7-1.1-0.7-0.3 0.1-0.6 0.6-0.8 0.8 0.3 0.3 0.6 0.7 0.9 0.7 0.3 0.1 0.6-0.4 1-0.8z"/>
					<path id="&lt;Compound Path&gt;" fill-rule="evenodd" class="s0" d="m431.3 550.1c0 0.8 0 1.4 0 2.1-0.4 0.1-0.8 0.1-1.1 0.1q-13.5 0-27.1 0c-0.5 0-1 0.1-1.5 0-1.5-0.2-2.4 0.4-3.2 1.8-3.2 5.7-6.4 11.2-9.7 16.9q-2.5 4.4-5.2 8.9c-0.6-0.4-1.1-0.8-1.9-1.2 5.3-9.2 10.5-18.3 15.8-27.5-5.2-9.2-10.5-18.2-15.8-27.4 0.6-0.5 1.2-0.8 1.9-1.3 0.4 0.7 0.8 1.3 1.2 1.9 4.6 8 9.2 15.9 13.7 23.9 0.7 1.3 1.6 1.8 3.1 1.8 9-0.1 17.9 0 26.9 0 0.9 0 1.7 0 2.9 0zm-33.6 1c0.5 0.4 0.8 0.9 1 0.8 0.3 0 0.6-0.4 0.9-0.7-0.2-0.2-0.5-0.7-0.8-0.8-0.2 0-0.6 0.4-1.1 0.7z"/>
					<path id="&lt;Compound Path&gt;" fill-rule="evenodd" class="s0" d="m320.8 552.4c0-0.9 0-1.5 0-2.3 0.9 0 1.8 0 2.7 0 8.8 0 17.6-0.1 26.4 0 2 0.1 3-0.6 4-2.3 4.4-7.8 8.9-15.5 13.4-23.3 0.3-0.6 0.7-1.3 1.1-1.9 0.7 0.3 1.2 0.6 1.9 1.1-0.3 0.6-0.7 1.4-1.1 2-4.4 7.8-8.8 15.6-13.4 23.2-1.1 1.8-1 3 0 4.6 4.6 7.7 9 15.5 13.5 23.2 0.3 0.6 0.6 1.2 1 1.9-0.6 0.4-1.1 0.8-1.8 1.3q-0.7-1.2-1.4-2.3c-4.4-7.7-8.9-15.3-13.3-23.1-0.9-1.6-1.9-2.2-3.8-2.2-8.9 0.1-17.9 0-26.8 0.1q-1.2 0-2.4 0zm33.5-1.1c-0.5-0.4-0.8-0.9-1.1-0.9-0.3 0-0.6 0.5-0.9 0.7 0.3 0.3 0.5 0.8 0.8 0.8 0.3 0.1 0.7-0.3 1.2-0.6z"/>
					<path id="&lt;Compound Path&gt;" fill-rule="evenodd" class="s0" d="m246.7 522.5c3.6 6.4 7.2 12.6 10.8 18.8 1.3 2.2 2.7 4.4 3.9 6.8 0.7 1.5 1.7 2 3.4 2 8.9-0.1 17.8 0 26.6 0 0.9 0 1.8 0 2.9 0 0 0.7 0.1 1.3 0.1 2.1-0.4 0.1-0.7 0.1-1.1 0.1q-11.4 0-22.8 0c-1.7 0-3.4 0.2-5.1 0-2.1-0.2-3.2 0.5-4.3 2.4-4.1 7.4-8.5 14.8-12.7 22.2-0.6 1-1.2 2-1.8 3-0.6-0.4-1.1-0.7-1.9-1.2 5.2-9.1 10.5-18.3 15.8-27.5q-7.9-13.8-15.8-27.5c0.7-0.4 1.2-0.7 2-1.2zm15.1 29.8c0.4-0.5 0.9-0.8 0.9-1.1 0-0.3-0.5-0.8-0.8-0.8-0.2 0-0.7 0.5-0.8 0.8 0 0.2 0.4 0.6 0.7 1.1z"/>
					<path id="&lt;Compound Path&gt;" fill-rule="evenodd" class="s0" d="m123.6 551.2c-5.3-9.2-10.5-18.3-15.8-27.4 0.6-0.5 1.2-0.8 1.9-1.3 0.7 1.2 1.3 2.2 2 3.3 4.3 7.5 8.6 15 12.9 22.5 0.8 1.4 1.6 1.8 3.2 1.8 8.9-0.1 17.8 0 26.8 0 0.9 0 1.8 0 2.8 0 0 0.7 0.1 1.4 0.1 2.1-0.5 0.1-0.8 0.1-1.2 0.1-9.3 0-18.7 0.1-28.1 0-1.9 0-2.9 0.6-3.9 2.2-4.2 7.5-8.6 15-12.9 22.5q-0.8 1.4-1.7 2.9c-0.6-0.4-1.2-0.8-1.9-1.3 5.2-9.1 10.5-18.2 15.8-27.4zm2.5-0.1c-0.5-0.3-0.9-0.7-1.2-0.7-0.3 0.1-0.5 0.5-0.7 0.8 0.2 0.3 0.5 0.7 0.8 0.7 0.3 0.1 0.6-0.4 1.1-0.8z"/>
					<path id="&lt;Compound Path&gt;" fill-rule="evenodd" class="s0" d="m46.9 78.5c0-0.8 0-1.4 0-2.2 1 0 1.9 0 2.8 0 8.8 0 17.6-0.1 26.4 0 2 0 3-0.7 4-2.3 4.4-7.9 8.9-15.7 13.5-23.5 0.3-0.6 0.6-1.1 1-1.7 0.6 0.3 1.2 0.6 1.9 1-0.3 0.7-0.7 1.4-1.1 2.1-4.5 7.8-8.9 15.7-13.5 23.4-1 1.6-0.9 2.7 0 4.2 4.6 7.7 9 15.5 13.5 23.2 0.3 0.7 0.7 1.3 1.1 2.1-0.6 0.4-1.1 0.8-1.8 1.3q-0.7-1.1-1.3-2.1c-4.4-7.7-8.9-15.3-13.3-23.1-0.9-1.7-2-2.5-4.1-2.4-8.9 0.1-17.7 0-26.6 0q-1.2 0-2.5 0zm33.6-1.1c-0.5-0.3-0.8-0.8-1.1-0.8-0.3 0-0.6 0.5-0.9 0.7 0.3 0.3 0.5 0.8 0.8 0.8 0.3 0.1 0.6-0.3 1.2-0.7z"/>
					<path id="&lt;Compound Path&gt;" fill-rule="evenodd" class="s0" d="m123.6 77.4c-5.3-9.3-10.6-18.4-15.8-27.5 0.7-0.4 1.2-0.8 1.9-1.2q0.6 1 1.2 1.9c4.5 7.9 9.1 15.7 13.6 23.7 0.8 1.4 1.7 2 3.4 2 8.9-0.1 17.8 0 26.6 0 0.9 0 1.8 0 2.8 0 0.1 0.7 0.1 1.3 0.2 2.1-0.4 0-0.8 0.1-1.1 0.1q-13.1 0-26.2 0c-0.6 0-1.2 0.1-1.8 0-2-0.3-3.1 0.5-4.2 2.3-4.1 7.5-8.4 14.8-12.6 22.1-0.6 1.1-1.2 2.1-1.9 3.2-0.6-0.4-1.2-0.8-1.9-1.2 5.2-9.2 10.5-18.3 15.8-27.5zm1.3 1.1c0.4-0.5 0.9-0.8 0.9-1.1-0.1-0.3-0.5-0.8-0.8-0.8-0.2 0-0.7 0.4-0.8 0.7 0 0.3 0.4 0.7 0.7 1.2z"/>
					<path id="&lt;Compound Path&gt;" fill-rule="evenodd" class="s0" d="m370.4 104.8c-0.7 0.5-1.2 0.8-1.9 1.3-0.3-0.6-0.7-1.1-1-1.7-4.6-8-9.3-15.9-13.8-24-0.8-1.4-1.7-1.9-3.4-1.9-9 0.1-18 0-27 0-0.8 0-1.6 0-2.5 0 0-0.7 0-1.4 0-2.2q1.3 0 2.6 0c8.9 0 17.8-0.1 26.6 0 1.8 0 2.8-0.5 3.7-2.1 4.5-8 9.2-15.9 13.7-23.8 0.3-0.5 0.7-1 1-1.6 0.7 0.3 1.3 0.7 2 1.1-5.3 9.1-10.5 18.2-15.9 27.5q7.9 13.6 15.9 27.4zm-16.1-27.5c-0.5-0.3-0.9-0.7-1.2-0.7-0.3 0-0.5 0.5-0.8 0.8 0.3 0.3 0.6 0.7 0.9 0.7 0.3 0 0.6-0.4 1.1-0.8z"/>
					<path id="&lt;Compound Path&gt;" fill-rule="evenodd" class="s0" d="m383.5 106.1c-0.7-0.5-1.3-0.9-1.9-1.3 5.3-9.1 10.5-18.2 15.8-27.4q-7.9-13.8-15.8-27.5c0.7-0.4 1.2-0.7 1.9-1.2q0.6 1 1.2 1.9c4.5 7.8 9 15.6 13.4 23.4 1 1.8 2.1 2.3 4.1 2.3 8.8-0.1 17.5 0 26.3 0 0.9 0 1.8 0 2.7 0 0 0.8 0 1.4 0 2.1-0.3 0-0.6 0.1-1 0.1q-11.7 0-23.4 0c-1.9 0-3.8 0.1-5.6 0-1.3-0.1-2 0.5-2.6 1.6-4.4 7.6-8.8 15.2-13.2 22.8-0.6 1-1.2 2.1-1.9 3.2zm16.4-28.8c-0.5-0.3-0.9-0.7-1.1-0.7-0.3 0.1-0.6 0.5-0.8 0.8 0.3 0.3 0.6 0.7 0.9 0.7 0.2 0 0.5-0.4 1-0.8z"/>
					<path id="&lt;Compound Path&gt;" fill-rule="evenodd" class="s0" d="m520.4 422c-0.6-0.5-1.2-0.8-1.8-1.3q0.5-0.9 1-1.9c4.5-7.9 9.1-15.8 13.7-23.6 0.8-1.4 0.9-2.4 0-3.8-4.6-7.8-9-15.6-13.5-23.4-0.4-0.7-0.8-1.4-1.3-2.2 0.6-0.4 1.2-0.7 1.8-1.2 0.2 0.3 0.5 0.5 0.7 0.8q6.7 11.6 13.4 23.2c0.2 0.5 0.6 0.9 0.7 1.4 0.7 1.7 1.8 2.2 3.7 2.2 8.8-0.1 17.7-0.1 26.6-0.1 0.9 0 1.7 0 2.7 0 0 0.8 0 1.5 0 2.3q-1.2 0-2.4 0c-9 0-17.9 0.1-26.9 0-1.9-0.1-2.9 0.6-3.8 2.2-4.1 7.4-8.4 14.7-12.7 22.1-0.6 1-1.2 2.1-1.9 3.3zm15.4-29.8c-0.4 0.4-0.9 0.7-0.9 1 0 0.3 0.5 0.8 0.8 0.8 0.2 0 0.7-0.4 0.8-0.7 0-0.3-0.4-0.6-0.7-1.1z"/>
					<path id="&lt;Compound Path&gt;" fill-rule="evenodd" class="s0" d="m505.4 364.6c0.7 0.4 1.2 0.8 1.9 1.2-5.3 9.1-10.5 18.2-15.9 27.5q7.9 13.6 15.9 27.4c-0.7 0.4-1.2 0.8-1.9 1.2-0.3-0.5-0.7-1-1-1.6-4.6-8-9.3-16-13.8-24-0.8-1.4-1.7-2-3.3-1.9-9.1 0.1-18.1 0-27.1 0-0.8 0-1.6 0-2.5 0 0-0.8 0-1.4 0-2.3q1.3 0 2.6 0c8.9 0 17.8 0 26.6 0.1 1.8 0 2.8-0.5 3.7-2.1 4.5-8 9.2-15.9 13.7-23.8 0.3-0.5 0.7-1 1.1-1.7zm-14.2 28.6c-0.5-0.3-0.9-0.8-1.2-0.7-0.3 0-0.5 0.5-0.7 0.8 0.2 0.3 0.5 0.7 0.8 0.7 0.3 0 0.6-0.4 1.1-0.8z"/>
					<path id="&lt;Compound Path&gt;" fill-rule="evenodd" class="s0" d="m431.2 392.1c0 0.9 0 1.4 0 2.2-0.3 0-0.6 0.1-1 0.1-8.8 0-17.6 0.2-26.3-0.1-3.4-0.1-5.2 1-6.8 3.9-3.8 7.2-8 14.1-12.1 21.2-0.4 0.8-0.9 1.6-1.4 2.5-0.7-0.4-1.2-0.7-2-1.1 5.2-9.2 10.5-18.3 15.8-27.5q-7.9-13.8-15.8-27.5c0.7-0.4 1.2-0.8 1.9-1.2q0.6 0.9 1.2 1.9c4.4 7.7 9 15.4 13.3 23.2 1 1.8 2.1 2.5 4.2 2.5 8.8-0.1 17.6-0.1 26.4-0.1 0.8 0 1.6 0 2.6 0zm-31.3 1.2c-0.5-0.4-0.7-0.8-1-0.8-0.3 0-0.6 0.4-0.9 0.7 0.2 0.3 0.5 0.8 0.8 0.8 0.2 0 0.6-0.4 1.1-0.7z"/>
					<path id="&lt;Compound Path&gt;" fill-rule="evenodd" class="s0" d="m354.5 393.3c5.4 9.2 10.6 18.2 15.9 27.4-0.7 0.4-1.2 0.8-1.9 1.3q-1-1.6-1.9-3.1c-4.3-7.5-8.6-15-12.9-22.5-0.8-1.5-1.7-2.1-3.5-2-9 0.1-18 0-27 0q-1.2 0-2.5 0c0-0.8 0-1.3 0-2 0.2-0.1 0.4-0.2 0.6-0.2q5.5-0.1 11-0.1c5.8 0 11.6 0 17.4 0.1 2 0 3.2-0.6 4.2-2.4 4.4-7.8 8.9-15.5 13.4-23.2 0.3-0.7 0.7-1.3 1.1-2 0.7 0.4 1.2 0.7 2 1.2-5.3 9.1-10.5 18.2-15.9 27.5zm-0.2-0.1c-0.5-0.3-0.9-0.8-1.2-0.7-0.3 0-0.5 0.5-0.8 0.8 0.3 0.3 0.6 0.7 0.9 0.7 0.3 0 0.6-0.4 1.1-0.8z"/>
					<path id="&lt;Compound Path&gt;" fill-rule="evenodd" class="s0" d="m294.3 392.1c0 0.8 0 1.4 0 2.1-0.3 0.1-0.6 0.2-0.9 0.2q-8.8 0-17.5 0c-3.8 0-7.6 0.1-11.4 0-1.4-0.1-2.2 0.4-3 1.7-4.6 8.2-9.4 16.4-14.1 24.6-0.2 0.4-0.5 0.7-0.8 1.2-0.6-0.4-1.2-0.7-1.9-1.2 5.3-9.1 10.5-18.2 15.8-27.4q-7.9-13.8-15.8-27.5c0.6-0.4 1.2-0.8 1.9-1.2 0.3 0.6 0.7 1.1 1 1.7 4.6 7.9 9.3 15.9 13.8 24 0.8 1.4 1.8 1.9 3.4 1.9 8.9-0.1 17.9-0.1 26.8-0.1 0.9 0 1.8 0 2.7 0zm-31.3 1.1c-0.5-0.3-0.9-0.8-1.1-0.7-0.3 0-0.6 0.5-0.8 0.8 0.3 0.3 0.5 0.7 0.8 0.7 0.3 0 0.6-0.4 1.1-0.8z"/>
					<path id="&lt;Compound Path&gt;" fill-rule="evenodd" class="s0" d="m183.9 394.4c0-0.8 0-1.5 0-2.3 0.9 0 1.8 0 2.7 0 8.7 0 17.5 0 26.2 0.1 2.2 0 3.3-0.7 4.3-2.6 4.4-7.8 8.9-15.5 13.4-23.2 0.3-0.6 0.7-1.2 1-1.8 0.7 0.4 1.2 0.7 2 1.2-5.3 9.1-10.5 18.2-15.9 27.5 5.3 9.1 10.5 18.2 15.8 27.4-0.6 0.4-1.1 0.8-1.8 1.3q-0.9-1.5-1.7-2.9c-4.4-7.5-8.7-15-13-22.5-0.9-1.6-1.9-2.3-3.8-2.2-8.9 0.1-17.9 0-26.8 0q-1.2 0-2.4 0zm32.4-2.2c-0.4 0.4-0.8 0.7-0.8 1 0 0.3 0.4 0.8 0.7 0.8 0.3 0 0.8-0.4 0.8-0.7 0.1-0.3-0.3-0.6-0.7-1.1z"/>
					<path id="&lt;Compound Path&gt;" fill-rule="evenodd" class="s0" d="m109.7 421.9c-0.7-0.4-1.2-0.7-1.9-1.2q0.5-0.9 1.1-1.9c4.5-7.8 8.9-15.6 13.5-23.4 0.9-1.5 1-2.6 0.1-4.2-4.6-7.8-9.1-15.6-13.6-23.4-0.3-0.6-0.7-1.3-1.1-2 0.6-0.4 1.1-0.7 1.8-1.2 0.2 0.3 0.5 0.5 0.6 0.8q6.7 11.6 13.4 23.2c0.3 0.4 0.5 0.8 0.7 1.2 0.7 1.8 1.9 2.4 4 2.4 8.8-0.1 17.7-0.1 26.6-0.1 0.8 0 1.6 0 2.5 0 0 0.8 0 1.5 0 2.3q-1.3 0-2.4 0c-9 0-17.9 0.1-26.9 0-1.9-0.1-2.9 0.6-3.8 2.2-4.4 7.8-8.9 15.5-13.4 23.3q-0.6 1-1.2 2zm16.4-28.7c-0.5-0.3-0.9-0.8-1.2-0.7-0.3 0-0.5 0.5-0.7 0.8 0.2 0.3 0.5 0.7 0.8 0.7 0.3 0 0.6-0.4 1.1-0.8z"/>
					<path id="&lt;Compound Path&gt;" fill-rule="evenodd" class="s0" d="m46.9 394.4c0-0.8 0-1.3 0-2 0.2-0.1 0.4-0.2 0.6-0.2q2.8-0.1 5.6-0.1c7.4 0 14.9 0.1 22.3 0 3.9 0 3 0.5 4.9-2.7 4.4-7.6 8.7-15.2 13.1-22.8 0.4-0.7 0.8-1.3 1.2-2 0.7 0.4 1.2 0.7 2 1.2-5.3 9.1-10.6 18.2-15.9 27.5 5.3 9.1 10.5 18.2 15.8 27.4-0.6 0.4-1.2 0.8-1.9 1.3q-0.9-1.6-1.8-3.1c-4.3-7.5-8.6-15-12.9-22.5-0.8-1.5-1.7-2.1-3.5-2-9 0.1-18 0-27 0-0.8 0-1.6 0-2.5 0zm33.6-1.1c-0.5-0.4-0.8-0.8-1.1-0.8-0.3 0-0.6 0.4-0.9 0.7 0.3 0.3 0.5 0.8 0.8 0.8 0.3 0 0.6-0.4 1.2-0.7z"/>
					<path id="&lt;Compound Path&gt;" fill-rule="evenodd" class="s0" d="m94.6 206.7c0.7 0.4 1.2 0.7 2 1.1-5.3 9.2-10.6 18.3-15.9 27.5 5.3 9.1 10.5 18.2 15.8 27.5-0.6 0.4-1.2 0.8-1.9 1.2q-0.8-1.4-1.7-2.9c-4.3-7.5-8.7-15-13-22.6-0.8-1.5-1.7-2.1-3.5-2.1-9 0.1-18 0.1-27 0.1q-1.2 0-2.5 0c0-0.8 0-1.4 0-2 0.2-0.1 0.4-0.2 0.6-0.2q5.3-0.1 10.7-0.1c5.9 0 11.8-0.1 17.7 0 2 0.1 3.2-0.5 4.2-2.3 4.3-7.8 8.9-15.5 13.3-23.3 0.4-0.6 0.8-1.2 1.2-1.9zm-14.1 28.7c-0.5-0.4-0.8-0.9-1.1-0.9-0.3 0-0.6 0.5-0.9 0.8 0.3 0.2 0.5 0.7 0.8 0.8 0.3 0 0.6-0.4 1.2-0.7z"/>
					<path id="&lt;Compound Path&gt;" fill-rule="evenodd" class="s0" d="m109.7 264c-0.6-0.4-1.2-0.7-1.9-1.2 5.2-9.1 10.5-18.3 15.8-27.5-5.3-9.1-10.5-18.2-15.8-27.4 0.6-0.4 1.2-0.8 1.9-1.3 0.4 0.7 0.8 1.3 1.2 2 4.5 7.9 9.2 15.8 13.7 23.8 0.7 1.3 1.6 1.8 3.1 1.8 9.1 0 18.1 0 27.1 0 0.8 0 1.6 0 2.6 0 0 0.8 0 1.4 0.1 2.1-0.4 0.1-0.8 0.2-1.1 0.2-9.4 0-18.8 0-28.2-0.1-1.9 0-2.9 0.6-3.9 2.2-4.2 7.5-8.6 15-12.9 22.5-0.5 1-1.1 1.9-1.7 2.9zm16.4-28.7c-0.5-0.4-0.9-0.8-1.2-0.8-0.3 0.1-0.5 0.6-0.7 0.9 0.2 0.2 0.5 0.7 0.8 0.7 0.3 0 0.6-0.5 1.1-0.8z"/>
					<path id="&lt;Compound Path&gt;" fill-rule="evenodd" class="s0" d="m507.3 578.6c-0.7 0.5-1.3 0.9-1.9 1.3q-0.9-1.4-1.7-2.9c-4.3-7.4-8.6-14.8-12.8-22.2-1.1-1.9-2.2-2.6-4.4-2.5-8.8 0.1-17.6 0-26.4 0.1q-1.2 0-2.4 0c0-0.9 0-1.5 0-2.3 0.9 0 1.8 0 2.7 0 9 0 17.9-0.1 26.8 0 1.7 0 2.6-0.5 3.4-1.9 4.5-8 9.1-15.9 13.7-23.9 0.3-0.5 0.7-1.1 1-1.7 0.7 0.3 1.2 0.6 2 1.1-5.3 9.1-10.5 18.2-15.9 27.5q8 13.7 15.9 27.4zm-17.2-26.3c0.4-0.5 0.8-0.9 0.8-1.2-0.1-0.3-0.6-0.7-0.9-0.7-0.2 0-0.7 0.5-0.7 0.8 0 0.3 0.5 0.6 0.8 1.1z"/>
					<path id="&lt;Compound Path&gt;" fill-rule="evenodd" class="s0" d="m233.5 523.7c-5.3 9.1-10.5 18.2-15.9 27.5q7.9 13.6 15.9 27.4c-0.7 0.5-1.3 0.9-2 1.3-2.3-3.9-4.5-7.8-6.7-11.7-2.7-4.6-5.5-9.2-8-13.9-0.9-1.6-1.9-2-3.5-2-9 0.1-17.9 0-26.9 0.1-0.8 0-1.6 0-2.5 0 0-0.8 0-1.4 0-2.3q1.2 0 2.4 0c9 0 18-0.1 27 0 1.8 0 2.7-0.6 3.5-2 4.5-8 9.1-15.9 13.7-23.9 0.3-0.5 0.6-1 1-1.6 0.6 0.3 1.2 0.7 2 1.1zm-17.3 28.6c0.4-0.5 0.8-0.8 0.8-1.1 0-0.3-0.4-0.8-0.7-0.8-0.3 0-0.8 0.5-0.8 0.7 0 0.3 0.4 0.7 0.7 1.2z"/>
					<path id="&lt;Compound Path&gt;" fill-rule="evenodd" class="s0" d="m507.3 104.9c-0.7 0.4-1.2 0.7-1.8 1.1-0.2-0.2-0.4-0.3-0.5-0.6-4.7-8-9.3-16.1-14-24.1-1.9-3.3-1-2.7-4.6-2.8-8.7 0-17.5 0-26.2 0-0.8 0-1.6 0-2.5 0 0-0.7 0-1.3 0-2.2q1.3 0 2.6 0c8.9 0 17.8-0.1 26.6 0 1.9 0 2.9-0.6 3.8-2.3 4.5-7.9 9.1-15.7 13.6-23.6 0.3-0.5 0.6-1 1-1.6 0.7 0.3 1.3 0.7 2 1.1-5.3 9.1-10.5 18.2-15.9 27.5 5.3 9.1 10.6 18.2 15.9 27.5zm-16.1-27.5c-0.5-0.3-0.8-0.8-1.1-0.8-0.3 0-0.6 0.5-0.8 0.7 0.2 0.3 0.4 0.8 0.7 0.8 0.3 0.1 0.7-0.3 1.2-0.7z"/>
					<path id="&lt;Compound Path&gt;" fill-rule="evenodd" class="s0" d="m568.1 76.3c0.1 0.7 0.1 1.3 0.1 2-0.2 0.1-0.5 0.2-0.8 0.2q-7.4 0-14.7 0c-4.8 0-9.6 0.1-14.3 0-1.5 0-2.3 0.4-3 1.7-4.7 8.2-9.5 16.4-14.2 24.6-0.2 0.4-0.5 0.8-0.8 1.2-0.6-0.4-1.2-0.7-1.9-1.1 5.3-9.2 10.5-18.3 15.8-27.5q-7.9-13.7-15.8-27.5c0.7-0.4 1.2-0.7 1.9-1.2 0.3 0.6 0.7 1.1 1 1.7 4.6 8 9.3 15.9 13.9 24 0.8 1.4 1.7 1.9 3.3 1.9 8.9-0.1 17.9 0 26.8 0q1.3 0 2.7 0zm-31.3 1c-0.5-0.3-0.8-0.7-1.1-0.7-0.3 0.1-0.6 0.5-0.8 0.8 0.3 0.3 0.6 0.7 0.9 0.7 0.3 0 0.6-0.4 1-0.8z"/>
					<path id="&lt;Compound Path&gt;" fill-rule="evenodd" class="s0" d="m294.4 76.3c0 0.8 0 1.4 0 2.1-0.4 0.1-0.8 0.1-1.1 0.1-9.4 0-18.8 0.1-28.2 0-1.9 0-2.9 0.5-3.9 2.2-4.2 7.5-8.5 15-12.9 22.5q-0.8 1.4-1.7 2.9c-0.6-0.4-1.2-0.8-1.9-1.3 5.3-9.1 10.5-18.2 15.8-27.4-5.3-9.2-10.5-18.3-15.8-27.4 0.6-0.5 1.2-0.9 1.9-1.3 0.7 1.1 1.3 2.2 2 3.3 4.3 7.5 8.6 15 12.9 22.5 0.8 1.3 1.6 1.8 3.2 1.8 8.9-0.1 17.8 0 26.8 0 0.9 0 1.8 0 2.9 0zm-31.4 1.1c-0.5-0.3-0.8-0.8-1-0.8-0.4 0-0.6 0.5-0.9 0.7 0.2 0.3 0.5 0.8 0.7 0.8 0.3 0.1 0.7-0.3 1.2-0.7z"/>
					<path id="&lt;Compound Path&gt;" fill-rule="evenodd" class="s0" d="m383.5 264c-0.7-0.4-1.3-0.8-1.9-1.2 5.3-9.2 10.5-18.3 15.8-27.5q-7.9-13.7-15.8-27.4c0.7-0.5 1.2-0.8 1.9-1.2 0.3 0.5 0.7 1.1 1 1.6 4.7 8 9.3 16 13.9 24 0.8 1.5 1.7 2 3.3 1.9 9 0 18 0 27.1 0 0.8 0 1.6 0 2.4 0 0 0.8 0 1.4 0 2.1-0.3 0.1-0.6 0.2-0.9 0.2q-9.9 0-19.7 0c-3.1 0-6.3 0-9.4-0.1-1.3 0-2 0.5-2.6 1.6-4.7 8.1-9.4 16.3-14.1 24.4-0.3 0.5-0.6 1-1 1.6zm15.4-27.6c0.3-0.5 0.7-0.9 0.7-1.1-0.1-0.3-0.6-0.8-0.8-0.7-0.3 0-0.8 0.5-0.8 0.8 0 0.3 0.5 0.5 0.9 1z"/>
					<path id="&lt;Compound Path&gt;" fill-rule="evenodd" class="s0" d="m183.8 78.5c0-0.8 0-1.4 0-2.2q1.4 0 2.7 0c9 0 18-0.1 27 0 1.6 0 2.4-0.5 3.2-1.8 4.5-8 9.1-15.9 13.7-23.9q0.5-0.9 1.1-1.9c0.7 0.4 1.3 0.8 2 1.2q-7.9 13.7-15.9 27.5c5.3 9.2 10.6 18.2 15.8 27.4-0.6 0.4-1.2 0.8-1.8 1.3-0.5-0.8-1-1.6-1.4-2.4-4.6-7.8-9.1-15.6-13.5-23.4-0.8-1.4-1.7-1.8-3.2-1.8-9 0.1-18 0-27.1 0-0.8 0-1.6 0-2.6 0zm32.5-2.2c-0.4 0.4-0.8 0.7-0.8 1 0 0.3 0.4 0.8 0.7 0.8 0.3 0 0.8-0.4 0.8-0.7 0.1-0.3-0.3-0.6-0.7-1.1z"/>
					<path id="&lt;Compound Path&gt;" fill-rule="evenodd" class="s0" d="m46.9-0.5c0-0.7 0-1.2 0-2 0.9 0 1.8 0 2.6 0 8.8 0 17.7-0.1 26.6 0.1 2 0 3-0.7 4-2.4 4.3-7.8 8.9-15.5 13.3-23.2 0.4-0.7 0.8-1.3 1.2-2 0.6 0.4 1.2 0.7 2 1.1-5.3 9.1-10.5 18.2-15.8 27.4 5.2 9.1 10.5 18.2 15.8 27.4-0.7 0.4-1.3 0.8-1.9 1.2q-0.7-1-1.3-2c-4.5-7.9-9.1-15.8-13.6-23.7-0.8-1.4-1.7-1.9-3.3-1.9-9 0-18 0-27.1 0-0.8 0-1.6 0-2.5 0zm33.5-0.7c-0.4-0.5-0.5-0.9-0.8-0.9-0.3-0.1-0.6 0.2-0.9 0.3 0.1 0.3 0.1 0.8 0.3 0.8 0.3 0.1 0.7-0.1 1.4-0.2z"/>
					<path id="&lt;Compound Path&gt;" fill-rule="evenodd" class="s0" d="m368.4-30c0.7 0.4 1.2 0.7 2 1.1-5.2 9.1-10.5 18.2-15.8 27.4 5.2 9.1 10.5 18.2 15.8 27.4-0.7 0.4-1.3 0.8-1.9 1.2q-0.7-1-1.3-2c-4.5-7.9-9.1-15.8-13.6-23.7-0.8-1.4-1.6-1.9-3.3-1.9-9 0-18 0-27 0-0.9 0-1.7 0-2.5 0 0-0.7 0-1.2 0-2 0.9 0 1.7 0 2.5 0 8.9 0 17.7-0.1 26.6 0.1 2 0 3-0.7 4-2.4 4.4-7.8 8.9-15.5 13.4-23.2 0.3-0.7 0.7-1.3 1.1-2zm-14.2 28.3c-0.6-0.2-0.9-0.4-1.3-0.4-0.2 0-0.3 0.5-0.5 0.8 0.3 0.2 0.6 0.5 0.9 0.4 0.3 0 0.5-0.4 0.9-0.8z"/>
					<path id="&lt;Compound Path&gt;" fill-rule="evenodd" class="s0" d="m431.2-2.5c0.1 0.8 0.1 1.3 0.1 1.9-0.4 0-0.8 0.1-1.1 0.1-9.4 0-18.8 0.1-28.2 0-1.9-0.1-2.9 0.6-3.8 2.2-4.4 7.8-8.9 15.5-13.4 23.3q-0.6 1-1.3 2.1c-0.6-0.4-1.2-0.7-1.9-1.2q7.9-13.7 15.8-27.4c-5.3-9.2-10.6-18.2-15.8-27.3 0.7-0.5 1.3-0.8 1.9-1.2q0.6 0.9 1.2 1.9c4.5 7.8 9.1 15.7 13.6 23.6 0.8 1.5 1.7 2.1 3.5 2.1 8.8-0.1 17.7-0.1 26.6-0.1 0.8 0 1.7 0 2.8 0zm-31.4 1c-0.4-0.3-0.7-0.7-0.9-0.6-0.4 0.1-0.6 0.4-0.9 0.7 0.3 0.2 0.6 0.5 0.9 0.5 0.2 0 0.5-0.3 0.9-0.6z"/>
					<path id="&lt;Compound Path&gt;" fill-rule="evenodd" class="s0" d="m109.7 27.1c-0.6-0.4-1.2-0.7-1.9-1.2q7.9-13.7 15.8-27.4c-5.3-9.1-10.5-18.2-15.8-27.3 0.6-0.4 1.2-0.8 1.9-1.2 0.4 0.6 0.8 1.3 1.2 1.9 4.6 7.9 9.2 15.9 13.7 23.8 0.7 1.4 1.6 1.9 3.2 1.9 8.9-0.1 17.8-0.1 26.8-0.1 0.9 0 1.8 0 2.7 0 0.1 0.4 0.1 0.7 0.1 1 0 0.3 0.1 0.5 0.1 1-0.9 0-1.7 0-2.5 0-9.1 0-18.1 0-27.1 0-1.6 0-2.5 0.4-3.3 1.9-4.5 7.9-9.1 15.7-13.6 23.6q-0.7 1.1-1.3 2.1zm16.3-28.6c-0.4-0.3-0.7-0.7-0.9-0.6-0.4 0.1-0.6 0.4-0.9 0.7 0.3 0.2 0.6 0.5 0.8 0.5 0.3 0 0.6-0.3 1-0.6z"/>
					<path id="&lt;Compound Path&gt;" fill-rule="evenodd" class="s0" d="m231.5-30c0.8 0.4 1.3 0.8 2 1.2-5.3 9-10.5 18.1-15.8 27.3 5.2 9.1 10.5 18.2 15.8 27.4-0.7 0.4-1.2 0.7-1.9 1.2-0.2-0.3-0.4-0.5-0.6-0.8q-6.9-12-13.8-24c-0.3-0.5-0.6-0.9-0.8-1.4-0.5-1.1-1.3-1.4-2.5-1.4-5 0-10.1 0-15.2 0-4.9 0-9.8 0-14.8 0 0-0.6 0-1.2 0-2q1.3 0 2.6 0c9 0 17.9 0 26.9 0.1 1.6 0 2.5-0.5 3.3-1.9 4.5-8 9.1-15.9 13.7-23.9 0.4-0.6 0.7-1.1 1.1-1.8zm-14.2 28.5c-0.4-0.3-0.8-0.7-1-0.6-0.3 0-0.5 0.4-0.8 0.7 0.3 0.2 0.5 0.5 0.8 0.5 0.3 0 0.6-0.3 1-0.6z"/>
					<path id="&lt;Compound Path&gt;" fill-rule="evenodd" class="s0" d="m244.7 25.9c5.3-9.2 10.5-18.3 15.8-27.4-5.3-9.2-10.6-18.2-15.8-27.3 0.7-0.5 1.2-0.8 1.9-1.2q0.6 0.9 1.1 1.9c4.6 7.8 9.1 15.6 13.5 23.4 1 1.6 1.9 2.3 3.9 2.3 8.7-0.1 17.5-0.1 26.3-0.1 0.9 0 1.8 0 2.8 0 0.1 0.7 0.2 1.2 0.2 1.9-0.4 0-0.8 0.1-1.1 0.1-9.4 0-18.8 0.1-28.2 0-1.9-0.1-2.9 0.6-3.8 2.2-4.4 7.8-8.9 15.5-13.4 23.3q-0.6 1-1.3 2.1c-0.6-0.4-1.2-0.7-1.9-1.2zm18.2-27.6c-0.5-0.2-0.8-0.5-1.1-0.4-0.2 0-0.5 0.4-0.7 0.6 0.3 0.2 0.6 0.6 1 0.6 0.2 0.1 0.4-0.4 0.8-0.8z"/>
					<path id="&lt;Compound Path&gt;" fill-rule="evenodd" class="s0" d="m505.4-30c0.7 0.4 1.2 0.8 1.9 1.2-5.2 9-10.4 18-15.8 27.3q7.8 13.6 15.8 27.4c-0.7 0.4-1.3 0.8-2 1.2-2.6-4.5-5.1-8.9-7.7-13.4-2.4-4.2-4.9-8.4-7.3-12.6-0.6-1.2-1.4-1.6-2.8-1.6-9.1 0-18.1 0-27.2 0-0.9 0-1.7 0-2.6 0 0-0.6 0-1.2 0-2q1.2 0 2.4 0c9 0 17.9 0 26.8 0.1 1.8 0 2.8-0.5 3.7-2.1 4.5-7.9 9.1-15.8 13.6-23.7 0.4-0.5 0.7-1.1 1.2-1.8zm-14.3 28.5c-0.4-0.3-0.8-0.7-1-0.6-0.3 0-0.5 0.4-0.8 0.7 0.3 0.2 0.6 0.5 0.8 0.5 0.3 0 0.6-0.3 1-0.6z"/>
					<path id="&lt;Compound Path&gt;" fill-rule="evenodd" class="s0" d="m520.4 27.1c-0.6-0.4-1.2-0.7-1.9-1.2q7.9-13.7 15.8-27.4c-5.3-9.2-10.6-18.2-15.8-27.3 0.7-0.5 1.3-0.8 1.9-1.2q0.6 0.9 1.2 1.9c4.5 7.8 9.1 15.7 13.6 23.6 0.8 1.5 1.7 2.1 3.5 2.1 8.8-0.1 17.7-0.1 26.6-0.1 0.9 0 1.8 0 2.8 0 0 0.7 0.1 1.2 0.1 1.9-0.4 0-0.8 0.1-1.1 0.1-9.4 0-18.8 0.1-28.2 0-1.9-0.1-2.9 0.6-3.8 2.2-4.4 7.8-8.9 15.5-13.4 23.3q-0.6 1-1.3 2.1zm16.4-28.8c-0.5-0.2-0.9-0.5-1.1-0.4-0.3 0-0.5 0.4-0.8 0.6 0.3 0.2 0.6 0.6 1 0.6 0.2 0.1 0.4-0.4 0.9-0.8z"/>
				</g>
			</g>
		</g>
	</g>
</svg>