<svg version="1.2" xmlns="http://www.w3.org/2000/svg" viewBox="0 0 1000 820" width="1000" height="820">
	<title>2470156</title>
	<style>
		.s0 { fill: #edea9b } 
		.s1 { fill: #8dc73f } 
		.s2 { fill: #a9cf55 } 
		.s3 { fill: #cbdd67 } 
		.s4 { fill: #75ad2a } 
		.s5 { fill: #82ba36 } 
	</style>
	<g id="background">
		<g id="&lt;Group&gt;">
			<path id="&lt;Path&gt;" class="s0" d="m1000 820h-1000v-1000h1000z"/>
			<path id="&lt;Path&gt;" class="s1" d="m1000 820v-648.5q-6.7 6.3-15 12.2c-8.1 4.2-16.7 8.1-25.8 11.8-18.7 5.9-38.3 11.1-58.8 15.6-20.9 3.7-42.2 6.7-64.2 8.6-40.3 1.7-80.9 1.1-121.1-0.9-17.2-1.4-33.9-3.4-50.5-6.1-14.4-3.3-28.3-7.1-41.6-11.4-48.6-18.6-92.8-40-139.7-59.4-57.4-23.9-122.5-50.1-200.3-57.3-99.2-9.1-197.4 7.5-273.5 37-3.2 1.3-6.4 2.6-9.5 4v694.4z"/>
			<g id="&lt;Group&gt;">
				<path id="&lt;Path&gt;" class="s2" d="m829.7 299.6q-0.2 0-0.4-0.1c-2.6-0.4-3.8-1.1 4.8 0.5q-0.1 0-0.3 0c-1.3-0.2-2.8-0.3-4.1-0.4z"/>
				<path id="&lt;Path&gt;" class="s2" d="m986.4 295.9q-6.3 0.9-12.6 1.7c-0.7 0-2.2 0.2-3.5 0.3-40.8 3.7-82 5.5-122.9 3.1q-6.7-0.4-13.3-1c0.3 0.1 0.5 0.1 0.8 0.2q-0.5-0.1-1.1-0.2-1.1-0.1-2.3-0.2c-0.7 0-1.5-0.1-2.2-0.3q-13.6-1.6-27.1-4c-18.4-3.4-35.9-8.3-53.5-13.6-36.3-10.9-72.2-22.6-109.2-32.3-77.6-20.4-160.6-28.7-243-26.9-83.6 1.8-167.1 13.5-247.2 31-41.1 9-82.3 19.2-121.1 32.5-9.6 3.3-19 7-28.2 10.8v523h1000v-526.7c-4.5 1-9 1.9-13.6 2.6z"/>
				<path id="&lt;Path&gt;" class="s3" d="m117.7 397.3c88.8-23.4 176.3-55.5 268.7-61.2 86.8-5.3 173.7 11.6 252.5 48.3 40 18.7 76.7 43.3 113.8 67.1 39.7 25.3 79.2 50.8 118.9 76.1 37.8 24 75.2 48.8 113.3 72.3q7.5 4.7 15.1 9.2v-110.9q-7.4-1.7-14.9-3.3c-25-5.2-49.1-11.5-73.3-19.9-40.8-14.3-79.7-33.4-117.7-53.9-68-36.6-134.5-75.4-206-104.8q-14.3-5.9-28.8-11.3-5.1-1.9-10.2-3.7c-2.1-0.5-4.3-1.5-6.4-2.2-18.8-6.2-37.8-11.8-57.1-16.4-19.6-4.6-39.5-8.1-59.5-10.5q-8.4-1-16.8-1.8c-0.1 0-0.5 0-1 0 2 0.4-3.3 0.8-4.5-0.4-9.4-0.5-18.7-0.9-28.1-1-39.9-0.7-79.9 2.2-119.6 6.2q-30.2 3-60.2 7.7-8.4 1.3-16.8 2.7c-0.3 0.1-1.1 0.2-2.1 0.3-0.6 0.1-1.7 0.3-3.5 0.7-8.7 1.7-17.3 3.4-25.9 5.2-39.5 8.5-78.5 19.1-116.9 31.3-10 3.2-20 6.6-29.8 10.3q-0.4 0.1-0.9 0.3v96.4c38.4-13.7 78.2-22.5 117.7-32.8z"/>
			</g>
			<g id="&lt;Group&gt;">
				<path id="&lt;Compound Path&gt;" class="s4" d="m140.2 452.6c5.7-5.4 9.2-12.7 4.8-19.8-3.1-5-8.5-6.4-14.2-5.6 1.3-2.8 2.3-5.7 2.8-8.7 1.4-7.8-0.1-16.8-7.7-20.8-8-4.1-17.4 0.4-23.2 6.3-4.1 4.1-6 8.7-6.9 13.7-2.1-1.8-4.4-3.3-7-4-5.6-1.7-12.7-0.2-17 3.8-8.1 7.4-6.1 19.8-1.7 29.7-5.7 0.4-10.7 3.2-10.9 10.1-0.3 12.2 11.8 20.4 22.9 20.9q0.5 0.1 1 0c6.7 2.8 14.3 4.1 20.9 3.5 9.7-0.8 21.3-2.9 30.3-7.1 6.5-3 13.9-11.4 9.2-18.9-0.9-1.4-2-2.4-3.3-3.1z"/>
				<path id="&lt;Compound Path&gt;" class="s4" d="m522 384.9c4.4-4.2 7.1-9.8 3.7-15.3-2.4-3.9-6.6-4.9-10.9-4.4 1-2.1 1.7-4.3 2.1-6.6 1.1-6-0.1-13-5.9-16.1-6.2-3.2-13.4 0.3-17.9 4.8-3.2 3.3-4.6 6.8-5.3 10.7-1.6-1.4-3.4-2.6-5.4-3.2-4.4-1.3-9.8-0.1-13.2 3-6.2 5.7-4.7 15.3-1.3 22.9-4.4 0.3-8.3 2.4-8.4 7.8-0.2 9.4 9.1 15.8 17.7 16.2q0.4 0 0.7-0.1c5.2 2.2 11.1 3.2 16.2 2.7 7.5-0.6 16.5-2.2 23.4-5.4 5-2.3 10.7-8.9 7.1-14.6-0.7-1.1-1.6-1.9-2.6-2.4z"/>
				<path id="&lt;Compound Path&gt;" class="s4" d="m398.8 425.7c1.9-5.6 1.7-11.8-3.6-15-3.8-2.3-8-1.4-11.5 1.1-0.1-2.3-0.4-4.6-1.1-6.8-1.8-5.7-5.9-11.3-12.4-11.4-6.8 0-11.5 6.2-13.4 12.2-1.4 4.2-1 8 0.1 11.7-2.1-0.6-4.1-0.8-6.1-0.4-4.4 0.8-8.6 4.3-10.2 8.5-2.9 7.7 2.7 15.4 9 20.5-3.6 2.3-6.1 5.8-3.8 10.6 4 8.3 15 9.7 22.6 6.2q0.4-0.1 0.6-0.4c5.5-0.4 11.1-2.1 15.3-4.8 6.3-3.9 13.4-9.3 18-15.2 3.4-4.2 5.5-12.5-0.2-15.9-1.2-0.6-2.3-0.9-3.3-0.9z"/>
				<path id="&lt;Compound Path&gt;" class="s5" d="m190.9 462.8c-5.1-1.7-10.3-1.7-15.3-0.7 5-4.1 10.6-10.2 10.2-17-0.1-1.4-1.1-2.3-2.4-2.4-5.9-0.3-11.5 1.8-16.6 4.5q-1.2 0.6-2.4 1.4c3.1-9.1 3-19.3-1.6-27.6-0.1-0.8-0.5-1.7-1.4-2.1-0.9-0.6-2-0.5-2.9 0.1-4.8 1.4-7.7 9.3-9.2 13.2-1.8 4.7-2.6 9.6-2.2 14.3-5.6-3.9-11.1-7.9-18.5-7.3-1.4 0.1-2.9 1.4-2.3 3 1.7 4.4 3.1 9.4 5.9 13.3-3.3 0.1-6.5 0.7-9 2-0.7 0.4-1.1 1-1.2 1.6-1 0.8-1.6 2.4-0.6 3.7 1.7 2.1 3.6 3.8 5.8 5-5.3 1.2-9.7 4.1-13.8 7.8-1.7 1.5-0.1 3.8 1.7 4 4.2 0.6 7.8 4 12 5 3.9 0.9 8.6 1.4 12.6 1.2 5.5-0.3 11.3-2.5 15.6-6.1 4.9 1.9 11.6 1.8 15.2 1.2 8.7-1.4 19.8-5.6 22-15.2 0.3-1.3-0.4-2.5-1.6-2.9z"/>
				<path id="&lt;Compound Path&gt;" class="s5" d="m362.2 443.5c-6.4-2.2-12.9-2.2-19.3-1 6.3-5.1 13.4-12.9 12.8-21.5-0.1-1.7-1.3-2.9-3-3-7.4-0.4-14.5 2.3-21 5.7q-1.5 0.8-3 1.8c3.9-11.5 3.8-24.4-2-34.9-0.1-1.1-0.7-2.2-1.8-2.6-1.1-0.9-2.6-0.7-3.6 0-6.2 1.8-9.8 11.8-11.7 16.7-2.3 5.9-3.2 12.1-2.7 18.2-7.2-5-14.1-10-23.5-9.3-1.8 0.1-3.6 1.8-2.9 3.8 2.1 5.6 3.9 11.9 7.5 16.9-4.2 0-8.2 0.8-11.4 2.5-1 0.4-1.4 1.2-1.5 2-1.3 0.9-2.1 3-0.8 4.7 2.1 2.7 4.6 4.7 7.3 6.3-6.7 1.6-12.2 5.2-17.4 9.8-2.1 2-0.2 4.9 2.1 5.2 5.4 0.6 9.9 5 15.2 6.2 5 1.2 10.9 1.9 16 1.6 7-0.4 14.2-3.2 19.7-7.8 6.2 2.4 14.7 2.4 19.2 1.6 11-1.8 25.1-7.1 27.9-19.2 0.4-1.7-0.5-3.2-2.1-3.7z"/>
			</g>
			<path id="&lt;Compound Path&gt;" class="s4" d="m281.3 449.7c-2.4-2.9-7.1-2-11.2-0.7 3.9-4.6 8.6-11.2 3.6-14.5-3.4-2.3-8.2-0.5-11.5 1.1-1.6 0.8-3.2 1.7-4.8 2.8 0.9-2.8 1.2-5.9 1.3-8.7 0.2-5.5-0.8-12.1-4.9-16.2-5.4-5.4-13.5-2.4-18.9 1.5-3.3 2.5-6.1 5.4-7.9 9-1.9 3.8-2.9 7.9-4.9 11.6-2.6-2.8-5.4-5-9.5-4.7-0.8 0-1.4 0.5-1.4 1.3-0.1 2-0.2 4.1-0.2 6.2-7.6-8.1-14.7-20.3-27-19.6-6.3 0.3-11.6 3.2-11.6 10 0 3.7 0.7 7.8 1.6 11.4 0.4 1.8 1 3.7 1.8 5.4 0.9 1.7 2.6 3.5 2.9 5.5-4.9-1.6-11.7-3.9-16.1-1-4.2 2.8-0.6 8.2 1.5 11.1 6.9 9.8 19.2 16.5 30.9 18.2 6.8 2.3 14.4 1.7 21.6 1.5 11-0.3 22.1-1.1 32.7-3.8 8.8-2.1 18-5.6 25.2-11.2 3.6-2.9 11.1-11.2 6.8-16.2z"/>
			<path id="&lt;Compound Path&gt;" class="s5" d="m493.1 381.7c-3.3-1.7-7.4 1-10.6 3.7 1.9-5.7 3.7-13.6-2.2-14.8-4-0.8-7.8 2.7-10.2 5.4-1.2 1.4-2.4 2.8-3.4 4.4-0.3-2.9-1.1-5.8-2.1-8.5-2-5.1-5.4-10.9-10.7-13.1-7.1-2.9-13.4 2.9-16.9 8.6-2.1 3.5-3.6 7.2-3.9 11.4-0.3 4.1 0.3 8.3-0.2 12.5-3.4-1.6-6.8-2.6-10.6-0.7-0.6 0.3-1 0.9-0.7 1.6 0.7 2 1.4 4 2.1 6-10.1-4.7-21.3-13.3-32.4-8-5.7 2.7-9.5 7.4-6.9 13.7 1.4 3.5 3.6 6.9 5.8 9.9 1.1 1.6 2.3 3.1 3.8 4.3 1.4 1.3 3.7 2.3 4.7 4-5.1 0.4-12.3 0.9-15.2 5.2-2.8 4.3 2.5 7.8 5.6 9.8 10.1 6.4 24 7.9 35.5 5 7.1-0.4 13.9-3.9 20.5-6.9 10-4.4 20-9.4 28.9-15.9 7.2-5.3 14.4-12 18.9-19.9 2.3-4.1 6-14.6 0.2-17.7z"/>
			<path id="&lt;Path&gt;" class="s1" d="m439.8 409c-113.8 66.3-230.6 72.1-363.4 54-28.1-3.8-53.8-9.9-76.4-13.8v370.8h1000v-470.7c-144.5-64.3-438.8-10.9-560.2 59.7z"/>
			<path id="&lt;Path&gt;" class="s3" d="m921.7 384.1c-14-3.9-28.7-6.3-42.5-10.4-21.8-6.3-42.9-11.6-66.1-12.5-30.4-1.1-61.3 2.6-89.7 11.8-2.5 1.4-8.8 3.3-15.8 5.7q-5.8 2.4-11.5 5.1c-12.7 6.2-27.1 14.5-32.4 26.4-4 8.9 1.2 16.6 8.6 22.9 16.1 13.7 39 22.1 60.5 28.2 37.9 10.8 78.1 15.3 118 14.6 28.3-0.5 63.9-0.6 89.7-11.5 31.3-13.2 22.2-43.2 4.7-62.2-6.6-7.2-14.7-13.1-23.5-18.1z"/>
			<g id="&lt;Group&gt;">
				<path id="&lt;Path&gt;" class="s2" d="m170.1 569.5q0.2 0 0.3-0.1c2.7-0.4 3.8-1.1-4.8 0.5q0.2 0 0.3 0c1.4-0.2 2.9-0.3 4.2-0.4z"/>
				<path id="&lt;Path&gt;" class="s2" d="m971.6 556.1c-38.8-13.3-80.1-23.5-121.2-32.5-80-17.5-163.5-29.2-247.2-31-82.3-1.8-165.3 6.5-243 26.9-36.9 9.7-72.8 21.4-109.2 32.3-17.5 5.3-35 10.2-53.4 13.6q-13.5 2.4-27.2 4c-0.6 0.2-1.4 0.3-2.1 0.3q-1.2 0.1-2.4 0.2-0.5 0.1-1 0.2c0.3-0.1 0.5-0.1 0.7-0.2q-6.6 0.6-13.2 1c-41 2.4-82.1 0.6-122.9-3.1-1.3-0.1-2.8-0.3-3.6-0.3q-6.3-0.8-12.5-1.7c-4.5-0.7-9-1.6-13.4-2.6v256.8h1000v-253c-9.3-3.9-18.7-7.5-28.4-10.9z"/>
				<path id="&lt;Path&gt;" class="s3" d="m6.1 713.3c9.2 0.3 18.4 0.4 27.6 0.5 24.1 0.2 48.2-0.5 72.2-2.7q16.6-1.6 33.1-3.9 9.2-1.3 18.3-2.8 2.4-0.4 4.8-0.8c-1.5 0.3-2.1 0.3 2.5-0.4q0.2-0.1 0.3-0.1c23.4-4.5 46.6-10 69.7-15.8 43.9-11.1 87.9-21.5 132.4-30 93.1-17.9 186.9-27.8 281.6-17.9 91.7 9.6 180.5 40.8 256.9 92.4 4 2.7 90.6 64.5 94.5 67.3v-55.8c-1.8-1.1-9.2-5.7-11-6.8-20.1-13.3-40.5-26.2-61.2-38.5-43.2-25.7-87.8-48.8-133.2-70.3-20.9-9.9-42.1-19.3-63.6-27.8q-9-3.6-18.1-7c-2.7-1-5.5-1.9-8.2-3q-0.5-0.1-0.7-0.2-0.3-0.1-0.5-0.2c-10-3.3-20-6.5-30.1-9.4-22.4-6.4-45.3-11.5-68.4-15q-10.5-1.6-21-2.7c-2.1-0.3-9.2-0.9-9.8-1-11.2-0.7-22.4-0.9-33.6-1-49.8-0.7-99.7 0.5-149.1 7.2-6.9 0.9-13.7 2-20.5 3.1-0.7 0.1-1.2 0.2-1.7 0.2q-4.9 1-9.9 2-16.7 3.4-33.1 7.9c-23.9 6.6-47.4 14.4-71.5 20.5-49.4 12.6-100.2 21.2-151.3 21.6-30.9 0.1-61.7 0.4-92.5-3.1q-5.4-0.7-11-1.6v94.8c2 0.1 4.1 0.2 6.1 0.3z"/>
			</g>
			<path id="&lt;Compound Path&gt;" class="s1" d="m953.3 623.3c-2.2-3-7-2.4-11.1-1.4 4.2-4.3 9.3-10.5 4.6-14.2-3.3-2.5-8.2-1.1-11.6 0.3-1.7 0.6-3.4 1.5-5 2.4 1.1-2.7 1.6-5.7 1.9-8.5 0.6-5.5 0.1-12.2-3.7-16.6-5.1-5.7-13.3-3.3-19 0.3-3.4 2.1-6.4 4.8-8.5 8.4-2.2 3.6-3.5 7.6-5.7 11.1-2.4-2.9-5.1-5.3-9.2-5.3-0.7 0-1.3 0.4-1.4 1.1-0.3 2.1-0.5 4.2-0.7 6.3-7-8.7-13.2-21.4-25.6-21.5-6.2-0.1-11.7 2.4-12.2 9.2-0.3 3.7 0.2 7.8 0.8 11.4 0.3 1.9 0.7 3.8 1.4 5.6 0.8 1.7 2.3 3.6 2.5 5.6-4.8-1.9-11.4-4.7-16-2.1-4.4 2.6-1.1 8.1 0.7 11.2 6.2 10.3 18 17.8 29.6 20.3 6.6 2.8 14.2 2.7 21.4 3 11 0.5 22.1 0.5 32.9-1.4 8.9-1.5 18.3-4.3 25.9-9.4 3.8-2.6 11.8-10.4 8-15.8z"/>
			<path id="&lt;Path&gt;" class="s1" d="m770.5 544.9c-5.5-3.6-11.8 0.9-16.6 5.1-2.9-3.2-6.6-4.5-9.4-2.3-4.9-5.9-11.7-13.2-18.6-7.5-3.3 2.7-3.5 6.7-2.3 10.6-6-1.4-12.2-1-13.8 4.6-1.9 6.6 1.6 10.3 6.9 12.5 6.2 4.8 15.8 7.2 22.5 7.5 10 0.5 23-1.6 30.4-8.9 5.1-5 8.1-16.8 0.9-21.6z"/>
			<path id="&lt;Path&gt;" class="s1" d="m753.3 681.6c-5.4-3.6-11.8 0.9-16.6 5-2.8-3.1-6.5-4.4-9.4-2.2-4.9-5.9-11.7-13.2-18.6-7.5-3.3 2.7-3.5 6.7-2.3 10.6-6-1.4-12.2-1.1-13.8 4.6-1.9 6.6 1.6 10.3 7 12.5 6.1 4.8 15.7 7.2 22.4 7.5 10 0.5 23-1.6 30.4-8.9 5.1-5 8.2-16.8 0.9-21.6z"/>
			<path id="&lt;Path&gt;" class="s1" d="m660.3 525.6c-2.5 0-4.6 1.1-6.5 2.8-1.3-3.7-4.3-6.2-9.2-5.5-1.7 0.2-2.9 2.2-3 3.8 0 0.6 0.1 1.2 0.1 1.7-3.9-2-8.4-3.1-13-2.8-2 0.1-4.1 1.8-4.1 4-0.5 0.6-0.9 1.5-0.9 2.5-0.1 8.4 6.6 14 14.3 16 4.3 1 7.8 0.4 11-1.2 5.8-0.5 12.2-4.3 15.4-8.5 3.2-4.3 2.7-12.7-4.1-12.8z"/>
			<path id="&lt;Path&gt;" class="s1" d="m299.8 694.8c-2.5 0-4.6 1.1-6.5 2.8-1.3-3.7-4.2-6.2-9.2-5.5-1.7 0.2-2.9 2.3-2.9 3.8 0 0.6 0 1.2 0 1.8-3.9-2.1-8.3-3.2-13-2.9-2 0.1-4.1 1.8-4 4-0.6 0.6-1 1.5-1 2.5-0.1 8.4 6.6 14 14.3 16 4.3 1 7.8 0.4 11.1-1.2 5.7-0.5 12.2-4.3 15.3-8.5 3.3-4.3 2.7-12.7-4.1-12.8z"/>
		</g>
	</g>
</svg>