<svg version="1.2" xmlns="http://www.w3.org/2000/svg" viewBox="0 0 792 576" width="792" height="576">
	<title>14206</title>
	<defs>
		<clipPath clipPathUnits="userSpaceOnUse" id="cp1">
			<path d="m0 576v-576h792v576z"/>
		</clipPath>
	</defs>
	<style>
		.s0 { fill: #d4d4d4 } 
	</style>
	<g id="&lt;Clip Group&gt;" clip-path="url(#cp1)">
		<g id="&lt;Group&gt;">
			<g id="&lt;Group&gt;">
				<g id="&lt;Group&gt;">
					<path id="&lt;Path&gt;" class="s0" d="m908 611.4c-25.8-10.1-50.5-15-75.5-15-25 0-49.7 4.9-75.5 15l-1.1-2.8c26.2-10.2 51.2-15.2 76.6-15.2 25.4 0 50.4 5 76.6 15.2z"/>
				</g>
				<g id="&lt;Group&gt;">
					<path id="&lt;Path&gt;" class="s0" d="m295.3 611.4c-25.9-10.1-50.6-15-75.6-15-25 0-49.7 4.9-75.5 15l-1.1-2.8c26.2-10.2 51.3-15.2 76.6-15.2 25.4 0 50.5 5 76.6 15.2z"/>
				</g>
				<g id="&lt;Group&gt;">
					<path id="&lt;Path&gt;" class="s0" d="m950.1 611.3c-31.6-17.3-70.4-35-117.6-35-47.2 0-85.9 17.7-117.6 35l-1.4-2.6c32-17.5 71.1-35.4 119-35.4 47.9 0 87.1 17.9 119.1 35.4z"/>
				</g>
				<g id="&lt;Group&gt;">
					<path id="&lt;Path&gt;" class="s0" d="m337.3 611.3c-31.6-17.3-70.4-35-117.6-35-47.2 0-85.9 17.7-117.6 35l-1.4-2.6c32-17.5 71.2-35.4 119-35.4 47.9 0 87.1 17.9 119.1 35.4z"/>
				</g>
				<g id="&lt;Group&gt;">
					<path id="&lt;Path&gt;" class="s0" d="m984.9 611.3c-45.7-27.1-93-55.2-152.4-55.2-59.4 0-106.7 28.1-152.4 55.2l-1.5-2.6c46-27.3 93.7-55.6 153.9-55.6 60.2 0 107.9 28.3 154 55.6z"/>
				</g>
				<g id="&lt;Group&gt;">
					<path id="&lt;Path&gt;" class="s0" d="m372.2 611.3c-45.8-27.1-93.1-55.2-152.5-55.2-59.4 0-106.7 28.1-152.4 55.2l-1.5-2.6c46.1-27.3 93.7-55.6 153.9-55.6 60.3 0 107.9 28.3 154 55.6z"/>
				</g>
				<g id="&lt;Group&gt;">
					<path id="&lt;Path&gt;" class="s0" d="m1019.8 611.3c-11.7-6.4-23.5-13.4-34.9-20.2-45.7-27.1-93-55.1-152.4-55.1-59.4 0-106.7 28-152.4 55.1-11.4 6.8-23.1 13.8-34.9 20.2l-1.5-2.6c11.8-6.5 23.5-13.4 34.9-20.1 46-27.3 93.7-55.6 153.9-55.6 60.3 0 107.9 28.3 154 55.6 11.3 6.7 23.1 13.6 34.8 20.1z"/>
				</g>
				<g id="&lt;Group&gt;">
					<path id="&lt;Path&gt;" class="s0" d="m407.1 611.3c-11.8-6.4-23.6-13.4-34.9-20.2-45.8-27.1-93.1-55.1-152.5-55.1-59.4 0-106.7 28-152.4 55.1-11.4 6.8-23.1 13.8-34.9 20.2l-1.4-2.6c11.7-6.5 23.4-13.4 34.8-20.1 46.1-27.3 93.7-55.6 153.9-55.6 60.3 0 107.9 28.3 154 55.6 11.3 6.7 23.1 13.6 34.8 20.1z"/>
				</g>
				<g id="&lt;Group&gt;">
					<path id="&lt;Path&gt;" class="s0" d="m1062.3 611.4c-27.2-10.6-52.7-25.8-77.3-40.4-45.8-27.1-93.1-55.1-152.5-55.1-59.4 0-106.7 28-152.4 55.1-24.7 14.6-50.2 29.8-77.4 40.4l-1.1-2.8c27-10.5 52.4-25.6 77-40.2 46-27.3 93.7-55.5 153.9-55.5 60.3 0 107.9 28.2 154 55.5 24.5 14.6 49.9 29.7 76.9 40.2z"/>
				</g>
				<g id="&lt;Group&gt;">
					<path id="&lt;Path&gt;" class="s0" d="m449.5 611.4c-27.2-10.6-52.7-25.8-77.3-40.4-45.8-27.1-93.1-55.1-152.5-55.1-59.4 0-106.7 28-152.4 55.1-24.5 14.5-49.8 29.6-76.8 40.2l-1.1-2.8c26.7-10.5 52-25.5 76.4-40 46.1-27.3 93.7-55.5 153.9-55.5 60.3 0 107.9 28.2 154 55.5 24.6 14.6 50 29.7 76.9 40.2z"/>
				</g>
				<g id="&lt;Group&gt;">
					<path id="&lt;Path&gt;" class="s0" d="m526.1 606.4c-60.2 0-107.9-28.2-153.9-55.5-45.8-27.1-93.1-55.1-152.5-55.1-59.4 0-106.7 28-152.4 55.1-24.5 14.5-49.8 29.5-76.8 40.1l-1.1-2.8c26.7-10.5 52-25.4 76.4-39.9 46.1-27.3 93.7-55.5 153.9-55.5 60.3 0 107.9 28.2 154 55.5 45.7 27.1 93 55.1 152.4 55.1 59.4 0 106.7-28 152.5-55.1 46-27.3 93.7-55.5 153.9-55.5v3c-59.4 0-106.7 28-152.4 55.1-46.1 27.3-93.7 55.5-154 55.5z"/>
				</g>
				<g id="&lt;Group&gt;">
					<path id="&lt;Path&gt;" class="s0" d="m526.1 586.3c-60.2 0-107.9-28.2-153.9-55.5-45.8-27.1-93.1-55.2-152.5-55.2-59.4 0-106.7 28.1-152.4 55.2-24.5 14.5-49.8 29.5-76.8 40.1l-1.1-2.8c26.7-10.5 52-25.4 76.4-39.9 46.1-27.3 93.7-55.6 153.9-55.6 60.3 0 107.9 28.3 154 55.6 45.7 27.1 93 55.1 152.4 55.1 59.4 0 106.7-28 152.5-55.1 46-27.3 93.7-55.6 153.9-55.6v3c-59.4 0-106.7 28.1-152.4 55.2-46.1 27.3-93.7 55.5-154 55.5z"/>
				</g>
				<g id="&lt;Group&gt;">
					<path id="&lt;Path&gt;" class="s0" d="m526.1 566.2c-60.2 0-107.9-28.2-153.9-55.5-45.8-27.2-93.1-55.2-152.5-55.2-59.4 0-106.7 28-152.4 55.1-24.5 14.6-49.8 29.6-76.8 40.2l-1.1-2.8c26.7-10.5 52-25.5 76.4-39.9 46.1-27.3 93.7-55.6 153.9-55.6 60.3 0 107.9 28.3 154 55.6 45.7 27.1 93 55.1 152.4 55.1 59.4 0 106.7-28 152.5-55.1 46-27.3 93.7-55.6 153.9-55.6v3c-59.4 0-106.7 28-152.4 55.2-46.1 27.3-93.7 55.5-154 55.5z"/>
				</g>
				<g id="&lt;Group&gt;">
					<path id="&lt;Path&gt;" class="s0" d="m526.1 546.1c-60.2 0-107.9-28.3-153.9-55.6-45.8-27.1-93.1-55.1-152.5-55.1-59.4 0-106.7 28-152.4 55.1-24.5 14.5-49.8 29.6-76.8 40.2l-1.1-2.8c26.7-10.5 52-25.5 76.4-40 46.1-27.3 93.7-55.5 153.9-55.5 60.3 0 107.9 28.2 154 55.5 45.7 27.1 93 55.2 152.4 55.2 59.4 0 106.7-28.1 152.5-55.2 46-27.3 93.7-55.5 153.9-55.5v3c-59.4 0-106.7 28-152.4 55.1-46.1 27.3-93.7 55.6-154 55.6z"/>
				</g>
				<g id="&lt;Group&gt;">
					<path id="&lt;Path&gt;" class="s0" d="m526.1 526c-60.2 0-107.9-28.3-153.9-55.6-45.8-27.1-93.1-55.1-152.5-55.1-59.4 0-106.7 28-152.4 55.1-24.5 14.5-49.8 29.5-76.8 40.1l-1.1-2.7c26.7-10.6 52-25.5 76.4-40 46.1-27.3 93.7-55.5 153.9-55.5 60.3 0 107.9 28.2 154 55.5 45.7 27.1 93 55.2 152.4 55.2 59.4 0 106.7-28.1 152.5-55.2 46-27.3 93.7-55.5 153.9-55.5v3c-59.4 0-106.7 28-152.4 55.1-46.1 27.3-93.7 55.6-154 55.6z"/>
				</g>
				<g id="&lt;Group&gt;">
					<path id="&lt;Path&gt;" class="s0" d="m526.1 505.8c-60.2 0-107.9-28.2-153.9-55.5-45.8-27.1-93.1-55.2-152.5-55.2-59.4 0-106.7 28.1-152.4 55.2-24.5 14.5-49.8 29.5-76.8 40.1l-1.1-2.8c26.7-10.5 52-25.4 76.4-39.9 46.1-27.3 93.7-55.6 153.9-55.6 60.3 0 107.9 28.3 154 55.6 45.7 27.1 93 55.1 152.4 55.1 59.4 0 106.7-28 152.5-55.1 46-27.3 93.7-55.6 153.9-55.6v3c-59.4 0-106.7 28.1-152.4 55.2-46.1 27.3-93.7 55.5-154 55.5z"/>
				</g>
				<g id="&lt;Group&gt;">
					<path id="&lt;Path&gt;" class="s0" d="m526.1 485.7c-60.2 0-107.9-28.2-153.9-55.5-45.8-27.1-93.1-55.2-152.5-55.2-59.4 0-106.7 28-152.4 55.2-24.5 14.5-49.8 29.5-76.8 40.1l-1.1-2.8c26.7-10.5 52-25.5 76.4-39.9 46.1-27.3 93.7-55.6 153.9-55.6 60.3 0 107.9 28.3 154 55.6 45.7 27.1 93 55.1 152.4 55.1 59.4 0 106.7-28 152.5-55.1 46-27.3 93.7-55.6 153.9-55.6v3c-59.4 0-106.7 28.1-152.4 55.2-46.1 27.3-93.7 55.5-154 55.5z"/>
				</g>
				<g id="&lt;Group&gt;">
					<path id="&lt;Path&gt;" class="s0" d="m526.1 465.6c-60.2 0-107.9-28.3-153.9-55.6-45.8-27.1-93.1-55.1-152.5-55.1-59.4 0-106.7 28-152.4 55.1-24.5 14.6-49.8 29.6-76.8 40.2l-1.1-2.8c26.7-10.5 52-25.5 76.4-40 46.1-27.3 93.7-55.5 153.9-55.5 60.3 0 107.9 28.2 154 55.6 45.7 27.1 93 55.1 152.4 55.1 59.4 0 106.7-28 152.5-55.1 46-27.4 93.7-55.6 153.9-55.6v3c-59.4 0-106.7 28-152.4 55.1-46.1 27.3-93.7 55.6-154 55.6z"/>
				</g>
				<g id="&lt;Group&gt;">
					<path id="&lt;Path&gt;" class="s0" d="m526.1 445.5c-60.2 0-107.9-28.3-153.9-55.6-45.8-27.1-93.1-55.1-152.5-55.1-59.4 0-106.7 28-152.4 55.1-24.5 14.5-49.8 29.6-76.8 40.2l-1.1-2.8c26.7-10.6 52-25.5 76.4-40 46.1-27.3 93.7-55.5 153.9-55.5 60.3 0 107.9 28.2 154 55.5 45.7 27.1 93 55.2 152.4 55.2 59.4 0 106.7-28.1 152.5-55.2 46-27.3 93.7-55.5 153.9-55.5v3c-59.4 0-106.7 28-152.4 55.1-46.1 27.3-93.7 55.6-154 55.6z"/>
				</g>
				<g id="&lt;Group&gt;">
					<path id="&lt;Path&gt;" class="s0" d="m526.1 425.3c-60.2 0-107.9-28.2-153.9-55.5-45.8-27.1-93.1-55.1-152.5-55.1-59.4 0-106.7 28-152.4 55.1-24.5 14.5-49.8 29.5-76.8 40.1l-1.1-2.8c26.7-10.5 52-25.4 76.4-39.9 46.1-27.3 93.7-55.5 153.9-55.5 60.3 0 107.9 28.2 154 55.5 45.7 27.1 93 55.1 152.4 55.1 59.4 0 106.7-28 152.5-55.1 46-27.3 93.7-55.5 153.9-55.5v3c-59.4 0-106.7 28-152.4 55.1-46.1 27.3-93.7 55.5-154 55.5z"/>
				</g>
				<g id="&lt;Group&gt;">
					<path id="&lt;Path&gt;" class="s0" d="m526.1 405.2c-60.2 0-107.9-28.2-153.9-55.5-45.8-27.1-93.1-55.2-152.5-55.2-59.4 0-106.7 28.1-152.4 55.2-24.5 14.5-49.8 29.5-76.8 40.1l-1.1-2.8c26.7-10.5 52-25.5 76.4-39.9 46.1-27.3 93.7-55.6 153.9-55.6 60.3 0 107.9 28.3 154 55.6 45.7 27.1 93 55.1 152.4 55.1 59.4 0 106.7-28 152.5-55.1 46-27.3 93.7-55.6 153.9-55.6v3c-59.4 0-106.7 28.1-152.4 55.2-46.1 27.3-93.7 55.5-154 55.5z"/>
				</g>
				<g id="&lt;Group&gt;">
					<path id="&lt;Path&gt;" class="s0" d="m526.1 385.1c-60.2 0-107.9-28.3-153.9-55.6-45.8-27.1-93.1-55.1-152.5-55.1-59.4 0-106.7 28-152.4 55.1-24.5 14.6-49.8 29.6-76.8 40.2l-1.1-2.8c26.7-10.5 52-25.5 76.4-39.9 46.1-27.4 93.7-55.6 153.9-55.6 60.3 0 107.9 28.2 154 55.6 45.7 27.1 93 55.1 152.4 55.1 59.4 0 106.7-28 152.5-55.1 46-27.4 93.7-55.6 153.9-55.6v3c-59.4 0-106.7 28-152.4 55.1-46.1 27.3-93.7 55.6-154 55.6z"/>
				</g>
				<g id="&lt;Group&gt;">
					<path id="&lt;Path&gt;" class="s0" d="m526.1 365c-60.2 0-107.9-28.3-153.9-55.6-45.8-27.1-93.1-55.1-152.5-55.1-59.4 0-106.7 28-152.4 55.1-24.5 14.5-49.8 29.6-76.8 40.2l-1.1-2.8c26.7-10.5 52-25.5 76.4-40 46.1-27.3 93.7-55.5 153.9-55.5 60.3 0 107.9 28.2 154 55.5 45.7 27.1 93 55.2 152.4 55.2 59.4 0 106.7-28.1 152.5-55.2 46-27.3 93.7-55.5 153.9-55.5v3c-59.4 0-106.7 28-152.4 55.1-46.1 27.3-93.7 55.6-154 55.6z"/>
				</g>
				<g id="&lt;Group&gt;">
					<path id="&lt;Path&gt;" class="s0" d="m526.1 344.8c-60.2 0-107.9-28.2-153.9-55.5-45.8-27.1-93.1-55.1-152.5-55.1-59.4 0-106.7 28-152.4 55.1-24.5 14.5-49.8 29.5-76.8 40.1l-1.1-2.8c26.7-10.5 52-25.4 76.4-39.9 46.1-27.3 93.7-55.5 153.9-55.5 60.3 0 107.9 28.2 154 55.5 45.7 27.1 93 55.1 152.4 55.1 59.4 0 106.7-28 152.5-55.1 46-27.3 93.7-55.5 153.9-55.5v3c-59.4 0-106.7 28-152.4 55.1-46.1 27.3-93.7 55.5-154 55.5z"/>
				</g>
				<g id="&lt;Group&gt;">
					<path id="&lt;Path&gt;" class="s0" d="m526.1 324.7c-60.2 0-107.9-28.2-153.9-55.5-45.8-27.1-93.1-55.2-152.5-55.2-59.4 0-106.7 28.1-152.4 55.2-24.5 14.5-49.8 29.5-76.8 40.1l-1.1-2.8c26.7-10.5 52-25.5 76.4-39.9 46.1-27.3 93.7-55.6 153.9-55.6 60.3 0 107.9 28.3 154 55.6 45.7 27.1 93 55.1 152.4 55.1 59.4 0 106.7-28 152.5-55.1 46-27.3 93.7-55.6 153.9-55.6v3c-59.4 0-106.7 28.1-152.4 55.2-46.1 27.3-93.7 55.5-154 55.5z"/>
				</g>
				<g id="&lt;Group&gt;">
					<path id="&lt;Path&gt;" class="s0" d="m526.1 304.6c-60.2 0-107.9-28.2-153.9-55.6-45.8-27.1-93.1-55.1-152.5-55.1-59.4 0-106.7 28-152.4 55.1-24.5 14.6-49.8 29.6-76.8 40.2l-1.1-2.8c26.7-10.5 52-25.5 76.4-39.9 46.1-27.3 93.7-55.6 153.9-55.6 60.3 0 107.9 28.3 154 55.6 45.7 27.1 93 55.1 152.4 55.1 59.4 0 106.7-28 152.5-55.1 46-27.3 93.7-55.6 153.9-55.6v3c-59.4 0-106.7 28-152.4 55.1-46.1 27.4-93.7 55.6-154 55.6z"/>
				</g>
				<g id="&lt;Group&gt;">
					<path id="&lt;Path&gt;" class="s0" d="m526.1 284.5c-60.2 0-107.9-28.3-153.9-55.6-45.8-27.1-93.1-55.1-152.5-55.1-59.4 0-106.7 28-152.4 55.1-24.5 14.5-49.8 29.6-76.8 40.2l-1.1-2.8c26.7-10.5 52-25.5 76.4-40 46.1-27.3 93.7-55.5 153.9-55.5 60.3 0 107.9 28.2 154 55.5 45.7 27.1 93 55.2 152.4 55.2 59.4 0 106.7-28.1 152.5-55.2 46-27.3 93.7-55.5 153.9-55.5v3c-59.4 0-106.7 28-152.4 55.1-46.1 27.3-93.7 55.6-154 55.6z"/>
				</g>
				<g id="&lt;Group&gt;">
					<path id="&lt;Path&gt;" class="s0" d="m526.1 264.3c-60.2 0-107.9-28.2-153.9-55.5-45.8-27.1-93.1-55.1-152.5-55.1-59.4 0-106.7 28-152.4 55.1-24.5 14.5-49.8 29.5-76.8 40.1l-1.1-2.8c26.7-10.5 52-25.4 76.4-39.9 46.1-27.3 93.7-55.5 153.9-55.5 60.3 0 107.9 28.2 154 55.5 45.7 27.1 93 55.1 152.4 55.1 59.4 0 106.7-28 152.5-55.1 46-27.3 93.7-55.5 153.9-55.5v3c-59.4 0-106.7 28-152.4 55.1-46.1 27.3-93.7 55.5-154 55.5z"/>
				</g>
				<g id="&lt;Group&gt;">
					<path id="&lt;Path&gt;" class="s0" d="m526.1 244.2c-60.2 0-107.9-28.2-153.9-55.5-45.8-27.1-93.1-55.2-152.5-55.2-59.4 0-106.7 28.1-152.4 55.2-24.5 14.5-49.8 29.5-76.8 40.1l-1.1-2.8c26.7-10.5 52-25.4 76.4-39.9 46.1-27.3 93.7-55.6 153.9-55.6 60.3 0 107.9 28.3 154 55.6 45.7 27.1 93 55.1 152.4 55.1 59.4 0 106.7-28 152.5-55.1 46-27.3 93.7-55.6 153.9-55.6v3c-59.4 0-106.7 28.1-152.4 55.2-46.1 27.3-93.7 55.5-154 55.5z"/>
				</g>
				<g id="&lt;Group&gt;">
					<path id="&lt;Path&gt;" class="s0" d="m526.1 224.1c-60.2 0-107.9-28.2-153.9-55.6-45.8-27.1-93.1-55.1-152.5-55.1-59.4 0-106.7 28-152.4 55.1-24.5 14.6-49.8 29.6-76.8 40.2l-1.1-2.8c26.7-10.5 52-25.5 76.4-39.9 46.1-27.3 93.7-55.6 153.9-55.6 60.3 0 107.9 28.3 154 55.6 45.7 27.1 93 55.1 152.4 55.1 59.4 0 106.7-28 152.5-55.1 46-27.3 93.7-55.6 153.9-55.6v3c-59.4 0-106.7 28-152.4 55.1-46.1 27.4-93.7 55.6-154 55.6z"/>
				</g>
				<g id="&lt;Group&gt;">
					<path id="&lt;Path&gt;" class="s0" d="m526.1 204c-60.2 0-107.9-28.3-153.9-55.6-45.8-27.1-93.1-55.1-152.5-55.1-59.4 0-106.7 28-152.4 55.1-24.5 14.5-49.8 29.6-76.8 40.2l-1.1-2.8c26.7-10.5 52-25.5 76.4-40 46.1-27.3 93.7-55.5 153.9-55.5 60.3 0 107.9 28.2 154 55.5 45.7 27.1 93 55.2 152.4 55.2 59.4 0 106.7-28.1 152.5-55.2 46-27.3 93.7-55.5 153.9-55.5v3c-59.4 0-106.7 28-152.4 55.1-46.1 27.3-93.7 55.6-154 55.6z"/>
				</g>
				<g id="&lt;Group&gt;">
					<path id="&lt;Path&gt;" class="s0" d="m526.1 183.9c-60.2 0-107.9-28.3-153.9-55.6-45.8-27.1-93.1-55.1-152.5-55.1-59.4 0-106.7 28-152.4 55.1-24.5 14.5-49.8 29.5-76.8 40.1l-1.1-2.7c26.7-10.6 52-25.5 76.4-40 46.1-27.3 93.7-55.5 153.9-55.5 60.3 0 107.9 28.2 154 55.5 45.7 27.1 93 55.2 152.4 55.2 59.4 0 106.7-28.1 152.5-55.2 46-27.3 93.7-55.5 153.9-55.5v3c-59.4 0-106.7 28-152.4 55.1-46.1 27.3-93.7 55.6-154 55.6z"/>
				</g>
				<g id="&lt;Group&gt;">
					<path id="&lt;Path&gt;" class="s0" d="m526.1 163.7c-60.2 0-107.9-28.2-153.9-55.5-45.8-27.1-93.1-55.2-152.5-55.2-59.4 0-106.7 28.1-152.4 55.2-24.5 14.5-49.8 29.5-76.8 40.1l-1.1-2.8c26.7-10.5 52-25.4 76.4-39.9 46.1-27.3 93.7-55.6 153.9-55.6 60.3 0 107.9 28.3 154 55.6 45.7 27.1 93 55.1 152.4 55.1 59.4 0 106.7-28 152.5-55.1 46-27.3 93.7-55.6 153.9-55.6v3c-59.4 0-106.7 28.1-152.4 55.2-46.1 27.3-93.7 55.5-154 55.5z"/>
				</g>
				<g id="&lt;Group&gt;">
					<path id="&lt;Path&gt;" class="s0" d="m526.1 143.6c-60.2 0-107.9-28.2-153.9-55.5-45.8-27.1-93.1-55.2-152.5-55.2-59.4 0-106.7 28.1-152.4 55.2-24.5 14.5-49.8 29.5-76.8 40.1l-1.1-2.8c26.7-10.5 52-25.5 76.4-39.9 46.1-27.3 93.7-55.6 153.9-55.6 60.3 0 107.9 28.3 154 55.6 45.7 27.1 93 55.1 152.4 55.1 59.4 0 106.7-28 152.5-55.1 46-27.3 93.7-55.6 153.9-55.6v3c-59.4 0-106.7 28.1-152.4 55.2-46.1 27.3-93.7 55.5-154 55.5z"/>
				</g>
				<g id="&lt;Group&gt;">
					<path id="&lt;Path&gt;" class="s0" d="m526.1 123.5c-60.2 0-107.9-28.3-153.9-55.6-45.8-27.1-93.1-55.1-152.5-55.1-59.4 0-106.7 28-152.4 55.1-24.5 14.6-49.8 29.6-76.8 40.2l-1.1-2.8c26.7-10.5 52-25.5 76.4-40 46.1-27.3 93.7-55.5 153.9-55.5 60.3 0 107.9 28.2 154 55.6 45.7 27.1 93 55.1 152.4 55.1 59.4 0 106.7-28 152.5-55.1 46-27.4 93.7-55.6 153.9-55.6v3c-59.4 0-106.7 28-152.4 55.1-46.1 27.3-93.7 55.6-154 55.6z"/>
				</g>
				<g id="&lt;Group&gt;">
					<path id="&lt;Path&gt;" class="s0" d="m526.1 103.4c-60.2 0-107.9-28.3-153.9-55.6-45.8-27.1-93.1-55.1-152.5-55.1-59.4 0-106.7 28-152.4 55.1-24.5 14.5-49.8 29.6-76.8 40.2l-1.1-2.8c26.7-10.6 52-25.5 76.4-40 46.1-27.3 93.7-55.5 153.9-55.5 60.3 0 107.9 28.2 154 55.5 45.7 27.1 93 55.2 152.4 55.2 59.4 0 106.7-28.1 152.5-55.2 46-27.3 93.7-55.5 153.9-55.5v3c-59.4 0-106.7 28-152.4 55.1-46.1 27.3-93.7 55.6-154 55.6z"/>
				</g>
				<g id="&lt;Group&gt;">
					<path id="&lt;Path&gt;" class="s0" d="m526.1 83.2c-60.2 0-107.9-28.2-153.9-55.5-45.8-27.1-93.1-55.1-152.5-55.1-59.4 0-106.7 28-152.4 55.1-24.5 14.5-49.8 29.5-76.8 40.1l-1.1-2.8c26.7-10.5 52-25.4 76.4-39.9 46.1-27.3 93.7-55.5 153.9-55.5 60.3 0 107.9 28.2 154 55.5 45.7 27.1 93 55.1 152.4 55.1 59.4 0 106.7-28 152.5-55.1 46-27.3 93.7-55.5 153.9-55.5v3c-59.4 0-106.7 28-152.4 55.1-46.1 27.3-93.7 55.5-154 55.5z"/>
				</g>
				<g id="&lt;Group&gt;">
					<path id="&lt;Path&gt;" class="s0" d="m526.1 63.1c-60.2 0-107.9-28.2-153.9-55.5-24.6-14.6-50-29.7-76.9-40.2l1-2.8c27.2 10.6 52.7 25.8 77.4 40.4 45.7 27.1 93 55.1 152.4 55.1 59.4 0 106.7-28 152.5-55.1 24.6-14.6 50.1-29.8 77.3-40.4l1.1 2.8c-27 10.5-52.4 25.6-76.9 40.2-46.1 27.3-93.7 55.5-154 55.5z"/>
				</g>
				<g id="&lt;Group&gt;">
					<path id="&lt;Path&gt;" class="s0" d="m-9.5 47.7l-1.1-2.8c26.7-10.5 52-25.5 76.4-39.9 24.6-14.6 50.1-29.8 77.3-40.4l1.1 2.8c-26.9 10.5-52.3 25.6-76.9 40.2-24.5 14.5-49.8 29.5-76.8 40.1z"/>
				</g>
				<g id="&lt;Group&gt;">
					<path id="&lt;Path&gt;" class="s0" d="m526.1 43c-60.2 0-107.9-28.3-153.9-55.6-11.4-6.7-23.1-13.6-34.9-20.1l1.5-2.6c11.8 6.4 23.5 13.4 34.9 20.2 45.7 27.1 93 55.1 152.4 55.1 59.4 0 106.7-28 152.5-55.1 11.3-6.8 23.1-13.8 34.9-20.2l1.4 2.6c-11.7 6.5-23.5 13.4-34.8 20.1-46.1 27.3-93.7 55.6-154 55.6z"/>
				</g>
				<g id="&lt;Group&gt;">
					<path id="&lt;Path&gt;" class="s0" d="m-9.5 27.6l-1.1-2.8c26.7-10.5 52-25.5 76.4-39.9 11.3-6.8 23.1-13.8 34.9-20.2l1.4 2.6c-11.7 6.5-23.5 13.4-34.8 20.1-24.5 14.6-49.8 29.6-76.8 40.2z"/>
				</g>
				<g id="&lt;Group&gt;">
					<path id="&lt;Path&gt;" class="s0" d="m526.1 22.9c-60.2 0-107.9-28.3-153.9-55.6l1.5-2.6c45.7 27.1 93 55.2 152.4 55.2 59.4 0 106.7-28.1 152.4-55.2l1.6 2.6c-46.1 27.3-93.7 55.6-154 55.6z"/>
				</g>
				<g id="&lt;Group&gt;">
					<path id="&lt;Path&gt;" class="s0" d="m-9.5 7.5l-1.1-2.8c26.7-10.5 51.9-25.5 76.3-39.9l1.6 2.5c-24.5 14.6-49.9 29.6-76.8 40.2z"/>
				</g>
				<g id="&lt;Group&gt;">
					<path id="&lt;Path&gt;" class="s0" d="m526.1 2.7c-47.9 0-87-17.9-119-35.4l1.4-2.6c31.7 17.3 70.4 35 117.6 35 47.2 0 86-17.7 117.6-35l1.5 2.6c-32 17.5-71.2 35.4-119.1 35.4z"/>
				</g>
				<g id="&lt;Group&gt;">
					<path id="&lt;Path&gt;" class="s0" d="m-9.5-12.7l-1.1-2.8c12.9-5 26.1-11.3 41.6-19.8l1.4 2.6c-15.6 8.6-28.9 14.9-41.9 20z"/>
				</g>
				<g id="&lt;Group&gt;">
					<path id="&lt;Path&gt;" class="s0" d="m526.1-17.4c-25.4 0-50.4-5-76.6-15.2l1.1-2.8c25.8 10.1 50.5 15 75.5 15 25 0 49.7-4.9 75.5-15l1.1 2.8c-26.1 10.2-51.2 15.2-76.6 15.2z"/>
				</g>
			</g>
		</g>
	</g>
</svg>